<?xml version="1.0" encoding="utf-8"?>
<!-- Generator: Adobe Illustrator 23.1.1, SVG Export Plug-In . SVG Version: 6.00 Build 0)  -->
<svg version="1.1" id="Layer_1" xmlns="http://www.w3.org/2000/svg" xmlns:xlink="http://www.w3.org/1999/xlink" x="0px" y="0px"
	 viewBox="0 0 650 650" style="enable-background:new 0 0 650 650;" xml:space="preserve">
<style type="text/css">
	.st0{fill:#123437;}
	.st1{fill:#FFFFFF;}
	.st2{fill:#D9AC9B;}
</style>
<g>
	<path class="st0" d="M1069,490.13c-35.71,11.12-75.62,12.39-112.76,9.72c-34.52-2.48-69.57-10.17-99.87-27.43
		c-32.34-18.42-58.75-48.22-66.28-85.32c-8.7-42.87-7.43-88.61,0.68-131.45c9.2-48.65,28.07-95.1,55.55-136.29
		c-2.01,0-4.02,0-6.02,0c5.96,10.52,11.93,21.04,17.89,31.56c5.11,9.02,9.66,18.83,15.85,27.16c5.42,7.3,12.29,10.04,21.19,10.8
		c12.19,1.05,24.44,1.59,36.65,2.37c24.26,1.56,48.52,3.13,72.79,4.69c12.36,0.8,24.72,1.59,37.08,2.39
		c9.59,0.62,20.55,2.82,29.95,0.07c9.9-2.9,13.83-12.35,18.23-20.76c6.32-12.11,12.65-24.22,18.97-36.33
		c-1.83,0.24-3.65,0.47-5.48,0.71c35.95,46.28,57.97,103.05,63.05,161.42c4.34,49.83-1.03,106.75-34.83,146.29
		C1115.06,469.1,1093.1,482.29,1069,490.13c-4.25,1.38-2.43,8.12,1.85,6.73c46.2-15.01,80.19-49.08,94.37-95.67
		c16.94-55.66,10.83-119.57-7.95-173.92c-11.26-32.57-27.79-62.97-48.93-90.18c-1.36-1.75-4.53-1.11-5.48,0.71
		c-6.12,11.72-12.24,23.44-18.36,35.16c-2.73,5.23-5.25,12.31-9.89,16.2c-4.94,4.14-11.77,3.51-17.77,3.18
		c-27.93-1.56-55.85-3.6-83.77-5.4c-13.73-0.88-27.47-1.77-41.2-2.65c-6.87-0.44-13.73-0.88-20.6-1.33
		c-6.8-0.44-14.22-0.15-20.87-1.71c-12.35-2.89-17.89-19.22-23.54-29.18c-6.85-12.08-13.69-24.15-20.54-36.23
		c-1.35-2.39-4.61-2.12-6.02,0c-50.37,75.51-71.92,169.05-59.3,258.98c3.09,22.02,9.39,41.69,22.52,59.81
		c10.04,13.86,22.36,25.84,36.38,35.65c29.22,20.45,64.42,30.57,99.48,34.92c20.17,2.5,40.56,3.06,60.85,2.21
		c23.84-0.99,47.75-3.42,70.61-10.54C1075.13,495.52,1073.3,488.79,1069,490.13z"/>
	<path class="st0" d="M1104.79,177.93c-1.94,7.07-3.17,14.24-3.78,21.55c-0.14,1.65,1.21,2.81,2.56,3.36
		c6.07,2.47,12.23,2.99,18.68,2.07c1.77-0.25,3.03-2.69,2.44-4.29c-2.93-7.99-6.76-15.48-11.64-22.46
		c-1.51-2.16-5.88-2.42-6.38,0.83c-1.23,8.05-0.81,15.82,1.54,23.64c0.65,2.16,3.14,3.23,5.12,2.09c3-1.72,5.88-4.32,5.15-8.14
		c-0.57-2.99-3.76-5.48-6.83-4.47c-6.45,2.11-1.36,12.6,4.65,7.91c3.54-2.76-1.43-7.66-4.93-4.93c-0.16,0.13-0.32,0.25-0.48,0.38
		c1.13-0.3,2.26-0.6,3.39-0.9c0.43,0.46,0.87,0.91,1.3,1.37c-0.34,0.82-0.68,1.64-1.02,2.47c0.16-0.16,0.32-0.31,0.48-0.47
		c-0.82,0.34-1.64,0.68-2.47,1.02c-0.95-1.09-1.87-1.18-2.77-0.26c1.71,0.69,3.42,1.39,5.12,2.08c-1.97-6.53-2.57-13.16-1.54-19.93
		c-2.13,0.28-4.25,0.56-6.38,0.83c4.53,6.48,8.21,13.37,10.93,20.79c0.81-1.43,1.62-2.86,2.44-4.29
		c-5.18,0.74-10.16-0.11-14.97-2.07c0.85,1.12,1.71,2.24,2.56,3.36c0.56-6.69,1.75-13.22,3.53-19.69
		C1112.71,175.45,1105.98,173.6,1104.79,177.93L1104.79,177.93z"/>
	<path class="st0" d="M835.49,160.45c-3.47,5.41-6.94,10.82-10.41,16.23c-0.93,1.45-0.43,4.04,1.25,4.77
		c6.99,3.05,14.11,3.92,21.63,2.53c1.88-0.35,2.88-2.59,2.44-4.29c-1.61-6.25-4.03-12.2-7.21-17.82c-1.14-2.02-3.86-2.21-5.48-0.71
		c-2.64,2.46-5.26,5.64-4.49,9.51c0.65,3.28,3.6,6.01,7.04,5.56c4.44-0.58,4.53-6.48,0-6.98c-4.79-0.53-9.11,1.89-11.54,5.98
		c-0.82,1.37-0.51,3.09,0.55,4.23c1.91,2.06,4.32,3.07,7.13,2.87c4.45-0.32,4.49-7.3,0-6.98c-0.92,0.28-1.66,0.01-2.2-0.82
		c0.18,1.41,0.36,2.82,0.55,4.23c1.27-2.14,3.1-2.79,5.52-2.52c0-2.33,0-4.65,0-6.98c-0.32,0.04,2.13-2.91,2.39-3.15
		c-1.83-0.24-3.65-0.47-5.48-0.71c2.9,5.12,5.04,10.46,6.5,16.15c0.81-1.43,1.62-2.86,2.44-4.29c-5.49,1.01-11.12,0.41-16.25-1.83
		c0.42,1.59,0.83,3.18,1.25,4.77c3.47-5.41,6.94-10.82,10.41-16.23C843.94,160.18,837.91,156.68,835.49,160.45L835.49,160.45z"/>
	<path class="st0" d="M1074.73,285.71c-2.4,7.3,0.32,14.3,6.65,18.5c1.23,0.81,3.24,0.55,4.23-0.55c8.36-9.26,8.42-22.72,0.24-32.11
		c-1.63-1.87-4.22-0.94-5.48,0.71c-9.18,12.04-9.96,28.33-2.44,41.38c1.17,2.04,3.83,2.18,5.48,0.71
		c10.34-9.24,10.36-26.15,0.05-35.42c-1.63-1.46-4.33-1.34-5.48,0.71c-4.98,8.91-3.67,19.28,3.29,26.73c1.23,1.32,3.71,1.37,4.93,0
		c4.19-4.7,4.94-10.6,1.51-16.01c-1.27-2-3.75-2.2-5.48-0.71c-5.6,4.83-6.66,12.02-3.42,18.53c1.49,2.99,5.35,1.67,6.38-0.83
		c1.91-4.66,2.19-8.76,1.48-13.71c-0.56-3.94-6.91-2.93-6.85,0.93c0.03,1.93,0.06,3.87,0.08,5.8c0.06,4.49,7.04,4.5,6.98,0
		c-0.03-1.93-0.06-3.87-0.08-5.8c-2.28,0.31-4.57,0.62-6.85,0.93c0.52,3.68-0.1,6.64-1.48,10c2.13-0.28,4.25-0.56,6.38-0.83
		c-1.92-3.86-0.8-7.37,2.33-10.07c-1.83-0.24-3.65-0.47-5.48-0.71c1.92,2.54,1.77,5.06-0.42,7.56c1.64,0,3.29,0,4.93,0
		c-4.81-5.14-5.62-12.15-2.2-18.27c-1.83,0.24-3.65,0.47-5.48,0.71c7.62,6.86,7.6,18.72-0.05,25.56c1.83,0.24,3.65,0.47,5.48,0.71
		c-6.4-11.1-5.28-24.21,2.44-34.34c-1.83,0.24-3.65,0.47-5.48,0.71c5.59,6.42,5.44,15.94-0.24,22.24c1.41-0.18,2.82-0.36,4.23-0.55
		c-3.84-2.55-4.84-6.38-3.44-10.62C1082.87,283.29,1076.13,281.46,1074.73,285.71L1074.73,285.71z"/>
	<path class="st0" d="M866.2,285.71c-2.4,7.3,0.32,14.3,6.65,18.5c1.23,0.81,3.24,0.55,4.23-0.55c8.36-9.26,8.42-22.72,0.24-32.11
		c-1.63-1.87-4.22-0.94-5.48,0.71c-9.18,12.04-9.96,28.33-2.44,41.38c1.17,2.04,3.83,2.18,5.48,0.71
		c10.34-9.24,10.36-26.15,0.05-35.42c-1.63-1.46-4.33-1.34-5.48,0.71c-4.98,8.91-3.67,19.28,3.29,26.73c1.23,1.32,3.71,1.37,4.93,0
		c4.19-4.7,4.94-10.6,1.51-16.01c-1.27-2-3.75-2.2-5.48-0.71c-5.6,4.83-6.66,12.02-3.42,18.53c1.49,2.99,5.35,1.67,6.38-0.83
		c1.91-4.66,2.19-8.76,1.48-13.71c-0.56-3.94-6.91-2.93-6.85,0.93c0.03,1.93,0.06,3.87,0.08,5.8c0.06,4.49,7.04,4.5,6.98,0
		c-0.03-1.93-0.06-3.87-0.08-5.8c-2.28,0.31-4.57,0.62-6.85,0.93c0.52,3.68-0.1,6.64-1.48,10c2.13-0.28,4.25-0.56,6.38-0.83
		c-1.92-3.86-0.8-7.37,2.33-10.07c-1.83-0.24-3.65-0.47-5.48-0.71c1.92,2.54,1.77,5.06-0.42,7.56c1.64,0,3.29,0,4.93,0
		c-4.81-5.14-5.62-12.15-2.2-18.27c-1.83,0.24-3.65,0.47-5.48,0.71c7.62,6.86,7.6,18.72-0.05,25.56c1.83,0.24,3.65,0.47,5.48,0.71
		c-6.4-11.1-5.28-24.21,2.44-34.34c-1.83,0.24-3.65,0.47-5.48,0.71c5.59,6.42,5.44,15.94-0.24,22.24c1.41-0.18,2.82-0.36,4.23-0.55
		c-3.84-2.55-4.84-6.38-3.44-10.62C874.33,283.29,867.6,281.46,866.2,285.71L866.2,285.71z"/>
	<path class="st0" d="M974.75,326.41c-7.38-5.95-15.42,4.44-9.17,11.11c6.97,7.43,20.15,3.77,25.73-3.43
		c6.26-8.08-5.55-15.39-13.17-14.59c-8.71,0.92-13.03,9.89-9.67,17.66c3.39,7.83,13.13,9.43,18.46,2.59
		c5.38-6.9,1.84-18.68-8.21-17.25c-8.24,1.17-9.01,14.53-0.16,14.68c7.88,0.14,8.5-11.9,1.74-14.3
		c-10.92-3.88-17.03,14.6-6.38,18.81c8.94,3.54,13.57-11.2,4.64-13.02c-1.65-0.34-2.99,0.26-3.94,1.6c-2.2,3.09-2.18,6.65-0.13,9.8
		c0.93,1.43,2.33,1.86,3.94,1.6c11.69-1.86,4.55-22.47-7.23-14.19c-5.3,3.73-5.64,10.75-2.17,15.83c3.85,5.63,11.2,8.1,17.77,7.13
		c12.59-1.85,19.91-19.46,7.92-27.36c-10.14-6.68-26.48,0.8-29.12,12.34c-1.63,7.13,4.03,12.7,11,12.31
		c7.92-0.44,11.94-7.93,13.99-14.64c0.6-1.95-0.73-3.61-2.44-4.29c-6.42-2.58-17.56,3.34-13.1,11.04c1.58,2.72,5.35,6.23,8.77,5.55
		c4.41-0.88,8.43-6.98,10.25-10.59c2.01-4-4-7.54-6.02-3.52c-1.66,3.29-3.78,5.76-6.91,7.73c1.17,0,2.35,0,3.52,0
		c-1.54-0.67-4.06-1.47-2.91-3.13c0.86-1.24,3.49-0.78,4.55-0.36c-0.81-1.43-1.62-2.86-2.44-4.29c-0.9,2.93-2.13,6.95-4.97,8.6
		c-2.08,1.21-3.79,1.37-5.42-0.55c-1.75-2.05-0.88-3.61,0.5-5.65c2.89-4.27,9.5-7.14,14.57-5.76c7.54,2.06,6.1,11.82,0.07,14.78
		c-3.32,1.62-7.52,1.3-10.69-0.54c-1.4-0.81-3.02-2.1-3.7-3.65c-0.17-1.08-0.34-2.17-0.51-3.25c4.01-1.96,4.96-2.05,2.85-0.29
		c1.31,0.53,2.63,1.07,3.94,1.6c0.04-0.92,0.09-1.84,0.13-2.76c-1.31,0.53-2.63,1.07-3.94,1.6c-3.27-0.67-0.71-5.47,1.79-5.88
		c2.79-0.46,4.31,0.95,4.02,3.6c-0.46,4.26-5.54,5.39-7.51,1.62c-4.48-8.54,8.41-11,12.03-3.33c0-1.17,0-2.35,0-3.52
		c-1.74,2.97-4.27,5.19-7.62,6.14c-1.21,0.34-2.54,0.54-3.8,0.48c-3.49-0.17-3.33-1.18-5.81-3.18
		C973.28,334.14,978.24,329.23,974.75,326.41L974.75,326.41z"/>
	<path class="st0" d="M931.7,359.42c-5.15,20.6,12.27,39.83,33.41,35.29c22-4.73,25.38-30.17,26.16-48.77c0.19-4.61-6.4-4.3-6.98,0
		c-2.33,17.43-2.82,50.63,17.55,58.71c8.69,3.45,18.43-0.19,24.63-6.73c7.61-8.02,9.5-19.28,10.78-29.83c0.54-4.45-6.44-4.41-6.98,0
		c-1.05,8.59-2.54,18.35-8.74,24.9c-6.09,6.43-15.74,8.43-22.29,1.54c-11.04-11.6-9.92-34.04-7.98-48.58c-2.33,0-4.65,0-6.98,0
		c-0.57,13.46-1.51,31.6-14.44,39.46c-16.72,10.17-35.97-5.97-31.43-24.13C939.52,356.92,932.79,355.06,931.7,359.42L931.7,359.42z"
		/>
	<path class="st0" d="M923.73,192.85c-3.19,14.58-3.65,29.6-0.61,44.26c1.79,8.66,6.95,19.99,17.61,18.81
		c10.47-1.15,14.34-13.57,16.25-22.18c3.38-15.26,3.39-30.86,0.62-46.21c-0.38-2.11-3.39-3.32-5.12-2.09
		c-6.9,4.9-14.24,8.53-22.36,10.93c1.13,1.94,2.26,3.89,3.39,5.83c2.48-2.36,5.23-3.2,8.59-2.99c-0.82-1.99-1.64-3.97-2.47-5.96
		c-6.41,7.01-10.77,15.05-12.98,24.3c-0.78,3.25,3.36,6.04,5.83,3.39c6.95-7.46,13.91-14.93,20.86-22.39
		c-1.64-1.64-3.29-3.29-4.93-4.93c-9.16,10.7-15.01,23.28-16.89,37.26c-0.49,3.61,4.26,6.46,6.38,2.69
		c5.03-8.96,10.06-17.91,15.08-26.87c-2.13-0.9-4.25-1.79-6.38-2.69c-4.53,11.7-9.07,23.4-13.6,35.11c-1.42,3.68,4.61,6.2,6.38,2.69
		c4.8-9.56,9.6-19.13,14.39-28.69c-2.17-0.59-4.33-1.17-6.5-1.76c-0.93,14.02-5.21,27.11-12.59,39.06c1.83-0.24,3.65-0.47,5.48-0.71
		c-12.93-16.73-8.2-39.92-3.94-58.87c-2.28-0.31-4.57-0.62-6.85-0.93c-0.05,7.36-0.67,14.98-0.06,22.31
		c0.33,3.99,1.98,8.15,6.24,9.16c11.15,2.63,16.43-19.36,18.52-26.46c-2.28-0.31-4.57-0.62-6.85-0.93
		c1.91,16.25-0.92,32.14-8.59,46.62c1.59-0.42,3.18-0.83,4.77-1.25c-1.92-1.18-2.9-2.79-2.94-4.84c-0.72-4.42-7.45-2.54-6.73,1.85
		c0.67,4.07,2.72,6.8,6.14,9.01c1.54,0.99,3.92,0.36,4.77-1.25c8.22-15.51,11.59-32.69,9.54-50.14c-0.44-3.72-5.66-4.96-6.85-0.93
		c-0.83,2.82-7.33,23.22-10.91,20.07c-1.24-1.09-0.18-8.73-0.17-10.43c0.03-4.27,0.05-8.53,0.08-12.8c0.02-3.86-5.98-4.83-6.85-0.93
		c-4.92,21.92-9.02,46.56,5.74,65.66c1.43,1.85,4.43,1,5.48-0.71c8.03-13,12.53-27.34,13.54-42.58c0.23-3.41-4.97-4.81-6.5-1.76
		c-4.8,9.56-9.6,19.13-14.39,28.69c2.13,0.9,4.25,1.79,6.38,2.69c4.53-11.7,9.07-23.4,13.6-35.11c1.44-3.73-4.48-6.07-6.38-2.69
		c-5.03,8.96-10.06,17.91-15.08,26.87c2.13,0.9,4.25,1.79,6.38,2.69c1.72-12.76,6.7-24.38,15.09-34.18
		c2.89-3.37-1.84-8.26-4.93-4.93c-6.95,7.46-13.91,14.93-20.86,22.39c1.94,1.13,3.89,2.26,5.83,3.39
		c1.94-8.08,5.57-15.08,11.19-21.22c2.11-2.3,0.57-5.76-2.47-5.96c-5.33-0.34-9.67,1.37-13.52,5.03c-2.52,2.39,0.08,6.81,3.39,5.83
		c8.68-2.57,16.65-6.39,24.03-11.64c-1.71-0.7-3.42-1.39-5.12-2.09c1.95,10.78,2.38,21.72,1.06,32.6
		c-0.88,7.29-2.17,22.4-9.85,26.32c-10.27,5.23-12.89-15.57-13.5-21.09c-1.2-10.91-0.46-21.82,1.88-32.52
		C931.42,190.33,924.7,188.46,923.73,192.85L923.73,192.85z"/>
	<path class="st0" d="M980.89,195.19c-4.6,14.46-6.46,31.28-2.24,46.08c2.58,9.04,9.55,19.19,20.28,17.09
		c11.2-2.19,14.93-15.63,17.48-25.07c3.68-13.63,5.83-27.64-0.4-40.84c-1.31-2.78-5.65-1.9-6.38,0.83
		c-4.21,15.82-9.49,31.28-15.94,46.33c2.13,0.9,4.25,1.79,6.38,2.69c3.01-14.53,6.01-29.06,9.02-43.59c0.8-3.84-4.19-6.1-6.38-2.69
		c-5.83,9.13-11.67,18.25-17.5,27.38c2.01,1.17,4.02,2.35,6.02,3.52c3.82-7.2,5.95-14.62,6.59-22.75c0.16-2.04-1.74-3.27-3.49-3.49
		c-3.88-0.49-6.6,0.64-9.38,3.32c1.83,1.41,3.65,2.82,5.48,4.23c2.25-4.86,2.83-9.38,1.82-14.64c-0.7-3.68-5.66-2.93-6.73,0
		c-6.83,18.71-12.9,45.12,8.43,57.11c1.8,1.01,4.73,0.2,5.12-2.08c2.86-16.64,4.65-33.39,5.3-50.26c0.12-3.14-3.84-4.44-5.96-2.47
		c-12.31,11.45-13.73,28.69-14.3,44.53c-0.1,2.87,4,4.8,5.96,2.47c9.42-11.23,13.21-24.98,11.01-39.46
		c-0.38-2.49-4.27-3.48-5.83-1.54c-6.13,7.63-10.2,16.01-12.04,25.65c2.24,0,4.49,0,6.73,0c-2.36-10.01,0.02-20.07,6.76-27.88
		c-1.99-0.82-3.97-1.64-5.96-2.47c0.22,7.81-0.16,15.54-1.16,23.29c-0.52,4.02,5.76,4.54,6.85,0.93c1.85-6.09,4.68-11.08,9-15.77
		c-1.94-0.51-3.89-1.03-5.83-1.54c6.18,15.5,5.04,32.32-3.46,46.72c-1.98,3.35,2.77,7.22,5.48,4.23
		c12.65-13.98,17.54-32.81,13.23-51.18c-0.96-4.09-6.48-2.76-6.85,0.93c-1.61,15.97-6.69,31.03-14.9,44.81c2.01,0,4.02,0,6.02,0
		c-9.24-15.66-0.39-34.16,7.17-48.62c-1.31,0.53-2.63,1.07-3.94,1.6c1.47,0.58,2.94,1.16,4.4,1.74c0.62-2.24,1.24-4.49,1.85-6.73
		c-1.97-0.36-3.95-0.71-5.92-1.07c-4.39-0.79-6.27,5.93-1.85,6.73c1.97,0.36,3.95,0.71,5.92,1.07c4.46,0.81,6.02-5.08,1.85-6.73
		c-1.47-0.58-2.94-1.16-4.4-1.74c-1.36-0.54-3.28,0.35-3.94,1.6c-8.81,16.87-17.84,37.58-7.17,55.66c1.34,2.27,4.68,2.25,6.02,0
		c8.86-14.87,14.12-31.12,15.86-48.33c-2.28,0.31-4.57,0.62-6.85,0.93c3.72,15.86-0.5,32.3-11.43,44.39
		c1.83,1.41,3.65,2.82,5.48,4.23c9.36-15.86,10.99-34.96,4.16-52.1c-0.91-2.28-3.88-3.65-5.83-1.54
		c-5.08,5.51-8.62,11.67-10.79,18.84c2.28,0.31,4.57,0.62,6.85,0.93c1-7.75,1.38-15.48,1.16-23.29c-0.08-2.82-3.89-4.86-5.96-2.47
		c-8.41,9.75-11.52,22.11-8.55,34.67c0.76,3.24,6.07,3.41,6.73,0c1.6-8.37,4.9-15.91,10.25-22.57c-1.94-0.51-3.89-1.03-5.83-1.54
		c1.8,11.8-1.55,23.53-9.21,32.67c1.99,0.82,3.97,1.64,5.96,2.47c0.5-13.97,1.36-29.46,12.25-39.6c-1.99-0.82-3.97-1.64-5.96-2.47
		c-0.62,16.25-2.29,32.38-5.05,48.41c1.71-0.7,3.42-1.39,5.12-2.09c-18.21-10.24-10.85-33.79-5.22-49.23c-2.24,0-4.49,0-6.73,0
		c0.63,3.33,0.31,6.18-1.12,9.27c-1.6,3.46,2.47,7.13,5.48,4.23c1.48-0.43,2.97-0.85,4.45-1.28c-1.16-1.16-2.33-2.33-3.49-3.49
		c-0.55,6.93-2.38,13.09-5.64,19.23c-2.11,3.98,3.6,7.31,6.02,3.52c5.83-9.13,11.67-18.25,17.5-27.38c-2.13-0.9-4.25-1.79-6.38-2.69
		c-3.01,14.53-6.01,29.06-9.02,43.59c-0.75,3.61,4.73,6.53,6.38,2.69c6.7-15.61,12.28-31.58,16.65-47.99
		c-2.13,0.28-4.25,0.56-6.38,0.83c4.65,9.86,3.33,20.64,0.87,30.91c-1.77,7.4-4.05,21.79-12.58,24.31
		c-10.62,3.13-13.74-13.69-14.44-20.74c-1.12-11.35,0.33-22.56,3.78-33.4C988.98,192.76,982.25,190.92,980.89,195.19L980.89,195.19z
		"/>
	<path class="st0" d="M1036.48,199.07c-4.58,14.6-6.16,29.92-4.18,45.12c1.37,10.53,5.29,23.56,18.55,21.91
		c11.9-1.48,16.97-13.7,19.46-23.9c3.61-14.8,3.2-30.13-0.64-44.83c-1.03-3.96-6.59-2.88-6.85,0.93
		c-1.32,19.19-5.81,37.77-13.21,55.52c2.28,0.31,4.57,0.62,6.85,0.93c-0.95-16.34,1.75-32.18,8.01-47.3
		c-2.24-0.62-4.49-1.24-6.73-1.85c-3.67,11.01-7.34,22.01-11,33.02c2.24,0.62,4.49,1.24,6.73,1.85
		c3.39-13.22,6.77-26.44,10.16-39.65c0.89-3.47-3.27-5.7-5.83-3.39c-8.99,8.09-14.96,18.52-17.34,30.39
		c-0.75,3.73,4.33,6.29,6.38,2.69c5.08-8.91,8.68-18.31,10.8-28.35c0.52-2.47-1.61-5.15-4.29-4.29
		c-6.94,2.22-11.76,7.31-13.14,14.53c-0.71,3.74,4.28,6.28,6.38,2.69c3.17-5.42,3.17-11.05,0.06-16.5
		c-1.56-2.73-5.44-1.92-6.38,0.83c-6.64,19.45-5.29,40.17,3.41,58.74c1.23,2.63,5.86,2.05,6.38-0.83
		c2.11-11.82,2.6-23.58,1.28-35.53c-0.41-3.72-5.7-4.96-6.85-0.93c-3.58,12.51-2.59,24.98,2.52,36.9c1.43,3.34,6.47,1.43,6.5-1.76
		c0.06-5.64,1.23-10.62,3.78-15.67c-2.13-0.9-4.25-1.79-6.38-2.69c-1.93,6.16-3.87,12.32-5.8,18.48c-0.91,2.89,2.57,5.51,5.12,3.94
		c16.26-10.01,23.81-30.36,17.63-48.51c-1.44-4.23-8.18-2.41-6.73,1.85c5.18,15.18-0.69,32.18-14.42,40.63
		c1.71,1.31,3.42,2.63,5.12,3.94c1.93-6.16,3.87-12.32,5.8-18.48c1.17-3.73-4.57-6.24-6.38-2.69c-3.09,6.1-4.66,12.34-4.74,19.19
		c2.17-0.59,4.33-1.17,6.5-1.76c-4.36-10.15-4.84-20.95-1.82-31.53c-2.28-0.31-4.57-0.62-6.85-0.93c1.25,11.3,0.97,22.47-1.03,33.67
		c2.13-0.28,4.25-0.56,6.38-0.83c-7.91-16.89-8.72-35.76-2.71-53.36c-2.13,0.28-4.25,0.56-6.38,0.83c1.82,3.18,1.79,6.29-0.06,9.45
		c2.13,0.9,4.25,1.79,6.38,2.69c0.91-4.79,3.57-8.15,8.27-9.66c-1.43-1.43-2.86-2.86-4.29-4.29c-1.99,9.47-5.3,18.27-10.09,26.68
		c2.13,0.9,4.25,1.79,6.38,2.69c2.17-10.81,7.34-19.92,15.54-27.31c-1.94-1.13-3.89-2.26-5.83-3.39
		c-3.39,13.22-6.77,26.44-10.16,39.65c-1.12,4.38,5.32,6.1,6.73,1.85c3.67-11.01,7.34-22.01,11-33.02c1.45-4.36-5.06-5.88-6.73-1.85
		c-6.47,15.64-9.24,32.26-8.26,49.16c0.24,4.13,5.37,4.48,6.85,0.93c7.65-18.33,12.1-37.57,13.46-57.37
		c-2.28,0.31-4.57,0.62-6.85,0.93c2.66,10.17,3.6,20.58,2.45,31.05c-0.99,9.03-3.34,25.1-13.47,28.47
		c-13.14,4.36-13.35-18.17-13.5-25.76c-0.21-10.94,1.52-21.64,4.79-32.06C1044.55,196.63,1037.82,194.8,1036.48,199.07
		L1036.48,199.07z"/>
	<path class="st0" d="M1147.44,362.18c13.02-4.56,26.31-4.23,39.11,0.89c4.17,1.67,5.98-5.08,1.85-6.73
		c-13.81-5.52-28.79-5.8-42.82-0.89C1141.37,356.93,1143.18,363.67,1147.44,362.18L1147.44,362.18z"/>
	<path class="st0" d="M1146.52,388.22c13.59,0.32,26.07,5.32,36.08,14.53c3.3,3.04,8.25-1.89,4.93-4.93
		c-11.37-10.46-25.56-16.21-41.02-16.57C1142.02,381.13,1142.03,388.11,1146.52,388.22L1146.52,388.22z"/>
	<path class="st0" d="M1141.65,411.23c10.09,3.6,18.12,10.71,23.17,20.12c2.13,3.96,8.15,0.44,6.02-3.52
		c-5.93-11.05-15.56-19.12-27.34-23.33C1139.27,402.98,1137.44,409.72,1141.65,411.23L1141.65,411.23z"/>
	<path class="st0" d="M754.91,349.34c15.27-6.18,31.97-6.38,47.2,0.12c4.08,1.74,7.64-4.27,3.52-6.02
		c-16.93-7.22-35.44-7.75-52.58-0.82C748.95,344.27,750.74,351.02,754.91,349.34L754.91,349.34z"/>
	<path class="st0" d="M772.47,374.01c9.5-5.64,19.73-8.3,30.76-8.02c4.49,0.11,4.49-6.86,0-6.98c-12.19-0.31-23.81,2.75-34.28,8.97
		C765.09,370.28,768.59,376.32,772.47,374.01L772.47,374.01z"/>
	<path class="st0" d="M775.76,402.97c11.13-8.9,23.9-14.93,37.77-18.13c4.37-1.01,2.52-7.74-1.85-6.73
		c-15.1,3.49-28.75,10.26-40.84,19.93C767.32,400.84,772.28,405.75,775.76,402.97L775.76,402.97z"/>
</g>
<path class="st0" d="M767.93-68.6c0.83,20.75,2.71,42.75,13.68,60.94c12.54,20.79,34.75,30.12,57.7,34.54
	c28.04,5.4,57.09,7.32,85.58,8.43c30.35,1.18,60.77,0.57,91.05-1.84c24.96-1.99,54.08-2.8,74.79-18.7
	c15.94-12.23,22.63-31.33,24.62-50.7c2.64-25.64-0.92-52.15-2.37-77.78c-1.75-31.07-3.5-62.14-5.25-93.21
	c-3.97-70.36-7.93-140.72-11.9-211.08c-0.16-2.77-3.77-4.8-5.87-2.43c-16.09,18.16-32.18,36.33-48.27,54.49
	c-8.05,9.08-16.08,18.17-24.14,27.25c-3.17,3.57-6.34,7.39-10.58,9.73c-5.48,3.03-12.19,3.04-18.27,3.45
	c-48.77,3.34-97.54,6.62-146.3,9.93c1.1,0.84,2.21,1.68,3.31,2.52c-12.14-41.16-37.04-77.13-69.2-105.26c-3.3-2.89-8,1.68-4.86,4.86
	c1.93,1.96,1.03,9.42,0.93,12.24c-0.28,7.73-1.15,15.45-2.06,23.13c-1.88,15.89-4.48,31.71-5.92,47.65
	c-0.65,7.2-0.05,13.94,0.49,21.17c1.13,15.26,1.82,30.55,2.21,45.85c0.79,30.66,0.41,61.33,0.06,91.99
	C767-137.14,766.66-102.86,767.93-68.6c0.16,4.41,7.04,4.43,6.87,0c-2.34-63.12,0.89-126.27-0.47-189.41
	c-0.33-15.3-0.93-30.6-1.96-45.87c-0.59-8.75-1.68-17.27-0.92-26.01c1.43-16.37,4.14-32.62,6.05-48.94c0.99-8.51,2-17.1,2.05-25.67
	c0.02-4.35,0.3-10.43-3.02-13.81c-1.62,1.62-3.24,3.24-4.86,4.86c31.29,27.38,55.61,62.15,67.43,102.23
	c0.4,1.37,1.81,2.63,3.31,2.52c26.19-1.78,52.38-3.55,78.57-5.33c24.96-1.69,50.11-2.61,74.99-5.13
	c9.22-0.94,16.46-4.02,22.91-10.73c8.36-8.71,16.09-18.1,24.1-27.13c17.28-19.51,34.57-39.02,51.85-58.53
	c-1.96-0.81-3.91-1.62-5.87-2.43c6.54,116.05,13.11,232.1,19.62,348.15c1.12,19.96,1.92,41.57-6.85,60.11
	c-11.03,23.31-34.95,30.68-58.82,33.68c-55.78,7.01-112.9,6.73-168.76,0.83c-26.81-2.83-59.14-5.2-78.97-25.85
	c-17.11-17.82-19.46-44.08-20.4-67.53C774.63-73,767.75-73.03,767.93-68.6z"/>
<path class="st0" d="M947.2-166.93c-9.22-2.72-22.2,0.96-24.75,11.42c-2.81,11.53,11.81,14.14,20.08,12.49
	c8.43-1.69,21.44-10.87,15.44-20.91c-5.38-8.99-19.19-6.01-25.95-0.72c-6.79,5.32-11.75,18.59,0.49,20.61
	c7.09,1.17,20.91-7.05,18.17-15.58c-2.84-8.85-16.99-5.39-19.21,2.13c-2.46,8.32,7.93,15.89,13.96,8.42
	c6.9-8.56-7.86-16.15-11.57-6.99c-1.67,4.13,1.55,8.08,5.64,8.78c5.29,0.91,8.78-3.12,11.5-7.01c0.95-1.36,0.36-3.02-0.54-4.17
	c-3.12-4-9.03-3.97-12.28-0.16c-0.99,1.17-1.36,2.78-0.54,4.17c1.59,2.66,3.6,3.3,6.57,2.85c4.36-0.66,2.51-7.29-1.83-6.63
	c0.4,0.1,0.8,0.21,1.2,0.31c-0.18,1.39-0.36,2.78-0.54,4.17c0.85,0.05,1.7,0.11,2.55,0.16c-0.18-1.39-0.36-2.78-0.54-4.17
	c-1.08,1.54-4.38,5.23-6.7,4.27c-2.13-0.88,2.31-5.32,4.18-4.42c3.74,1.81-5.27,6.59-6.99,6.94c-4.15,0.86-3.84-3.37-1.8-5.88
	c1.08-1.32,2.41-2.44,3.84-3.35c3.25-2.08,7.92-3.43,11.7-2.03c5.7,2.11,1.4,8.04-2.12,10.16c-3.45,2.08-7.6,3.04-11.62,2.65
	c-2.69-0.27-7.42-1.04-5.97-5.71c0.57-1.84,2.96-3.42,4.52-4.27c3.54-1.92,7.48-2.02,11.27-0.9
	C949.63-159.05,951.44-165.68,947.2-166.93L947.2-166.93z"/>
<path class="st0" d="M930.3-145.56c3.27,9.48,2.5,21.28-7.14,26.79c-9.22,5.27-22.37-1.24-19.21-12.8c1.17-4.27-5.46-6.1-6.63-1.83
	c-3.85,14.12,9.49,26.4,23.31,23.01c16.53-4.05,21.29-22.51,16.3-37C935.49-151.54,928.85-149.76,930.3-145.56L930.3-145.56z"/>
<path class="st0" d="M933.41-138.79c1.83,11.48,5.92,24.88,18.75,28.04c12.23,3.01,19.64-8.13,24.05-17.67
	c1.85-3.99-4.08-7.48-5.94-3.47c-3.4,7.33-9.1,18.33-18.99,13.54c-8.23-3.98-9.96-14.19-11.25-22.28
	C939.34-144.98,932.72-143.13,933.41-138.79L933.41-138.79z"/>
<path class="st0" d="M1009.3-247.7c-2.35,11.29-0.52,22.4,5.56,32.22c1.42,2.3,4.48,2.13,5.94,0c9.43-13.85,9.52-32.12,0.28-46.08
	c-1.1-1.66-3.93-2.53-5.4-0.7c-10.24,12.73-11.45,30.52-2.21,44.19c1.31,1.94,4.77,2.52,5.94,0c4.32-9.35,12.51-32.94-1.82-37.98
	c-1.6-0.56-3.98,0.65-4.23,2.4c-1.11,7.8-0.75,15.19,1.34,22.79c0.63,2.28,4.08,3.61,5.74,1.52c4-5.03,4.72-11.07,1.18-16.6
	c-1.26-1.96-4.82-2.5-5.94,0c-2.23,5.02-2.74,9.72-1.28,15.04c1.17,4.26,7.8,2.45,6.63-1.83c-0.96-3.51-0.91-6.38,0.59-9.75
	c-1.98,0-3.96,0-5.94,0c1.69,2.64,1.99,5.64-0.1,8.27c1.91,0.51,3.83,1.01,5.74,1.52c-1.76-6.37-2.28-12.58-1.34-19.13
	c-1.41,0.8-2.82,1.6-4.23,2.4c7.7,2.71-0.32,23.63-2.29,27.88c1.98,0,3.96,0,5.94,0c-7.37-10.92-7.23-25.47,1.13-35.86
	c-1.8-0.23-3.6-0.46-5.4-0.7c7.99,12.07,7.86,27.19-0.28,39.14c1.98,0,3.96,0,5.94,0c-5.11-8.26-6.85-17.39-4.87-26.93
	C1016.82-250.19,1010.2-252.04,1009.3-247.7L1009.3-247.7z"/>
<path class="st0" d="M849.28-248.87c-4.45,6.7-6.4,14.62-5.03,22.61c0.9,5.24,3.88,14.09,10.84,12.78
	c6.14-1.16,7.58-10.83,8.21-15.77c1.06-8.39-0.63-16.51-4.33-24.06c-1.23-2.51-4.58-1.94-5.94,0c-7.93,11.32-10.45,24.87-7.5,38.34
	c0.46,2.11,3.25,3.22,5.05,2.05c10.06-6.52,13.27-19.92,6.75-30.13c-1.28-2.01-3.65-2.12-5.4-0.7c-4.74,3.88-6.35,9.82-4.32,15.59
	c1.05,2.99,4.48,3.17,6.28,0.82c2.17-2.82,2.97-5.49,3.12-9.02c0.12-2.77-4-4.81-5.87-2.43c-3.61,4.59-4.83,9.7-2.65,15.27
	c1.59,4.08,8.24,2.3,6.63-1.83c-1.16-2.97-1.23-5.89,0.88-8.58c-1.96-0.81-3.91-1.62-5.87-2.43c0.03,2.21-0.7,4.06-2.18,5.55
	c2.09,0.27,4.19,0.55,6.28,0.82c-1.27-3.62-0.41-6.48,2.56-8.9c-1.8-0.23-3.6-0.46-5.4-0.7c4.43,6.95,2.75,16.16-4.28,20.73
	c1.68,0.68,3.37,1.37,5.05,2.05c-2.58-11.76-0.08-23.21,6.81-33.04c-1.98,0-3.96,0-5.94,0c2.02,4.12,3.36,8.46,3.67,13.05
	c0.22,3.24,0.71,10.66-1.69,13.25c-3.45,3.72-4.39-6.06-4.32-8.52c0.16-4.96,1.8-9.24,4.52-13.33
	C857.68-249.1,851.72-252.54,849.28-248.87L849.28-248.87z"/>
<path class="st0" d="M875.77-313.44c9.2,4.12,7.01,17.54,11.48,25.26c3.59,6.19,9.65,10.82,16.43,13.02
	c6.74,2.19,13.91,1.84,20.36-1.09c10.27-4.68,17.1-12.71,29.36-10.26c8.71,1.74,16.4,4.16,25.28,1.88
	c7.28-1.88,14.05-6.2,18.97-11.86c6.48-7.46,15.49-30.64-1.23-32.15c-1.07-0.1-2.54,0.7-2.97,1.7
	c-4.83,11.26-11.36,21.29-19.81,30.17c1.8,1.39,3.6,2.78,5.4,4.17c4.25-6.5,9.15-12.35,14.75-17.72c-1.8-1.39-3.6-2.78-5.4-4.17
	c-5.6,7.68-12.07,14.45-19.37,20.52c1.62,1.62,3.24,3.24,4.86,4.86c5.98-7.07,12.78-12.89,20.73-17.64c-1.57-1.57-3.14-3.14-4.7-4.7
	c-4.82,6.47-9.63,12.95-14.45,19.42c1.98,1.16,3.96,2.31,5.94,3.47c4.58-6.9,9.91-12.98,16.07-18.51c-1.62-1.62-3.24-3.24-4.86-4.86
	c-6.38,7.01-13.2,13.51-20.5,19.55c1.8,1.39,3.6,2.78,5.4,4.17c4.13-7.66,8.25-15.33,12.38-22.99c1.53-2.84-1.71-6.73-4.7-4.7
	c-8.49,5.75-16.98,11.51-25.47,17.26c1.39,1.8,2.78,3.6,4.17,5.4c5.35-6.21,10.71-12.42,16.06-18.63c2.37-2.75-0.79-7.83-4.17-5.4
	c-8.77,6.32-17.54,12.65-26.31,18.97c1.39,1.8,2.78,3.6,4.17,5.4c5.78-6.1,11.56-12.19,17.34-18.29c2.61-2.75-0.77-7.57-4.17-5.4
	c-11.06,7.09-22.12,14.18-33.17,21.27c1.39,1.8,2.78,3.6,4.17,5.4c9.29-7.46,17.92-15.58,25.94-24.39c2.48-2.73-0.85-7.81-4.17-5.4
	c-12.38,9.02-24.76,18.04-37.15,27.06c1.39,1.8,2.78,3.6,4.17,5.4c7.52-6.25,14.3-13.14,20.42-20.76c2.27-2.82-0.61-7.66-4.17-5.4
	c-8.98,5.71-17.96,11.42-26.94,17.13c1.39,1.8,2.78,3.6,4.17,5.4c4.56-5.17,9.12-10.35,13.68-15.52c2.12-2.4,0.13-6.89-3.34-5.74
	c-9.03,2.98-16.9,7.69-23.77,14.26c-2.75,2.62,0.99,7.79,4.17,5.4c5.24-3.93,8.04-8.98,8.18-15.59c0.06-2.75-2.93-4.09-5.17-2.97
	c-5.81,2.89-11.7,5.47-17.78,7.76c1.45,1.1,2.9,2.21,4.35,3.31c0.05-2.89,0.06-5.77,0.04-8.66c-0.01-1.8-1.57-3.52-3.44-3.44
	c-10.7,0.47-17.69,11.57-12.29,21.24c6.01,10.76,19.73,10.08,27.81,2.25c-1.91-0.51-3.83-1.01-5.74-1.52
	c1.64,7.59,11.02,11.36,17.3,6.55c-1.39-1.8-2.78-3.6-4.17-5.4c-3.12,2.63-6.41,4.85-9.95,6.86c1.68,1.29,3.37,2.59,5.05,3.88
	c0.41-1.57,0.81-3.14,1.22-4.71c0.43-1.67-0.54-3.9-2.4-4.23c-1.67-0.3-3.04-0.44-4.71-0.41c-4.1,0.09-5.33,0.16-2.93-4.58
	c2.42-4.76,7.47-9.5,10.76-13.7c1.89-2.4,0.27-7-3.34-5.75c-2.55,0.89-4.62,1.99-6.69,3.76c-1.29,1.1-2.4,2.39-3.64,3.54
	c-0.31,0.29-7.93,6.72-6.99,0.84c0.22-1.37,8.96-2.89,10.29-3.22c4.72-1.14,9.47-1.94,14.3-2.47c-0.58-2.13-1.16-4.27-1.73-6.41
	c-6.09,3.73-11.62,8.06-16.72,13.06c-2.8,2.75,0.77,7.33,4.17,5.4c11.34-6.46,23.08-12,35.31-16.57c-1.11-1.91-2.23-3.83-3.34-5.74
	c-4.82,5.26-10.01,10.06-15.64,14.44c-3.29,2.57,0.9,6.91,4.17,5.4c8.68-4.01,16.93-8.68,24.83-14.05
	c-1.16-1.98-2.31-3.96-3.47-5.94c-5.67,4.23-10.72,8.93-15.2,14.42c-2.12,2.6-0.19,6.57,3.34,5.74c9.5-2.23,18.71-5.21,27.72-8.97
	c-1.29-1.68-2.59-3.37-3.88-5.05c-2.26,3.93-4.52,7.86-6.79,11.78c-1.76,3.05,1.71,6.3,4.7,4.7c2.74-2.03,5.81-2.04,9.23-0.03
	c-0.47,2.68,2.34,5.72,5.05,3.88c10.94-7.42,20.19-16.5,27.84-27.29c-2.09-0.27-4.19-0.55-6.28-0.82c2.08,6.49,1.1,12.93-3.3,18.23
	c1.39-0.18,2.78-0.36,4.17-0.54c-1.97-1.38-3.94-2.76-5.91-4.14c-3.63-2.54-7.07,3.41-3.47,5.94c1.97,1.38,3.94,2.76,5.91,4.14
	c1.14,0.8,3.26,0.56,4.17-0.54c5.95-7.16,7.93-15.99,5.07-24.92c-0.95-2.96-4.58-3.22-6.28-0.82c-6.95,9.8-15.42,18.07-25.37,24.82
	c1.68,1.29,3.37,2.59,5.05,3.88c0.72-4.1-0.6-7.64-4.38-9.78c-4.99-2.82-10.36-0.4-14.95,2.05c1.57,1.57,3.14,3.14,4.7,4.7
	c2.26-3.93,4.52-7.86,6.79-11.78c1.35-2.35-0.97-6.26-3.88-5.05c-9.01,3.76-18.22,6.74-27.72,8.97c1.11,1.91,2.23,3.83,3.34,5.74
	c4.09-5.01,8.61-9.47,13.8-13.34c3.47-2.58,0.25-8.46-3.47-5.94c-7.91,5.37-16.16,10.04-24.83,14.05c1.39,1.8,2.78,3.6,4.17,5.4
	c5.63-4.39,10.82-9.18,15.64-14.44c2.13-2.33,0.08-7.03-3.34-5.74c-12.77,4.78-25.1,10.51-36.95,17.26c1.39,1.8,2.78,3.6,4.17,5.4
	c4.68-4.6,9.73-8.55,15.32-11.99c2.68-1.64,1.84-6.8-1.73-6.41c-8.12,0.9-16.4,2.23-24.13,4.98c-4.4,1.56-9.17,4.38-8.57,9.78
	c0.52,4.7,5.5,7.72,9.95,7.44c7.67-0.49,10.64-8.82,17.31-11.14c-1.11-1.91-2.23-3.83-3.34-5.74c-3.86,4.92-7.73,9.83-11.59,14.75
	c-1.97,2.51-4.54,5.13-4.31,8.58c0.56,8.59,10.55,5.91,15.82,6.84c-0.8-1.41-1.6-2.82-2.4-4.23c-0.41,1.57-0.81,3.14-1.22,4.71
	c-0.75,2.91,2.42,5.37,5.05,3.88c4.07-2.3,7.77-4.93,11.34-7.93c2.95-2.48-1.06-7.78-4.17-5.4c-2.81,2.15-6.41,1.2-7.2-2.44
	c-0.56-2.6-3.98-3.23-5.74-1.52c-4.22,4.09-10.75,5.87-15.28,1.23c-4.53-4.65-2.66-12.67,4.62-12.99c-1.15-1.15-2.29-2.29-3.44-3.44
	c0.02,2.89,0,5.77-0.04,8.66c-0.03,2.08,2.25,4.1,4.35,3.31c6.62-2.49,13.09-5.29,19.42-8.45c-1.72-0.99-3.45-1.98-5.17-2.97
	c-0.09,4.01-1.53,7.21-4.78,9.65c1.39,1.8,2.78,3.6,4.17,5.4c6.02-5.75,12.83-9.88,20.74-12.49c-1.11-1.92-2.23-3.83-3.34-5.74
	c-4.56,5.17-9.12,10.35-13.68,15.52c-2.46,2.79,0.7,7.6,4.17,5.4c8.98-5.71,17.96-11.42,26.94-17.13c-1.39-1.8-2.78-3.6-4.17-5.4
	c-6.12,7.62-12.9,14.51-20.42,20.76c-2.97,2.47,1,7.7,4.17,5.4c12.38-9.02,24.76-18.04,37.15-27.06c-1.39-1.8-2.78-3.6-4.17-5.4
	c-8.02,8.82-16.65,16.93-25.94,24.39c-3.05,2.45,0.91,7.49,4.17,5.4c11.06-7.09,22.12-14.18,33.17-21.27
	c-1.39-1.8-2.78-3.6-4.17-5.4c-5.78,6.1-11.56,12.19-17.34,18.29c-2.57,2.71,0.87,7.77,4.17,5.4c8.77-6.32,17.54-12.65,26.31-18.97
	c-1.39-1.8-2.78-3.6-4.17-5.4c-5.35,6.21-10.71,12.42-16.06,18.63c-2.39,2.77,0.73,7.73,4.17,5.4c8.49-5.75,16.98-11.51,25.47-17.26
	c-1.57-1.57-3.14-3.14-4.7-4.7c-4.13,7.66-8.25,15.33-12.38,22.99c-1.92,3.57,2.45,6.6,5.4,4.17c7.3-6.04,14.12-12.54,20.5-19.55
	c2.99-3.28-1.56-7.82-4.86-4.86c-6.59,5.91-12.25,12.53-17.15,19.9c-2.49,3.75,3.35,6.94,5.94,3.47
	c4.82-6.47,9.63-12.95,14.45-19.42c2.13-2.86-1.93-6.36-4.7-4.7c-8.42,5.03-15.78,11.22-22.12,18.71c-2.88,3.4,1.46,7.7,4.86,4.86
	c7.76-6.46,14.49-13.76,20.44-21.91c2.36-3.24-2.67-6.78-5.4-4.17c-6.03,5.78-11.25,12.12-15.83,19.11
	c-2.14,3.27,2.72,6.98,5.4,4.17c8.82-9.27,15.83-19.8,20.88-31.57c-0.99,0.57-1.98,1.13-2.97,1.7c4.16,0.38,2.52,8.31,1.89,10.43
	c-1.08,3.64-3.07,7.09-5.52,9.98c-4.52,5.33-10.9,9.19-17.78,10.52c-7.83,1.51-15.05-1.66-22.67-2.82c-6.58-1-12.38,0.25-18.17,3.43
	c-5.9,3.23-11.34,8.28-18.17,9.41c-7.06,1.17-14.55-1.6-19.57-6.59c-9.1-9.06-4.02-26.06-17.19-31.96
	C875.23-321.17,871.73-315.25,875.77-313.44L875.77-313.44z"/>
<path class="st0" d="M997.36-151.84c11.87-6.73,24.41-11.62,37.69-14.76c4.3-1.02,2.48-7.65-1.83-6.63
	c-13.84,3.27-26.97,8.44-39.33,15.45C990.04-155.6,993.5-149.66,997.36-151.84L997.36-151.84z"/>
<path class="st0" d="M998.4-130.64c7.98-0.96,15.73,0.1,23.03,3.52c3.98,1.87,7.48-4.06,3.47-5.94c-8.38-3.93-17.28-5.56-26.5-4.46
	C994.06-137,994.01-130.12,998.4-130.64L998.4-130.64z"/>
<path class="st0" d="M998.15-110.75c8.11,5.63,15.17,12.44,21.22,20.24c2.71,3.49,7.54-1.41,4.86-4.86
	c-6.42-8.28-14.01-15.35-22.61-21.31C997.98-119.22,994.54-113.26,998.15-110.75L998.15-110.75z"/>
<path class="st0" d="M883.51-161.06c-13.28-5.74-27.25-7.08-41.35-3.71c-4.3,1.03-2.48,7.66,1.83,6.63
	c12.17-2.91,24.53-1.96,36.05,3.01C884.06-153.39,887.57-159.31,883.51-161.06L883.51-161.06z"/>
<path class="st0" d="M877.39-137.56c-11.17-1.08-21.92,1.02-31.99,5.9c-3.98,1.93-0.5,7.86,3.47,5.94
	c9.01-4.37,18.57-5.93,28.52-4.96C881.79-130.26,881.76-137.14,877.39-137.56L877.39-137.56z"/>
<path class="st0" d="M875.16-117.44c-12.82,7.01-23.57,16.63-32.14,28.44c-2.6,3.59,3.36,7.02,5.94,3.47
	c7.87-10.85,17.93-19.55,29.68-25.98C882.51-113.63,879.05-119.57,875.16-117.44L875.16-117.44z"/>
<path class="st0" d="M1100.02-190.18c-11.51-4.65-20.62,9.7-21.64,19.45c-0.63,6.06,1.23,10.54,3.57,15.93
	c2.52,5.82,1.06,8.71-2.78,13.23c-2.74,3.23-5.76,6.22-8.46,9.5c-6.99,8.5-12.58,21.51-4.94,31.49
	c9.85,12.89,33.76,5.84,39.43,23.63c1.34,4.2,7.98,2.4,6.63-1.83c-3.21-10.06-11.89-15.3-21.53-18.28
	c-6.38-1.97-16.7-2.55-20.1-9.28c-3.48-6.88,0.72-14.94,4.95-20.32c5.55-7.04,17.46-15.47,15.29-25.84
	c-1.09-5.22-5.07-8.95-5.34-14.54c-0.27-5.85,4.42-20.04,13.09-16.53C1102.3-181.89,1104.08-188.54,1100.02-190.18L1100.02-190.18z"
	/>
<path class="st0" d="M1110.34-78.24c1.07-3.47,2.13-6.95,3.2-10.42c0.82-2.66-2.59-5.73-5.05-3.88c-1.79,1.35-3.05,2.61-4.2,4.54
	c2.14,0.58,4.27,1.16,6.41,1.73c0.04-5.45,0.99-10.55,3.13-15.58c1.37-3.22-2.67-7.48-5.4-4.17c-3.6,4.37-7.21,8.74-10.81,13.11
	c1.8,1.39,3.6,2.78,5.4,4.17c2.95-6.92,5.45-13.95,7.46-21.2c0.92-3.34-3.3-5.72-5.74-3.34c-3.57,3.47-7.13,6.94-10.7,10.41
	c1.8,1.39,3.6,2.78,5.4,4.17c3.79-7.09,6.92-14.41,9.45-22.04c1.15-3.46-3.34-5.48-5.74-3.34c-6.41,5.71-12.81,11.42-19.22,17.12
	c1.8,1.39,3.6,2.78,5.4,4.17c4.83-8.01,9.67-16.02,14.5-24.03c2.03-3.36-2.63-6.91-5.4-4.17c-7,6.95-14,13.9-21,20.85
	c1.8,1.39,3.6,2.78,5.4,4.17c6.26-9.32,12.51-18.65,18.77-27.97c2.27-3.39-2.61-6.65-5.4-4.17c-9.54,8.48-19.08,16.96-28.62,25.44
	c1.8,1.39,3.6,2.78,5.4,4.17c6.43-9.67,12.85-19.35,19.28-29.02c1.85-2.78-1.9-6.7-4.7-4.7c-8,5.7-14.6,12.52-20,20.74
	c-2.1,3.21,2.98,7.27,5.4,4.17c3.16-4.05,6.32-8.1,9.49-12.15c-1.91-1.11-3.83-2.23-5.74-3.34c-2.88,9.6-13.28,16.71-10.77,27.81
	c2.03,8.99,13.3,11.74,21.34,10.38c7.58-1.29,12.02-7.44,14.65-14.21c4.51-11.59,6.08-24.75,8.75-36.86
	c0.65-2.94-2.35-5.35-5.05-3.88c-3.7,2.01-7.43,3.93-11.22,5.78c1.72,0.99,3.45,1.98,5.17,2.97c0.16-4.22,1.34-7.64,4.04-10.96
	c-1.8-1.39-3.6-2.78-5.4-4.17c-2.39,3.89-5.12,7.32-8.37,10.52c1.8,1.39,3.6,2.78,5.4,4.17c3.84-9.02,6.77-18.2,8.69-27.82
	c0.51-2.57-2.44-5.88-5.05-3.88c-2.83,2.17-5.01,4.43-6.9,7.48c1.98,1.16,3.96,2.31,5.94,3.47c2.89-5.51,5.2-11.16,6.98-17.12
	c0.88-2.96-2.49-5.28-5.05-3.88c-4.89,2.67-8.92,6-12.41,10.35c1.92,1.11,3.83,2.23,5.74,3.34c1.9-5.29,3.8-10.58,5.7-15.87
	c1.37-3.8-4.26-5.79-6.28-2.65c-4.05,6.29-7.22,12.9-9.67,19.96c-0.47,1.35,0.29,3.24,1.58,3.88c2.4,1.2,3.32,1.44,6,1.63
	c4.41,0.31,4.4-6.56,0-6.87c-0.84-0.23-1.69-0.46-2.53-0.69c0.53,1.29,1.05,2.59,1.58,3.88c2.26-6.51,5.24-12.53,8.97-18.32
	c-2.09-0.88-4.19-1.77-6.28-2.65c-1.9,5.29-3.8,10.58-5.7,15.87c-1.13,3.13,3.6,6.01,5.74,3.34c3.12-3.89,6.63-6.87,11.02-9.27
	c-1.68-1.29-3.37-2.59-5.05-3.88c-1.61,5.39-3.67,10.49-6.29,15.48c-2.05,3.91,3.6,7.24,5.94,3.47c1.08-2.03,2.55-3.7,4.43-5.01
	c-1.68-1.29-3.37-2.59-5.05-3.88c-1.79,9-4.4,17.72-8,26.18c-1.44,3.38,2.4,7.12,5.4,4.17c3.69-3.63,6.74-7.5,9.45-11.91
	c1.99-3.25-2.89-7.25-5.4-4.17c-3.86,4.74-5.82,9.68-6.06,15.82c-0.11,2.78,2.95,4.05,5.17,2.97c3.78-1.85,7.52-3.77,11.22-5.78
	c-1.68-1.29-3.37-2.59-5.05-3.88c-1.79,8.11-3.58,16.22-5.37,24.33c-1.35,6.11-2.45,13.74-6.86,18.54
	c-6.3,6.87-22.22,3.01-18.5-7.93c2.27-6.68,7.95-11.49,10.02-18.41c0.93-3.09-3.57-6.13-5.74-3.34c-3.16,4.05-6.32,8.1-9.49,12.15
	c1.8,1.39,3.6,2.78,5.4,4.17c4.72-7.2,10.52-13.27,17.53-18.27c-1.57-1.57-3.14-3.14-4.7-4.7c-6.43,9.67-12.85,19.35-19.28,29.02
	c-2.25,3.39,2.6,6.65,5.4,4.17c9.54-8.48,19.08-16.96,28.62-25.44c-1.8-1.39-3.6-2.78-5.4-4.17c-6.26,9.32-12.51,18.65-18.77,27.97
	c-2.21,3.29,2.68,6.87,5.4,4.17c7-6.95,14-13.9,21-20.85c-1.8-1.39-3.6-2.78-5.4-4.17c-4.83,8.01-9.67,16.02-14.5,24.03
	c-2.08,3.45,2.56,6.7,5.4,4.17c6.41-5.71,12.81-11.42,19.22-17.12c-1.91-1.11-3.83-2.23-5.74-3.34c-2.34,7.07-5.25,13.83-8.76,20.4
	c-1.82,3.41,2.54,6.94,5.4,4.17c3.57-3.47,7.13-6.94,10.7-10.41c-1.91-1.11-3.83-2.23-5.74-3.34c-1.84,6.67-4.05,13.19-6.76,19.56
	c-1.37,3.22,2.67,7.48,5.4,4.17c3.6-4.37,7.21-8.74,10.81-13.11c-1.8-1.39-3.6-2.78-5.4-4.17c-2.63,6.18-4.02,12.32-4.07,19.05
	c-0.02,3.43,4.68,4.65,6.41,1.73c0.58-0.69,1.15-1.39,1.73-2.08c-1.68-1.29-3.37-2.59-5.05-3.88c-1.07,3.47-2.13,6.95-3.2,10.42
	C1102.41-75.83,1109.04-74.02,1110.34-78.24L1110.34-78.24z"/>
<path class="st0" d="M766.51-170.63c4.02,5.53,9.5,8.33,15.24,11.77c3.96,2.37,7.83,5.08,9.21,9.76c1.44,4.91-0.1,10.23-1.4,14.97
	c-4.2,15.28-6.3,29.58,3.78,43.24c8.24,11.18,38.75,21.8,27.66,39.49c-5.78,9.23-17.59,10.42-27.46,9.73
	c-6.92-0.49-13.98-2.91-19.66,2.24c-3.28,2.98,1.59,7.83,4.86,4.86c3.47-3.16,13.08-0.24,17.2-0.09c4.27,0.16,8.59-0.05,12.77-0.98
	c7.3-1.62,14.22-5.83,18.22-12.29c10.02-16.2-4.96-28.84-17.24-37.27c-8.99-6.17-15.54-14.05-16.97-25.19
	c-1.32-10.36,3.65-19.46,5.18-29.46c1.12-7.32-0.16-14.43-5.59-19.78c-5.88-5.79-14.93-7.68-19.87-14.47
	C769.87-177.64,763.9-174.21,766.51-170.63L766.51-170.63z"/>
<path class="st0" d="M778.67-160.01c-4.44,4.73-6.75,9.95-7.55,16.36c-0.41,3.31,3.86,4.04,5.87,2.43
	c3.73-3.01,6.75-6.34,9.52-10.23c-1.98-1.16-3.96-2.31-5.94-3.47c-4.55,6.43-7.59,13.4-9.23,21.11c-0.75,3.51,3.1,5.51,5.74,3.34
	c4.4-3.61,8.79-7.21,13.19-10.82c-1.8-1.39-3.6-2.78-5.4-4.17c-5.04,9.98-9.43,20.23-13.18,30.76c-1.25,3.51,3.37,5.37,5.74,3.34
	c6.36-5.41,11.44-11.77,15.32-19.17c-2.09-0.88-4.19-1.77-6.28-2.65c-3.52,13.4-8.11,26.41-13.89,39c-1.82,3.97,3.98,7.48,5.94,3.47
	c3.08-6.29,6.78-11.96,11.42-17.23c-1.96-0.81-3.91-1.62-5.87-2.43c-1.42,11.01-4.5,21.61-9.14,31.69c-1.52,3.31,2.56,7.24,5.4,4.17
	c3.94-4.27,7.88-8.55,11.83-12.82c-1.92-1.11-3.83-2.23-5.74-3.34c-3.4,10.76-8.3,20.69-14.69,29.97c-2.19,3.18,2.89,7.17,5.4,4.17
	c5.85-6.99,11.69-13.98,17.54-20.96c-1.8-1.39-3.6-2.78-5.4-4.17c-4.48,8.88-8.96,17.77-13.44,26.65c-1.69,3.35,2.58,7.12,5.4,4.17
	c7.72-8.07,15.45-16.15,23.17-24.22c-1.8-1.39-3.6-2.78-5.4-4.17c-5.39,10.49-11.3,20.66-17.75,30.54c-2.1,3.21,2.94,7.25,5.4,4.17
	c8.13-10.2,16.8-19.9,26.01-29.14c-1.8-1.39-3.6-2.78-5.4-4.17c-6.43,10.21-12.87,20.42-19.3,30.63c-2.08,3.31,2.69,6.97,5.4,4.17
	c7.12-7.36,14.23-14.71,21.35-22.07c-1.91-1.11-3.83-2.23-5.75-3.34c-2.42,6.65-5.65,12.7-9.71,18.49c-2.22,3.16,2.97,7.23,5.4,4.17
	c5.44-6.87,11.5-13.02,18.28-18.57c-1.96-0.81-3.91-1.62-5.87-2.43c-0.6,5.86-2.73,11.04-6.46,15.63c-2.74,3.37,1.86,8.21,4.86,4.86
	c3.14-3.49,6.28-6.99,9.42-10.48c-1.91-1.11-3.83-2.23-5.74-3.34c-0.88,5.02-2.25,9.72-4.39,14.36c2.09,0.27,4.19,0.55,6.28,0.82
	c-0.86-2.5-1.72-4.99-2.59-7.49c-1.44-4.16-8.08-2.37-6.63,1.83c0.86,2.5,1.72,4.99,2.59,7.49c0.87,2.52,4.95,3.72,6.28,0.82
	c2.38-5.17,4.1-10.38,5.08-16c0.54-3.09-3.24-6.13-5.75-3.34c-3.14,3.49-6.28,6.99-9.42,10.48c1.62,1.62,3.24,3.24,4.86,4.86
	c4.97-6.11,7.67-12.64,8.47-20.49c0.34-3.29-3.83-4.1-5.87-2.43c-6.79,5.55-12.84,11.7-18.28,18.57c1.8,1.39,3.6,2.78,5.4,4.17
	c4.4-6.28,7.79-12.94,10.41-20.13c1.2-3.3-3.46-5.71-5.74-3.34c-7.12,7.36-14.23,14.71-21.35,22.07c1.8,1.39,3.6,2.78,5.4,4.17
	c6.43-10.21,12.87-20.42,19.3-30.63c2.1-3.33-2.66-6.91-5.4-4.17c-9.21,9.24-17.87,18.94-26.01,29.14c1.8,1.39,3.6,2.78,5.4,4.17
	c6.45-9.88,12.36-20.05,17.75-30.54c1.72-3.35-2.59-7.1-5.4-4.17c-7.72,8.07-15.45,16.15-23.17,24.22c1.8,1.39,3.6,2.78,5.4,4.17
	c4.48-8.88,8.96-17.77,13.44-26.65c1.65-3.27-2.75-7.33-5.4-4.17c-5.85,6.99-11.69,13.98-17.54,20.96c1.8,1.39,3.6,2.78,5.4,4.17
	c6.73-9.78,11.81-20.3,15.39-31.62c1.02-3.24-3.43-5.85-5.75-3.34c-3.94,4.27-7.88,8.55-11.83,12.82c1.8,1.39,3.6,2.78,5.4,4.17
	c5.18-11.26,8.49-22.87,10.08-35.16c0.38-2.96-4.02-4.54-5.87-2.43c-5,5.69-9.16,11.81-12.49,18.62c1.98,1.16,3.96,2.31,5.94,3.47
	c6.02-13.14,10.91-26.67,14.58-40.65c0.97-3.68-4.43-6.18-6.28-2.65c-3.63,6.9-8.31,12.72-14.25,17.77
	c1.91,1.11,3.83,2.23,5.75,3.34c3.55-9.98,7.71-19.67,12.48-29.12c1.82-3.59-2.4-6.63-5.4-4.17c-4.4,3.61-8.79,7.21-13.19,10.82
	c1.91,1.11,3.83,2.23,5.74,3.34c1.52-7.14,4.33-13.51,8.54-19.46c2.56-3.62-3.39-7.05-5.94-3.47c-2.42,3.41-5.2,6.23-8.44,8.84
	c1.96,0.81,3.91,1.62,5.87,2.43c0.56-4.48,2.47-8.24,5.53-11.5C786.56-158.38,781.71-163.25,778.67-160.01L778.67-160.01z"/>
<path class="st0" d="M805.15-88.41c-5.13,2.83-9.46,6.42-13.14,10.99c1.91,1.11,3.83,2.23,5.74,3.34
	c1.12-5.03,4.74-14.13-2.77-15.89c-6.14-1.44-9.15,4.28-10.07,9.35c-0.64,3.55,3.02,5.46,5.74,3.34c1.9-1.55,4.03-2.38,6.4-2.5
	c-1.45-1.1-2.9-2.21-4.35-3.31c-0.29,6.01-0.57,12.01-0.86,18.02c-0.19,4.06-1.62,10.17-0.03,14.15c2.94,7.32,13.9,2.47,19.17,1.37
	c-1.41-1.41-2.82-2.82-4.23-4.23c-1.74,5.97-7.47,8.23-13.27,8.24c-2.75,0-11.97-0.58-13.77-3.43c-0.66-1.05-0.14-6.75-0.17-8.02
	c-0.05-2.23-0.1-4.46-0.14-6.69c-0.11-4.9-0.21-9.81-0.32-14.71c-0.42-19.61-0.84-39.23-1.26-58.84c-0.09-4.42-6.79-4.43-6.87,0
	c-0.08,4.15-0.16,8.3-0.24,12.45c-0.07,3.76,6.21,4.83,6.75,0.91c1.08-7.79,2.4-15.67,4.56-23.24c0.75-2.63,2.69-8.88,4.12-3.07
	c1.14,4.64,0.26,9.15-1.55,13.45c2.21,0,4.42,0,6.63,0c-1.76-9.14-5.59-17.09-11.35-24.38c-1.98-2.51-5.75-0.25-5.87,2.43
	c-0.19,4.15,0.71,7.55,2.86,11.1c2.29,3.78,8.24,0.33,5.94-3.47c-1.57-2.6-2.05-4.66-1.92-7.63c-1.96,0.81-3.91,1.62-5.87,2.43
	c5,6.32,8.07,13.46,9.59,21.34c0.72,3.74,5.47,2.74,6.63,0c2.61-6.21,4.84-26.79-7.08-25.43c-4.45,0.51-6.76,5.11-8.05,8.86
	c-2.81,8.18-4.06,17.25-5.24,25.78c2.25,0.3,4.5,0.61,6.75,0.91c0.08-4.15,0.16-8.3,0.24-12.45c-2.29,0-4.58,0-6.87,0
	c0.61,28.52,0.93,57.07,1.84,85.59c0.12,3.9,0.01,7.14,3.64,9.4c4.09,2.55,11.03,3.32,15.8,3.56c9.35,0.48,18.41-3.88,21.16-13.27
	c0.77-2.65-1.74-4.75-4.23-4.23c-2.74,0.58-5.87,1.73-8.67,1.82c-1.9,0.06-1.35,0.6-2.26-0.41c-0.7-0.77,0.26-5.45,0.31-6.43
	c0.35-7.29,0.7-14.59,1.04-21.88c0.12-2.46-2.28-3.62-4.35-3.31c-3.8,0.56-6.43,1.93-9.43,4.27c1.91,1.11,3.83,2.23,5.74,3.34
	c0.95-5.27-0.14,1.64-0.42,2.89c-0.68,3.04,3.43,6.22,5.74,3.34c3.35-4.17,7.05-7.33,11.75-9.92
	C812.5-84.61,809.03-90.54,805.15-88.41L805.15-88.41z"/>
<g>
	<path class="st0" d="M290.94-123.66c21.37,31.94,47.52,63.68,87.75,69.85c20.62,3.16,41.47,0.47,61.88-2.97
		c20.31-3.43,39.2-6.9,54.24-22.07c14.62-14.75,25.29-33.54,35.15-51.63c10.76-19.75,21.33-39.61,32.17-59.31
		c20.38-37.03,40.61-75.78,46.71-118.13c5.86-40.67-1.04-84.16-28.68-115.9c-1.23-1.41-4.01-1.46-5.23,0
		c-10.38,12.39-20.75,24.79-31.13,37.18c-8.56,10.23-18.01,26.43-31.94,29.44c-6.78,1.46-14.24,0.82-21.12,0.92
		c-8.34,0.12-16.67,0.24-25.01,0.35c-15.69,0.22-31.38,0.45-47.07,0.67c-32.36,0.46-64.73,0.92-97.09,1.38
		c-13.97,0.2-29.81,1.84-42.72-4.62c-9.71-4.86-16.14-14.08-22.25-22.7c-5.27-7.44-10.5-15.19-17.71-20.92
		c-4.1-3.26-12.74-9.3-18.29-6.54c-3.28,1.63-4.69,6.28-5.76,9.45c-2.18,6.48-3.42,13.32-4.61,20.04
		c-5.71,32.12-9.7,64.1-2.52,96.33C220.86-223.78,257.96-173.11,290.94-123.66c2.63,3.94,9.03,0.24,6.38-3.73
		c-29.03-43.52-60.59-87.2-76.98-137.43c-6.51-19.96-10.97-41.57-9.32-62.66c1.07-13.67,2.77-27.34,4.87-40.89
		c1.11-7.19,2.33-14.39,4.03-21.47c0.6-2.51,1.73-11.32,4.52-12.58c-1.86,0.84,3.28,2,3.62,2.15c1.88,0.84,3.65,1.96,5.3,3.18
		c4.27,3.15,7.77,7.27,10.98,11.46c5.57,7.28,10.35,15.15,16.47,22c16.86,18.87,40.35,17.42,63.7,17.09
		c31.38-0.45,62.76-0.89,94.15-1.34c17.16-0.24,34.32-0.49,51.49-0.73c8.34-0.12,16.67-0.24,25.01-0.35
		c6.91-0.1,14.25,0.31,20.96-1.68c13.25-3.93,21.7-17.38,30.09-27.4c11.32-13.52,22.64-27.04,33.96-40.56c-1.74,0-3.48,0-5.23,0
		c23.99,27.55,31.04,65.01,27.72,100.59c-3.64,38.99-20.47,75.26-38.69,109.38c-9.55,17.88-19.64,35.47-29.16,53.36
		c-9.12,17.13-17.96,34.47-28.86,50.56c-11.81,17.43-24.79,31.79-45.95,36.81c-19.7,4.67-40.7,8.03-60.97,8.14
		c-22.55,0.13-43.57-5.97-61.31-20.13c-16.35-13.06-28.84-30.23-40.38-47.49C294.69-131.32,288.28-127.63,290.94-123.66z"/>
	<path class="st0" d="M510.24-300.51c-18.6-7.72-31.04,17.5-31.01,32.4c0.04,16.73,13.48,32.48,31.22,30.02
		c18.3-2.54,26.86-26.44,23.91-42.55c-3.03-16.53-20.43-29.32-36.95-22.54c-4.34,1.78-2.44,8.94,1.97,7.13
		c11.92-4.89,24.35,3.15,27.38,15.14c2.95,11.68-2.27,31.16-15.05,35.03c-12.96,3.92-24.04-7.87-25.01-19.92
		c-0.87-10.83,6.96-33.64,21.57-27.57C512.67-291.56,514.58-298.71,510.24-300.51L510.24-300.51z"/>
	<path class="st0" d="M498.6-276.78c-0.66,6.04-0.21,11.94,1.22,17.84c0.71,2.92,4.15,3.3,6.18,1.63
		c8.78-7.24,9.25-20.69,1.82-29.01c-2.01-2.25-5.26-0.78-6.18,1.63c-2.71,7.13-9.15,31.31,6.61,28.06c4.56-0.94,8.32-4.5,9.11-9.12
		c1.14-6.64-3.32-12.5-7.36-17.21c-1.88-2.19-5.44-0.86-6.18,1.63c-2.32,7.81-1.31,15.85,2.82,22.86c1.5,2.55,4.81,2.21,6.38,0
		c4.34-6.1,8.42-15.69,0.97-21.37c-6.16-4.69-15.15,0.85-13.29,8.45c1.13,4.62,8.27,2.66,7.13-1.97c0.52-0.25,1.03-0.51,1.55-0.76
		c0.59,0.44,0.96,1.01,1.11,1.69c0.44,1.15,0.32,2.31,0.02,3.5c-0.64,2.47-2.42,4.68-3.87,6.72c2.13,0,4.26,0,6.38,0
		c-3.17-5.38-3.85-11.19-2.07-17.17c-2.06,0.54-4.12,1.09-6.18,1.63c2,2.33,4.51,5.15,5.14,8.27c0.38,1.86-0.35,6.4-3.54,5.66
		c-3.96-0.92,1.4-16.28,2.4-18.92c-2.06,0.54-4.12,1.09-6.18,1.63c4.94,5.54,3.73,13.99-1.82,18.56c2.06,0.54,4.12,1.09,6.18,1.63
		c-1.28-5.28-1.54-10.49-0.96-15.88C506.5-281.5,499.1-281.47,498.6-276.78L498.6-276.78z"/>
	<path class="st0" d="M301.96-300.51c-18.6-7.72-31.04,17.5-31.01,32.4c0.04,16.73,13.48,32.48,31.22,30.02
		c18.3-2.54,26.86-26.44,23.91-42.55c-3.03-16.53-20.43-29.32-36.95-22.54c-4.34,1.78-2.44,8.94,1.97,7.13
		c11.92-4.89,24.35,3.15,27.38,15.14c2.95,11.68-2.27,31.16-15.05,35.03c-12.96,3.92-24.04-7.87-25.01-19.92
		c-0.87-10.83,6.96-33.64,21.57-27.57C304.38-291.56,306.3-298.71,301.96-300.51L301.96-300.51z"/>
	<path class="st0" d="M290.31-276.78c-0.66,6.04-0.21,11.94,1.22,17.84c0.71,2.92,4.15,3.3,6.18,1.63
		c8.78-7.24,9.25-20.69,1.82-29.01c-2.01-2.25-5.26-0.78-6.18,1.63c-2.71,7.13-9.15,31.31,6.61,28.06c4.56-0.94,8.32-4.5,9.11-9.12
		c1.14-6.64-3.32-12.5-7.36-17.21c-1.88-2.19-5.44-0.86-6.18,1.63c-2.32,7.81-1.31,15.85,2.82,22.86c1.5,2.55,4.81,2.21,6.38,0
		c4.34-6.1,8.42-15.69,0.97-21.37c-6.16-4.69-15.15,0.85-13.29,8.45c1.13,4.62,8.27,2.66,7.13-1.97c0.52-0.25,1.03-0.51,1.55-0.76
		c0.59,0.44,0.96,1.01,1.11,1.69c0.44,1.15,0.32,2.31,0.02,3.5c-0.64,2.47-2.42,4.68-3.87,6.72c2.13,0,4.26,0,6.38,0
		c-3.17-5.38-3.85-11.19-2.07-17.17c-2.06,0.54-4.12,1.09-6.18,1.63c2,2.33,4.51,5.15,5.14,8.27c0.38,1.86-0.35,6.4-3.54,5.66
		c-3.96-0.92,1.4-16.28,2.4-18.92c-2.06,0.54-4.12,1.09-6.18,1.63c4.94,5.54,3.73,13.99-1.82,18.56c2.06,0.54,4.12,1.09,6.18,1.63
		c-1.28-5.28-1.54-10.49-0.96-15.88C298.22-281.5,290.82-281.47,290.31-276.78L290.31-276.78z"/>
	<path class="st0" d="M405.28-219.98c-4.66-6.27-11.5-8.06-18.67-5.01c-1.24,0.53-1.71,1.99-1.83,3.19
		c-1.84,17.78,21.31,28.21,32.31,13.14c12.17-16.67-13.16-32.73-26.77-20.78c-12.43,10.93-1.67,33.6,14.8,26.18
		c15.22-6.85,3.01-31.82-10.57-22.64c-5.32,3.59-5.34,11.36-0.76,15.69c5.66,5.34,14.69,2.12,17.94-4.3
		c2.92-5.76-0.78-13.46-7.94-11.83c-6.92,1.58-7.67,10.83-2.84,15.11c12.27,10.86,26.48-8.64,19.34-20.26
		c-9.57-15.57-35.04-0.91-34.56,14.43c0.64,20.72,31.89,16.5,40.82,4.69c4.81-6.36,5.21-16.95-1.93-21.91
		c-6.63-4.61-16.07-1.14-18.17,6.51c-1.26,4.59,5.87,6.55,7.13,1.97c0.5-1.81,2.87-3.28,4.67-3.15c3.28,0.23,4.56,4.43,4.38,6.98
		c-0.27,3.88-2.99,6.8-6.15,8.8c-5,3.18-12.22,4.71-17.92,2.46c-10.49-4.15-3.15-15.59,4.1-18.57c7.58-3.12,16.5,2.74,10.62,10.77
		c-2.53,3.46-10.65,4.79-13.51,1.91c-2.65-1.11-2.7-1.97-0.17-2.57c1.17-1.33,2.21-1.31,3.1,0.06c1.77,1,2.81,3.77,2.29,5.77
		c-1.08,4.12-6.78,4.83-9.9,2.84c-4.69-2.99-3.45-9.76-0.02-12.96c3.45-3.22,8.34-3.42,12.52-1.45c6.46,3.04,6.32,11.05,0.48,14.64
		c-8.46,5.19-16.79-2.86-15.89-11.52c-0.61,1.06-1.22,2.13-1.83,3.19c3.05-1.3,6.59-0.28,8.55,2.36
		C401.71-212.48,408.12-216.16,405.28-219.98L405.28-219.98z"/>
	<path class="st0" d="M362.37-181.87c-3.04,18.48,17.23,30.41,33.13,22.61c20.18-9.9,20.86-34.39,17.37-53.6
		c-0.85-4.67-7.98-2.69-7.13,1.97c2.44,13.44,3.37,29.1-6.66,39.84c-4.31,4.61-10.66,8.07-17.15,6.93
		c-7.27-1.28-13.68-8.18-12.43-15.78C370.26-184.56,363.14-186.56,362.37-181.87L362.37-181.87z"/>
	<path class="st0" d="M406.56-201.79c2.11,14.96,9.27,41.24,27.11,44.43c15.52,2.77,23.23-14.57,26.66-26.66
		c1.3-4.58-5.83-6.54-7.13-1.97c-2.69,9.49-10.09,28.1-22.94,19.2c-10.77-7.46-14.86-24.8-16.57-36.96
		C413.03-208.44,405.91-206.45,406.56-201.79L406.56-201.79z"/>
	<path class="st0" d="M286.63-347.41c-4.24-27.74,15.63-54.53,30.4-76.25c14.32-21.06,32.07-38.31,56.74-46.29
		c45.38-14.67,94.85,2.84,121.14,42.48c14.55,21.95,21.48,48.13,19.77,74.39c-0.31,4.75,7.08,4.73,7.39,0
		c3.24-49.77-24.54-101.28-71.45-120.83c-22.79-9.5-48.71-11.14-72.59-4.97c-25.64,6.62-45.83,22.23-61.51,43.23
		c-10.22,13.68-19.79,28.55-27.54,43.78c-7.43,14.61-11.98,29.98-9.47,46.43C280.22-340.76,287.34-342.75,286.63-347.41
		L286.63-347.41z"/>
	<path class="st0" d="M279.57-348.91c33.18,35.47,74.46,75.43,127.22,71.18c23.36-1.88,44.65-12.66,63.41-26.15
		c9.52-6.85,18.58-14.35,27.34-22.14c8.09-7.19,15.51-15.01,18.28-25.76c1.19-4.61-5.94-6.58-7.13-1.97
		c-2.75,10.66-11.05,17.86-19.05,24.84c-8.4,7.33-17.02,14.42-26.18,20.77c-18.25,12.66-39.07,22.76-61.67,23.27
		c-48.81,1.1-86.1-36.25-117-69.27C281.54-357.61,276.33-352.38,279.57-348.91L279.57-348.91z"/>
	<path class="st0" d="M360.37-353.27c-3.93-46.06,15.8-91.79,51.93-120.59c3.72-2.96-1.54-8.16-5.23-5.23
		c-37.47,29.87-58.17,78.08-54.1,125.82C353.37-348.56,360.77-348.52,360.37-353.27L360.37-353.27z"/>
	<path class="st0" d="M407.71-472.82c32.71,28.93,59.19,76.22,53.05,121.18c-0.64,4.65,6.49,6.67,7.13,1.97
		c6.51-47.7-20.01-97.46-54.95-128.37C409.39-481.19,404.14-475.98,407.71-472.82L407.71-472.82z"/>
	<path class="st0" d="M402.74-479.8c-0.67,1.46-2.17,1.68-3.5,0.86c-2.35-1.44-1.15-4.3,0.27-5.94c3.46-3.98,9.41-3.26,14.01-2.47
		c1.07,0.18,4.28,0.26,4.99,1.25c0.4,0.08,0.74,0.26,1.02,0.52c-0.81,0.71-1.68,1.34-2.61,1.89c-3.66,2.28-12.62,4.55-12.55-2.73
		c-0.61,1.06-1.22,2.13-1.83,3.19c5.76-2.65,12.02-2.67,17.79-0.05c-0.25-1.94-0.5-3.87-0.75-5.81c-2.83,2.21-5.82,2.9-9.35,2.76
		c-4.76-0.2-4.75,7.19,0,7.39c5.62,0.24,10.18-1.49,14.57-4.92c1.77-1.39,1.26-4.89-0.75-5.81c-8.39-3.81-16.88-3.8-25.26,0.05
		c-1.16,0.53-1.82,1.99-1.83,3.19c-0.13,13.62,15.71,14.43,24.5,8.59c3.59-2.38,7.03-5.82,5.13-10.43
		c-2.03-4.91-8.46-5.85-13.04-6.54c-9.57-1.44-24.83,2.21-22.93,15.11c1.27,8.61,14.53,12.27,18.49,3.62
		C411.09-480.36,404.72-484.12,402.74-479.8L402.74-479.8z"/>
	<path class="st0" d="M408.36-468.98c-14.87,13.96-27.64,29.8-38.16,47.27c-2.3,3.82,2.71,7,5.81,4.48
		c13.42-10.93,26.24-22.52,38.46-34.77c-1.74-1.74-3.48-3.48-5.23-5.23c-15.18,19.38-30.36,38.76-45.54,58.14
		c-2.63,3.36,0.53,7.5,4.48,5.81c23.65-10.18,29.89-38.97,51.69-51.34c-1.69-1.69-3.37-3.37-5.06-5.06
		c-18.22,25.61-36.43,51.21-54.65,76.82c-2.41,3.39,3.15,7.74,5.81,4.48c20.94-25.79,41.88-51.58,62.83-77.36
		c-1.94-1.49-3.87-2.99-5.81-4.48c-16.48,23-32.96,46-49.44,69.01c2.13,1.24,4.26,2.49,6.38,3.73
		c13.48-19.06,29.02-36.42,46.37-52.03c-1.94-1.49-3.87-2.99-5.81-4.48c-11.05,18.32-23.06,36-36.01,53.03
		c-2.55,3.35,2.99,7.52,5.81,4.48c14.86-16.04,29.72-32.08,44.58-48.12c-1.94-1.49-3.87-2.99-5.81-4.48
		c-10.66,22.41-24.24,43.11-40.65,61.74c-3.12,3.54,1.94,8.72,5.23,5.23c16.14-17.12,32.27-34.23,48.41-51.35
		c-1.94-1.49-3.87-2.99-5.81-4.48c-12.09,18.1-24.19,36.21-36.28,54.31c-2.7,4.05,3.57,7.4,6.38,3.73
		c11.49-15,24.61-28.56,39.09-40.69c-2.06-1.2-4.12-2.4-6.18-3.6c-5.22,13.83-12.62,26.52-22.1,37.87
		c-3.04,3.64,1.61,8.39,5.23,5.23c8.43-7.38,16.86-14.75,25.29-22.13c-1.94-1.49-3.87-2.99-5.81-4.48
		c-3.45,7.07-6.9,14.14-10.35,21.21c-1.47,3,1.77,7.38,5.06,5.06c4.78-3.38,9.55-6.76,14.33-10.14c-1.81-1.39-3.62-2.78-5.43-4.17
		c-1.62,5.85-3.92,11.17-7.06,16.36c-1.63,2.7,1.08,6.4,4.17,5.43c3.49-1.09,6.47-2.53,9.42-4.7c-1.81-0.74-3.62-1.47-5.43-2.21
		c0.7,2.05,1.4,4.1,2.09,6.15c0.93,2.72,5.32,3.98,6.76,0.88c3.79-8.17,8.81-18.32,8.38-27.54c-0.26-5.61-3.33-11.99-9.83-11.17
		c1.06,1.85,2.13,3.71,3.19,5.56c5.62-10.51,0.48-22.46-7.34-30.46c-6.06-6.2-17-8.16-20.39,1.74c2.42,0.33,4.84,0.66,7.26,0.98
		c0.94-15.01-4.16-29.12-14.17-40.28c-2.75-3.07-8.39,1.12-5.81,4.48c13.91,18.05,22.88,39.17,25.72,61.81
		c2.42-0.33,4.84-0.66,7.26-0.98c-0.42-2.65-0.83-5.3-1.25-7.94c-0.27-1.71-2.07-2.55-3.56-2.71c-4.26-0.48-7.7,1.43-10.13,4.96
		c-4.36,6.31-2.27,12.64-10.61,16.28c-6.77,2.96-15.18,4.02-22.34,5.92c-7.45,1.97-14.89,3.95-22.34,5.92
		c1.2,2.06,2.4,4.12,3.6,6.18c8.49-7.4,16.98-14.79,25.47-22.19c-1.74-1.74-3.48-3.48-5.23-5.23
		c-13.35,13.27-29.91,21.81-48.41,25.19c-2.99,0.55-3.22,4.25-1.63,6.18c7.6,9.23,20.73,4.6,30.39,1.98
		c16.23-4.4,32.45-8.8,48.68-13.2c-0.95-2.25-1.9-4.5-2.85-6.76c-10.74,6.63-22.15,11.26-34.47,14.02c0.66,2.38,1.31,4.75,1.97,7.13
		c11.54-3.24,23.07-6.49,34.61-9.73c-1.52-1.52-3.03-3.03-4.55-4.55c-4.13,10.39-24.31,5.78-32.18,3.94
		c-6.14-1.43-12.7-3.85-16.43-9.27c-3.53-5.13-4.36-12.17,0.28-16.83c-2.06-1.2-4.12-2.4-6.18-3.6c-1.49,5.45-2.98,10.9-4.46,16.35
		c-0.68,2.48,1.2,4.47,3.56,4.68c7.11,0.62,13.58-1.07,19.49-5.06c3.91-2.63,0.37-8.89-3.73-6.38c-4.27,2.61-9.25,5.71-14.25,6.65
		c-3.89,0.73-7.76,0.06-7.05-4.59c0.33-2.15,0.85-4.29,1.29-6.42c1.64-7.95,3.45-15.88,5.79-23.67c5.05-16.86,12.86-34,27.23-44.92
		c2.48-1.89,7.31-4.53,10.56-3.4c1.91,0.66,3.84,3.84,5.12,5.45c3.32,4.18,6.35,8.6,9.14,13.14c5.12,8.33,9.37,17.2,12.64,26.41
		c6.55,18.46,9.14,37.89,7.87,57.43c-0.28,4.35,5.97,4.74,7.26,0.98c2.87-8.39,4.44-16.92,4.83-25.78
		c-2.42,0.33-4.84,0.66-7.26,0.98c1.13,5.82,1.14,11.24,0.01,17.05c-0.9,4.65,6.22,6.64,7.13,1.97c1.37-7.09,1.37-13.9-0.01-20.98
		c-0.83-4.25-7.08-3.02-7.26,0.98c-0.37,8.21-1.91,16.05-4.57,23.81c2.42,0.33,4.84,0.65,7.26,0.98c1.3-20.12-1.39-40.38-8.14-59.39
		c-3.35-9.43-7.6-18.56-12.76-27.14c-4.3-7.15-9.68-16.93-16.74-21.69c-14.05-9.48-30.96,13.11-37.21,23.38
		c-9.48,15.58-14.1,33.68-17.79,51.36c-1.42,6.81-5.19,18.11,3.4,21.82c8.15,3.52,20.48-3.89,27.24-8.02
		c-1.24-2.13-2.49-4.26-3.73-6.38c-4.93,3.32-9.85,4.57-15.76,4.05c1.19,1.56,2.38,3.12,3.56,4.68c1.49-5.45,2.98-10.9,4.46-16.35
		c0.97-3.55-3.57-6.22-6.18-3.6c-5.84,5.86-6.67,14.14-3.58,21.64c3.34,8.12,10.54,12.96,18.67,15.62
		c13.42,4.39,38.93,8.86,45.59-7.91c1.07-2.7-2.06-5.25-4.55-4.55c-11.54,3.24-23.07,6.49-34.61,9.73c-4.6,1.29-2.67,8.17,1.97,7.13
		c12.9-2.89,24.99-7.82,36.23-14.76c3.53-2.18,1.27-7.87-2.85-6.76c-12.52,3.39-25.04,6.79-37.55,10.18
		c-8.36,2.27-27.45,11.27-34.32,2.94c-0.54,2.06-1.09,4.12-1.63,6.18c19.68-3.59,37.49-12.99,51.67-27.09
		c3.41-3.39-1.67-8.33-5.23-5.23c-8.49,7.4-16.98,14.79-25.47,22.19c-2.88,2.51,0.2,7.08,3.6,6.18c13.96-3.7,27.94-7.34,41.88-11.1
		c4.36-1.17,8.84-2.11,11.83-5.76c2.78-3.41,3.84-16.62,9.74-15.96c-1.19-0.9-2.38-1.81-3.56-2.71c0.42,2.65,0.83,5.3,1.25,7.94
		c0.64,4.07,7.78,3.16,7.26-0.98c-3.01-23.98-11.95-46.37-26.73-65.54c-1.94,1.49-3.87,2.99-5.81,4.48
		c8.78,9.79,12.82,21.98,12.01,35.06c-0.27,4.35,5.97,4.75,7.26,0.98c2.17-6.32,11.04,5.1,12.17,6.92
		c3.07,4.94,4.96,10.65,2.05,16.11c-1.18,2.2,0.23,5.94,3.19,5.56c6.96-0.88-4.16,25.9-4.94,27.58c2.25,0.29,4.5,0.59,6.76,0.88
		c-0.7-2.05-1.4-4.1-2.09-6.15c-0.69-2.04-3.38-3.71-5.43-2.21c-2.56,1.88-4.53,2.97-7.66,3.95c1.39,1.81,2.78,3.62,4.17,5.43
		c3.45-5.71,6.02-11.7,7.81-18.13c0.81-2.91-2.71-6.1-5.43-4.17c-4.78,3.38-9.55,6.76-14.33,10.14c1.69,1.69,3.37,3.37,5.06,5.06
		c3.45-7.07,6.9-14.14,10.35-21.21c1.85-3.79-2.58-7.3-5.81-4.48c-8.43,7.38-16.86,14.75-25.29,22.13c1.74,1.74,3.48,3.48,5.23,5.23
		c10.33-12.37,18.31-26.05,24-41.13c1.43-3.79-3.65-5.71-6.18-3.6c-14.99,12.56-28.35,26.66-40.24,42.19
		c2.13,1.24,4.26,2.49,6.38,3.73c12.09-18.1,24.19-36.2,36.28-54.31c2.34-3.5-2.94-7.52-5.81-4.48
		c-16.14,17.12-32.27,34.23-48.41,51.35c1.74,1.74,3.48,3.48,5.23,5.23c16.82-19.09,30.88-40.25,41.81-63.23
		c1.7-3.57-2.77-7.76-5.81-4.48c-14.86,16.04-29.72,32.08-44.58,48.12c1.94,1.49,3.87,2.99,5.81,4.48
		c12.96-17.02,24.97-34.7,36.01-53.03c2.23-3.7-2.75-7.22-5.81-4.48c-17.82,16.04-33.67,33.96-47.52,53.53
		c-2.76,3.9,3.64,7.56,6.38,3.73c16.48-23,32.96-46,49.44-69.01c2.42-3.38-3.16-7.74-5.81-4.48
		c-20.94,25.79-41.88,51.58-62.83,77.36c1.94,1.49,3.87,2.99,5.81,4.48c18.22-25.61,36.43-51.21,54.65-76.82
		c2.24-3.15-2.04-6.77-5.06-5.06c-21.83,12.38-28.39,41.3-51.69,51.34c1.49,1.94,2.99,3.87,4.48,5.81
		c15.18-19.38,30.36-38.76,45.54-58.14c2.85-3.64-1.77-8.7-5.23-5.23c-12.22,12.25-25.04,23.84-38.46,34.77
		c1.94,1.49,3.87,2.99,5.81,4.48c10.21-16.96,22.57-32.23,37-45.78C417.06-467.01,411.82-472.23,408.36-468.98L408.36-468.98z"/>
	<path class="st0" d="M555.67-340.37c7.56-13.12,15.12-26.24,22.67-39.36c-2.13,0-4.26,0-6.38,0c5.93,11.88,10.29,24.23,13.24,37.18
		c1.19-1.56,2.38-3.12,3.56-4.68c-10.04,0.49-19.96,0.04-29.89-1.53c0.74,1.81,1.47,3.62,2.21,5.43c4.35-9.04,8.7-18.08,13.05-27.12
		c-2.3-0.62-4.59-1.24-6.89-1.87c-1.05,7.9-2.1,15.8-3.15,23.7c-0.46,3.43,4.21,4.53,6.31,2.61c5.89-5.36,8.95-11.95,9.73-19.84
		c0.4-4.1-6.6-5.1-7.26-0.98c-0.69,4.35-1.39,8.7-2.08,13.05c2.38,0,4.75,0,7.13,0c-0.05-0.37-0.1-0.75-0.15-1.12
		c-0.32,1.2-0.63,2.4-0.95,3.6c-3.13,3.22,0.2,7.77,3.37,9.42c3.47,1.8,6.54-1.74,5.06-5.06c-3.98-8.93-7.96-17.87-11.94-26.8
		c-1.61-3.6-6.71-1.45-6.89,1.87c-0.59,11.19,2.23,21.7,8.34,31.09c0.74-1.81,1.47-3.62,2.21-5.43c-0.98-0.4-1.97-0.8-2.95-1.2
		c-1.19,1.56-2.38,3.12-3.56,4.68c2.71-0.12,5.42-0.25,8.14-0.37c4.74-0.21,4.76-7.61,0-7.39c-2.71,0.12-5.42,0.25-8.14,0.37
		c-2.21,0.1-4.44,2.31-3.56,4.68c1.94,5.24,6.51,7.97,12.05,6.36c2.2-0.64,3.54-3.39,2.21-5.43c-5.45-8.38-7.86-17.38-7.33-27.36
		c-2.3,0.62-4.59,1.24-6.89,1.87c3.98,8.93,7.96,17.87,11.94,26.8c1.69-1.69,3.37-3.37,5.06-5.06c-1.46-0.76-1.71-6.78-3.05-8.33
		c-1.12-1.3-2.66-2.24-4.46-2.27c-4.24-0.06-6.11,3.4-5.61,7.05c0.49,3.56,6.57,3.5,7.13,0c0.69-4.35,1.39-8.7,2.08-13.05
		c-2.42-0.33-4.84-0.65-7.26-0.98c-0.59,5.94-3.17,10.61-7.56,14.61c2.1,0.87,4.21,1.74,6.31,2.61c1.05-7.9,2.1-15.8,3.15-23.7
		c0.48-3.64-5.36-5.04-6.89-1.87c-4.35,9.04-8.7,18.08-13.05,27.12c-0.92,1.91-0.34,5.03,2.21,5.43
		c10.59,1.67,21.14,2.31,31.86,1.79c2.47-0.12,4.12-2.26,3.56-4.68c-3.09-13.55-7.78-26.51-13.98-38.94c-1.26-2.52-5.06-2.29-6.38,0
		c-7.56,13.12-15.12,26.24-22.67,39.36C546.9-339.97,553.29-336.24,555.67-340.37L555.67-340.37z"/>
	<path class="st0" d="M233.33-345.74c1.35-9.61,2.69-19.22,4.04-28.82c-1.81,0.74-3.62,1.47-5.43,2.21
		c4.83,3.43,10.39,7.21,12.59,12.96c1.28,3.34,1.67,7.31-0.85,10.16c-1.91,2.16-5.43,2.99-7.77,0.94c-0.25,1.94-0.5,3.87-0.75,5.81
		c8.2-5.53,11.92-14.85,9.63-24.5c-0.95-4.01-7.46-3.21-7.26,0.98c0.24,5.02,1.55,9.51,4.16,13.8c1.74,2.86,7.39,1.99,6.89-1.87
		c-0.77-5.87-3.05-10.67-7.78-14.39c-2.19-1.73-6.67-0.95-6.31,2.61c0.4,3.97,1.67,7,4.72,9.68c2.95,2.59,8.41-0.87,5.81-4.48
		c-1.16-1.6-2.32-3.21-3.48-4.81c-2.07-2.87-6.81-2.03-6.89,1.87c-0.11,5.18-0.22,10.35-0.32,15.53c2.42-0.33,4.84-0.65,7.26-0.98
		c-0.75-1.73-0.22-3.05,1.59-3.98c4.41-1.66,2.5-8.81-1.97-7.13c-5.5,2.08-8.55,7.25-6.75,13.07c1.23,3.97,7.17,3.25,7.26-0.98
		c0.11-5.18,0.22-10.35,0.32-15.53c-2.3,0.62-4.59,1.24-6.89,1.87c1.16,1.6,2.32,3.21,3.48,4.81c1.94-1.49,3.87-2.99,5.81-4.48
		c-1.53-1.01-2.38-2.49-2.56-4.45c-2.1,0.87-4.21,1.74-6.31,2.61c3.02,2.38,5.1,5.25,5.61,9.16c2.3-0.62,4.59-1.24,6.89-1.87
		c-1.96-3.21-2.98-6.33-3.15-10.07c-2.42,0.33-4.84,0.66-7.26,0.98c1.49,6.26-0.88,12.54-6.23,16.15c-1.85,1.24-2.65,4.14-0.75,5.81
		c7.39,6.49,18.88,2.6,21.61-6.73c3.76-12.86-7.36-22.36-16.62-28.95c-1.78-1.27-5.11-0.06-5.43,2.21
		c-1.35,9.61-2.69,19.22-4.04,28.82C225.55-343.05,232.67-341.04,233.33-345.74L233.33-345.74z"/>
	<path class="st0" d="M534.95-198.12c14.72-0.08,28.46,6.53,37.26,18.41c2.8,3.78,9.22,0.1,6.38-3.73
		c-10.39-14.02-26.13-22.16-43.65-22.07C530.19-205.48,530.18-198.09,534.95-198.12L534.95-198.12z"/>
	<path class="st0" d="M524.39-168.96c10.73,5.13,19.92,12.29,27.53,21.42c3.05,3.66,8.25-1.59,5.23-5.23
		c-7.97-9.57-17.79-17.21-29.02-22.58C523.85-177.39,520.1-171.02,524.39-168.96L524.39-168.96z"/>
	<path class="st0" d="M519.11-144.23c4.31,7.31,8.62,14.62,12.93,21.93c2.41,4.1,8.81,0.38,6.38-3.73
		c-4.31-7.31-8.62-14.62-12.93-21.93C523.08-152.06,516.69-148.34,519.11-144.23L519.11-144.23z"/>
	<path class="st0" d="M285.93-210.39c-20.11,1.69-38.46,10.46-52.16,25.33c-3.22,3.49,1.99,8.73,5.23,5.23
		c12.33-13.38,28.76-21.63,46.93-23.16C290.64-203.39,290.68-210.79,285.93-210.39L285.93-210.39z"/>
	<path class="st0" d="M262.31-147.52c7.74-13.59,18.4-24.76,31.65-33.06c4.02-2.52,0.32-8.92-3.73-6.38
		c-14.3,8.95-25.96,21.04-34.31,35.71C253.57-147.11,259.95-143.39,262.31-147.52L262.31-147.52z"/>
	<path class="st0" d="M285.25-131.74c3.8-9.28,9.44-17.48,16.57-24.51c3.39-3.34-1.83-8.57-5.23-5.23
		c-8.09,7.97-14.18,17.27-18.47,27.78C276.32-129.3,283.47-127.39,285.25-131.74L285.25-131.74z"/>
</g>
<g>
	<path class="st0" d="M-429.75-461.78c-3.78,26.16,2.98,52.76,21.1,72.43c19.99,21.71,49.9,29.63,78.16,33.36
		c33.96,4.49,68.32,6.68,102.43,9.83c29.78,2.75,62.8,7.02,88.33-12.2c10.71-8.06,18.34-19.22,21.41-32.31
		c3.07-13.12,1.37-32.69,13.22-41.73c-1.98-0.81-3.97-1.61-5.95-2.42c13.27,44.69,26.53,89.37,39.8,134.06
		c6.46,21.74,13.29,43.42,19.18,65.32c5.91,21.98,10.47,44.88,7.66,67.71c-4.82,39.2-32.24,71.18-63.94,92.67
		c-30.35,20.58-65.67,32.21-101.83,37.17c-36.95,5.08-74.64,3.62-111.6-0.6c-34.5-3.93-70.19-8.86-102.97-20.76
		c-33.96-12.33-62.98-34.88-74.67-70.16c-12.16-36.68-6.81-76.8-0.58-114.08c6.3-37.71,14.52-75.22,26.12-111.67
		c11.52-36.2,26.37-73.19,50.9-102.7c3.31-3.98-2.39-9.75-5.73-5.73c-22.34,26.87-36.87,59.43-48.29,92.2
		c-12.27,35.21-20.96,71.64-27.74,108.28c-6.84,36.97-13.47,75.34-7.85,112.9c5.49,36.7,25.42,67.37,57.66,85.97
		c30.8,17.78,66.78,24.26,101.48,29.59c39.33,6.04,79.31,9.79,119.11,7.24c72.19-4.63,155.55-34.85,188.05-105.15
		c21.88-47.32,4.55-97.27-9.37-144.18c-15.86-53.42-31.72-106.84-47.57-160.26c-0.67-2.25-3.79-4.07-5.95-2.42
		c-18.32,13.96-11.43,39.79-21.23,58.34c-14.31,27.12-47.19,30.67-74.51,28.81c-32.18-2.19-64.31-5.83-96.42-8.8
		c-28.59-2.64-58.77-4.93-84.02-19.94c-27.37-16.27-41.08-47.37-36.56-78.64C-421.2-464.72-429.01-466.93-429.75-461.78z"/>
	<g>
		<path class="st0" d="M-146.5-371c-1.24-13.58-5.66-26.85-12.8-38.47c-2.67-4.34-5.93-8.63-10.58-10.71
			c-10.03-4.47-21.09,2.91-29.58,9.87c-5.48,4.5-11.36,9.69-12.24,16.72c-1.16,9.27,6.86,17.07,14.89,21.87
			c10.43,6.24,22.13,10.34,34.17,11.97c4.08,0.55,8.41,0.79,12.16-0.92c3.75-1.71,6.63-5.96,5.5-9.92
			c8.59-8.37,24.76-6.88,31.37,3.14c6.61,10.02,1.25,25.77-10.2,29.35s-24.99-6.81-24.15-18.78c0.25,13.31,18.54,21.08,29.77,13.93
			c3.27-2.08,5.98-5.02,9.42-6.81c12.69-6.59,26.99,4.76,36.76,15.2c2.31,2.47,4.73,5.15,5.27,8.49c0.86,5.38-3.43,10.16-7.78,13.43
			c-10.18,7.67-24.32,12.15-35.71,6.42c-11.39-5.73-14.89-24.63-3.87-31.04"/>
		<path class="st0" d="M-142.45-371c-1.15-10.73-3.72-21.06-8.23-30.89c-4.01-8.74-9.55-19.3-19.29-22.61
			c-9.31-3.17-18.85,1.39-26.37,6.73c-7.14,5.06-15.41,11.2-18.4,19.76c-7.11,20.35,19.51,33.35,34.65,38.37
			c8.92,2.96,21.51,6.73,30.67,2.88c7.83-3.29,6.37-12.58,14.05-14.64c13.29-3.57,24.95,8.84,18.83,21.59
			c-6.79,14.15-27.4,7.92-27.39-7.07c-2.7,0-5.4,0-8.11,0c0.89,10.63,8.82,18.19,19.16,20.2c4.89,0.95,10.05,0.51,14.58-1.64
			c7.79-3.7,12.42-11.33,22.2-8.62c7.64,2.11,16.6,8.8,21.21,15.26c1.75,2.45,4.13,6.91,3.3,10.09c-0.55,2.1-3.81,4.47-5.52,5.78
			c-3.66,2.79-7.8,5.08-12.19,6.5c-8.47,2.74-19.33,2.51-24.63-5.7c-3.69-5.73-4.38-14.51,1.87-18.73c4.3-2.9,0.25-9.93-4.09-7
			c-12.53,8.46-10.58,27.32,0.84,36.06c14.38,11.01,39.65,3.04,49.44-10.87c5.6-7.96,2.76-15.25-3.28-21.86
			c-6.63-7.27-15.12-14.64-24.79-17.34c-9.22-2.57-16.19,0.67-23.39,6.17c-8.63,6.59-25.46,5.24-26.59-8.29
			c-0.43-5.12-8.1-5.3-8.11,0c-0.01,15.65,17.09,28.59,32.01,21.61c13.26-6.2,17.73-25.5,8.08-36.64
			c-4.82-5.56-12.34-8.34-19.6-8.14c-5.99,0.17-15.16,2.72-17.43,8.92c-0.46,1.25,0.17,3.13-0.44,4.3
			c-1.29,2.45-6.02,3.41-8.27,3.44c-3.14,0.04-6.35-0.59-9.42-1.19c-6.24-1.23-12.36-3.16-18.18-5.74
			c-10.78-4.77-29.24-15.32-19.48-29.15c7.2-10.19,26.96-25.12,38.05-13.34c10.02,10.63,14.64,27.67,16.16,41.81
			C-150.01-365.87-141.89-365.81-142.45-371L-142.45-371z"/>
	</g>
	<g>
		<path class="st0" d="M-174.42-302.07c-21.08,1.79-41.57,5.77-62.63,14.8c-68.16,29.25-15.53,114.49,27.98,143.44
			c12.37,8.23,27.34,11.76,42.14,13.08c32.13,2.85,65.5-4.49,92.09-22.74c26.59-18.26,45.79-47.77,49.22-79.84
			c1.04-9.7,0.64-19.72-2.71-28.88c-6.54-17.89-23.66-30.24-41.85-35.89c-18.19-5.65-37.59-5.6-56.64-5.5
			C-143.29-303.52-159.01-303.38-174.42-302.07z"/>
	</g>
	<g>
		<path class="st0" d="M-391.67-293.86c19.24,1.63,37.94,5.26,57.15,13.51c62.2,26.7,14.17,104.48-25.53,130.9
			c-11.29,7.51-24.95,10.74-38.46,11.93c-29.32,2.6-59.77-4.09-84.04-20.75c-24.27-16.66-41.79-43.59-44.92-72.86
			c-0.95-8.85-0.59-17.99,2.47-26.35c5.97-16.32,21.59-27.6,38.19-32.75c16.6-5.16,34.3-5.11,51.68-5.02
			C-420.08-295.17-405.73-295.05-391.67-293.86z"/>
	</g>
	<path class="st0" d="M-275.36-158.31c1.79-12.32-12.17-18.98-21.27-10.75c-8.13,7.34-8.12,20.59,1.7,26.4
		c11.2,6.63,25.82,0.3,30.43-11.25c5.04-12.64-1.19-26.82-13.62-32.05c-11.83-4.98-24.97-0.58-31.66,10.29
		c-6.16,10-5.45,23.72,4.32,31.14c8.75,6.65,22.73,6.92,30.91-0.89c8.55-8.17,8.06-23.74-1.54-30.95
		c-10.02-7.53-27.08-1.25-28.1,11.84c-0.96,12.35,14.49,21.03,24.51,13.93c1.86-1.32,2.54-3.45,1.45-5.55
		c-5.2-10.06-19.94-11.81-27.08-2.83c-1.76,2.22-1.42,4.66,0.82,6.37c6.42,4.88,16.27,7.48,21.8-0.27
		c3.64-5.11,2.16-12.39-4.16-14.38c-5.22-1.64-11.56,1.68-10.95,7.65c0.59,5.77,7.79,8.55,12.73,6.4
		c6.28-2.74,6.44-10.64,2.46-15.46c-5.29-6.39-14.13-5.1-20.35-0.92c-5.33,3.58-9.53,9.89-5.04,15.86
		c5.97,7.94,15.72,3.68,22.05-1.14c1.41-1.08,2.44-2.72,1.86-4.58c-3.72-11.96-17.22-17.49-28.29-11.68c-1.9,1-2.57,3.75-1.45,5.55
		c8.36,13.42,29.76,10.74,34.87-4.07c1.71-4.94-6.12-7.06-7.82-2.15c-2.83,8.19-15.55,9.37-20.05,2.13
		c-0.48,1.85-0.97,3.7-1.45,5.55c6.38-3.35,14.25-0.03,16.39,6.84c0.62-1.53,1.24-3.05,1.86-4.58c-1.25,0.95-2.5,1.99-3.86,2.79
		c-1.09,0.52-2.17,1.04-3.26,1.56c-3.51-2.42-3.91-4.18-1.22-5.29c1.04-0.92,2.27-1.47,3.66-1.65c3.13-1.6,3.44-0.35,0.93,3.73
		c0.33,4.24-0.65,5.41-2.96,3.49c-1.35-0.59-2.57-1.38-3.65-2.37c0.27,2.12,0.55,4.24,0.82,6.37c3.96-4.99,11.36-4.58,14.35,1.19
		c0.48-1.85,0.97-3.7,1.45-5.55c-7.78,5.51-17.09-6.15-8.77-12c8.75-6.14,17.65,3.05,15.63,12.26c-3.81,17.35-32.28,9.55-28.43-8
		c3.83-17.51,30.24-20.12,34.22-1.17c2.05,9.76-5.46,19.9-15.85,18.1c-4.55-0.79-8.34-4.05-7.42-9.11c0.28-1.55,1.21-3.39,2.25-4.57
		c1.13-1.29,10.3-7.49,8.97,1.62C-283.92-155.37-276.11-153.16-275.36-158.31L-275.36-158.31z"/>
	<path class="st0" d="M-296.45-146.4c1.63,13.69,3.9,32.33-10.02,40.77c-14.39,8.72-23.35-8.67-27.13-19.76
		c-1.67-4.91-9.5-2.8-7.82,2.15c4.98,14.64,15.79,32.89,34.17,26.87c21.14-6.92,21.04-32.07,18.89-50.03
		C-288.96-151.52-297.07-151.58-296.45-146.4L-296.45-146.4z"/>
	<path class="st0" d="M-291.28-139.43c0.34,16.53,5.95,37.14,23.42,43.2c13.23,4.59,30.1-1.26,33.68-15.67
		c1.26-5.06-6.56-7.22-7.82-2.15c-2.73,11.01-16.94,13.88-26.04,8.92c-11.84-6.44-14.88-22.1-15.13-34.3
		C-283.28-144.64-291.39-144.66-291.28-139.43L-291.28-139.43z"/>
	<path class="st0" d="M-319.2-231.28c17.99-14.85,44.35-14.94,62.95-1.24c4.2,3.1,8.25-3.94,4.09-7
		c-21.71-15.99-52.15-14.51-72.77,2.51C-328.96-233.69-323.2-227.99-319.2-231.28L-319.2-231.28z"/>
	<path class="st0" d="M-315.1-225.74c16.43-11.34,36.56-13.71,55.19-6.57c4.88,1.87,6.98-5.97,2.15-7.82
		c-20.45-7.83-43.42-5.05-61.44,7.39C-323.46-229.79-319.41-222.76-315.1-225.74L-315.1-225.74z"/>
	<path class="st0" d="M-173.16-402.69c-2.98-10.85-17.84-9.55-22.77-0.95c-5.76,10.04,0.27,23.11,11.49,25.37
		c12.06,2.43,24.1-7.88,21.84-20.42c-1.92-10.61-16-16.5-23.93-7.96c-8.98,9.67,1.71,23.28,11.16,27.38
		c8.21,3.56,24.27,2.34,22.79-10.16c-1.29-10.87-16.48-12.63-22.56-4.95c-6.56,8.29-2.09,21.69,9.31,21.66
		c12.96-0.04,16.19-18.61,3.33-22.03c-12.43-3.31-16.44,15.52-5.16,19.68c4.9,1.81,7.01-6.02,2.15-7.82
		c-3.5-1.29,2.37-8.37,3.23-1.41c0.39,3.14-3.25,4.02-5.35,3.17c-6.6-2.67,0.38-13.89,5.65-9.19c5.68,5.07-6.34,4.85-8.32,4.28
		c-4.37-1.25-9.38-4.97-10.77-9.46c-2.19-7.08,6.6-9.63,9.8-4.03c3.52,6.15-2.49,12.96-8.54,13.46c-5.54,0.46-10.44-3.53-10.21-9.31
		c0.08-2.02,0.81-4.58,2.46-5.93c1.68-1.37,5.79-2.13,6.58,0.75C-179.6-395.51-171.77-397.65-173.16-402.69L-173.16-402.69z"/>
	<path class="st0" d="M-133.22-362.26c-4.94-5.74-15.01-2.54-16.89,4.47c-2.26,8.45,7.04,15.25,14.72,13.63
		c5.69-1.2,17.75-12.36,9.31-17.39c-5.91-3.52-14.69,4.48-10.15,10.38c3.14,4.08,10.18,0.04,7-4.09c-0.52,1.25-0.56,1.59-0.13,1.04
		c0.84-0.36,0.36-0.64-1.43-0.83c-0.14-1.04-0.27-2.08-0.41-3.12c-1.28,3.59-5.45,8.24-9.51,5.3c-3.12-2.26-0.06-5.77,1.75-3.67
		C-135.55-352.57-129.84-358.32-133.22-362.26L-133.22-362.26z"/>
	<path class="st0" d="M-104.23-350.68c-7.05,1-12.31,8.58-10.3,15.6c1.88,6.57,9.61,9.81,15.87,7.64c7.07-2.44,8.62-10.05,2.74-14.9
		c-7.4-6.11-13.22,0.64-13.99,8.3c-0.7,7.03,4.31,14.9,12.14,13.94c5.94-0.73,9.94-7.69,6.92-13.18c-3.51-6.37-12.05-4.14-14.7,1.68
		c-3.56,7.82,3.9,14.03,10.93,15.26c-0.81-1.98-1.61-3.97-2.42-5.95c-1.58,3.5-2.89,7.89,0.35,10.94c2.77,2.61,6.29,2.1,8.99-0.14
		c4.01-3.34-1.75-9.05-5.73-5.73c1.13-0.33,2.26-0.65,3.39-0.98c0.97-2.14,0.4-5.46-2.42-5.95c-1.3-0.13-2.54-0.48-3.73-1.04
		c-0.26-3.46-1.29-4.44-3.11-2.94c-3.72-3.4-2.74-6.37-0.52-10.34c-1.17,0.67-2.33,1.34-3.5,2.01c3.58,0.66,3.81,1.18,0.67,1.58
		c-1.79,0.1-3.15-0.68-4.08-2.35c-1.22-3.07,2.23-5.29,4.64-5.63C-96.93-343.6-99.12-351.41-104.23-350.68L-104.23-350.68z"/>
</g>
<g>
	<path class="st0" d="M-220.57,519.8c-90.53,110.07-279.75,115.34-359.6-14.69c-12.35-20.1-21.01-43.11-33.8-62.83
		c-12.79-19.72-31.41-36.6-52.51-36.6c7.29-11.85,17.44-21.23,28.96-26.77c-15.88-12.31-35.91-17-54.6-12.77
		c23.86-54.75,64.72-98.98,113.11-122.44c6.18-2.99,12.85-6,16.68-12.43c3.48-5.85,3.92-13.37,4.52-20.47
		c2.88-33.67,12.34-66.53,27.44-95.34c19.52,29.8,32.82,65.19,38.41,102.22c71.67-4.05,118.14-0.1,189.18,11.78
		c8.81-28.08,43.13-56.17,51.93-84.25c9.83,33.53,14.75,69.04,14.49,104.51c54.29,11.58,102.09,58.57,121.39,119.31
		c-10.5,1.53-20.72,5.7-29.76,12.16c12.97,16.54,22.53,36.76,27.63,58.44c-21.33-4.2-42.85,7.88-59.27,24.43
		C-192.78,480.6-205.53,501.53-220.57,519.8z"/>
</g>
<path class="st1" d="M-287.3,315.24c-10.19,13.05-14.64,29.94-10.24,46.19c3.67,13.56,16.94,22.86,28.86,11.03
	c5.83-5.78,7.97-14.77,9.72-22.51c1.82-7.99,2.85-16.96-0.86-24.6c-5.24-10.81-20.6-16.16-29.57-6.7c-3.77,3.97,2.24,10,6.01,6.01
	c8.58-9.04,17.58,5.08,17.57,12.99c-0.01,8.39-2.66,22.55-8.93,28.52c-11.29,10.74-15.93-9.41-15.97-17.56
	c-0.04-9.95,3.3-19.53,9.42-27.36C-277.96,316.98-283.94,310.92-287.3,315.24L-287.3,315.24z"/>
<path class="st1" d="M-517.68,315.24c-10.19,13.05-14.64,29.94-10.24,46.19c3.67,13.56,16.94,22.86,28.86,11.03
	c5.83-5.78,7.97-14.77,9.72-22.51c1.82-7.99,2.85-16.96-0.86-24.6c-5.24-10.81-20.6-16.16-29.57-6.7c-3.77,3.97,2.24,10,6.01,6.01
	c8.58-9.04,17.58,5.08,17.57,12.99c-0.01,8.39-2.66,22.55-8.93,28.52c-11.29,10.74-15.93-9.41-15.97-17.56
	c-0.04-9.95,3.3-19.53,9.42-27.36C-508.33,316.98-514.31,310.92-517.68,315.24L-517.68,315.24z"/>
<path class="st1" d="M-465.51,418.48c0.28,18.12,13.84,38.06,33.54,38.05c20.81-0.01,31.22-21.34,37.98-37.81
	c-2.78-0.38-5.57-0.75-8.35-1.13c2.35,20.32,9.24,41.41,33.03,42.98c21.47,1.42,36.71-17.03,37.92-37.21c0.33-5.47-8.18-5.45-8.51,0
	c-0.95,15.87-13.09,30.42-30,28.61c-18.14-1.95-22.16-19.1-23.93-34.38c-0.56-4.86-6.5-5.66-8.35-1.13
	c-4.92,12-11.94,28.52-26.29,31.23c-16.47,3.11-28.29-14.76-28.51-29.21C-457.08,413.01-465.59,413-465.51,418.48L-465.51,418.48z"
	/>
<path class="st1" d="M-393.67,395.34c-8.42-8.84-23.28-1.76-22.13,10.24c1.15,11.98,15.9,19.74,26.29,13.34
	c9.14-5.63,9.65-21.15-0.23-26.3c-9.58-5-23,4.62-19.73,15.41c3.31,10.94,20.43,10.62,23.93,0.16c0.65-1.93-0.48-3.71-1.95-4.8
	c-4.48-3.34-13.22-5.72-15.21,1.74c-1.27,4.74,2.52,10.44,7.77,8.67c5.16-1.75,2.94-9.96-2.26-8.2c2.08,0.45,3.08,1.61,3.01,3.48
	c0.84,0.5,1.64,1.05,2.4,1.66c-0.65-1.6-1.3-3.2-1.95-4.8c-1.15,3.45-8.57,1.84-7.62-2.1c0.58-2.4,3.8-4.22,6.13-4.04
	c2.95,0.22,4.29,3.08,4.28,5.75c-0.01,7.11-7.82,8.95-12.9,5.15c-2.52-1.89-5.06-6.48-2.67-9.36c1.74-2.09,5.12-1.78,6.84,0.03
	C-395.9,405.33-389.89,399.3-393.67,395.34L-393.67,395.34z"/>
<path class="st1" d="M-249.43,421.98c17.38,6.07,33.64,14.35,48.85,24.72c4.53,3.09,8.8-4.28,4.29-7.34
	c-15.81-10.78-32.82-19.27-50.88-25.58C-252.35,411.97-254.58,420.18-249.43,421.98L-249.43,421.98z"/>
<path class="st1" d="M-250.8,448.08c9.56,4.91,17.75,11.5,24.62,19.76c3.5,4.21,9.49-1.83,6.01-6.01
	c-7.28-8.77-16.2-15.89-26.34-21.09C-251.37,438.24-255.67,445.57-250.8,448.08L-250.8,448.08z"/>
<path class="st1" d="M-262.25,466.79c4.22,7.67,8.44,15.35,12.66,23.02c2.64,4.8,9.99,0.51,7.34-4.29
	c-4.22-7.67-8.44-15.34-12.66-23.02C-257.54,457.7-264.89,461.98-262.25,466.79L-262.25,466.79z"/>
<path class="st1" d="M-538.14,400.93c-16.28-3.53-32.33-1.42-47.13,6.2c-4.87,2.51-0.57,9.85,4.29,7.34
	c12.71-6.55,26.61-8.38,40.58-5.35C-535.07,410.29-532.79,402.09-538.14,400.93L-538.14,400.93z"/>
<path class="st1" d="M-543.35,421.77c-12.19,2.78-23.08,8.68-32.17,17.25c-3.99,3.76,2.03,9.77,6.01,6.01
	c8.07-7.61,17.61-12.6,28.41-15.06C-535.75,428.76-538.01,420.55-543.35,421.77L-543.35,421.77z"/>
<path class="st1" d="M-540.01,449c-6.84,5.91-13.68,11.82-20.53,17.73c-4.15,3.58,1.89,9.58,6.01,6.01
	c6.84-5.91,13.68-11.82,20.53-17.73C-529.84,451.43-535.88,445.43-540.01,449L-540.01,449z"/>
<path class="st2" d="M-398.04,517.24c-10.22-25.51-49.23-4.43-49.11,17.24c0.14,26.61,47.53,26.88,61.28,12.47
	c18.71-19.61-6.64-46.49-29.05-35.76c-9.87,4.73-19.49,17.05-14.82,28.46c4.31,10.51,17.15,13.12,26.86,9.24
	c8.51-3.4,24.94-17.21,14.27-26.88c-10.13-9.18-25.56,2.66-29.95,12.11c-1.24,2.67-0.18,5.2,2.54,6.25
	c9.02,3.48,19.07-0.59,23.17-9.32c1.4-2.98-0.29-6.2-3.67-6.4c-8.11-0.48-14.91,1.98-21.22,6.96c-1.35,1.06-1.66,3.76-0.67,5.15
	c5.45,7.57,16.53,8.94,22.67,1.27c1.79-2.24,1.6-6.46-1.88-7.11c-12.09-2.24-24.22-3.39-36.51-3.34c-5,0.02-5.51,6.76-1.13,8.35
	c8.31,3.03,16.7,0.95,22.9-5.27c2.63-2.64,0.66-7.2-3.01-7.26c-10.28-0.17-19.21,5.17-23.63,14.51c-1.18,2.5-0.26,5.4,2.54,6.25
	c11.36,3.42,22.89,5.39,34.74,6.04c5.47,0.3,5.45-8.21,0-8.51c-11.1-0.61-21.84-2.54-32.48-5.74c0.85,2.08,1.69,4.17,2.54,6.25
	c3.19-6.73,8.74-10.42,16.29-10.3c-1-2.42-2-4.84-3.01-7.26c-4.19,4.2-9.19,5.06-14.62,3.08c-0.38,2.78-0.75,5.57-1.13,8.35
	c11.54-0.05,22.9,0.92,34.25,3.03c-0.63-2.37-1.25-4.74-1.88-7.11c-2.21,2.76-6.58,4.26-9.31,0.46c-0.22,1.72-0.44,3.44-0.67,5.15
	c4.57-3.61,9.52-4.81,15.21-4.47c-1.22-2.13-2.45-4.27-3.67-6.4c-2.6,5.52-7.89,7.6-13.57,5.41c0.85,2.08,1.69,4.17,2.54,6.25
	c1.64-3.53,3.68-6.49,7.1-8.58c1.93-1.22,4.04-1.96,6.31-2.23c2.42,3.89,2.11,6.81-0.92,8.75c-5.68,6.11-22.61,10.08-23.69-2.48
	c-0.79-9.16,10.75-16.65,18.64-16.92c8.59-0.3,16.81,7.15,15.74,16c-2.25,18.63-31.24,17.22-43.52,10.92
	c-23.73-12.18,18.2-42.13,25.31-24.36C-404.23,524.52-396,522.33-398.04,517.24L-398.04,517.24z"/>
<path class="st2" d="M-549.58,548.81c35.56-15.76,74.98-21.31,113.51-15.9c5.35,0.75,7.67-7.44,2.26-8.2
	c-41.04-5.76-82.17-0.04-120.06,16.76C-558.87,543.68-554.55,551.01-549.58,548.81L-549.58,548.81z"/>
<path class="st2" d="M-538.35,566.28c31.58-17.56,67.51-24.44,103.37-20.1c5.42,0.66,5.38-7.86,0-8.51
	c-37.28-4.51-74.86,3.03-107.66,21.26C-547.43,561.59-543.15,568.94-538.35,566.28L-538.35,566.28z"/>
<path class="st2" d="M-394.22,553.57c37.28-1.96,74.19,9.38,103.62,32.45c4.26,3.34,10.32-2.64,6.01-6.01
	c-31.22-24.47-69.96-37.04-109.64-34.95C-399.67,545.35-399.7,553.86-394.22,553.57L-394.22,553.57z"/>
<path class="st2" d="M-383.76,533.51c36.56,2.61,71.52,14.67,102.05,34.92c4.57,3.03,8.84-4.33,4.29-7.34
	c-31.8-21.09-68.3-33.37-106.34-36.08C-389.22,524.62-389.19,533.12-383.76,533.51L-383.76,533.51z"/>
<rect x="-365.16" y="690.05" class="st2" width="1350" height="650"/>
<g>
	<path class="st0" d="M133.7,455.47C80.01,407.22,53.2,338.5,92.26,256.57c3.02-6.33,42.98-57.11,43.43-55.92
		c-10.02-26.6-17.26-54.24-21.56-82.34c33.36,4.14,58.21,34.71,91.15,41.4c13.83,2.81,28.12,1.17,42.18-0.02
		c54.96-4.65,110.51-2.34,164.89,6.85c15.6,2.64,31.24,5.85,47.07,5.6c37.72-0.58,72.07-20.49,104.47-39.81
		c-1.25,26.99-11.75,53.46-29.34,73.95c5.61-6.5,50.01,107.71,50.02,123.68C584.66,552.6,265.25,573.73,133.7,455.47z"/>
</g>
<path class="st1" d="M438.53,271.96c20.84-1.14,41.64-0.58,62.38,1.69c-1.28-0.97-2.56-1.95-3.83-2.92
	c6.09,17.8-5.25,37.37-24.73,38.29c-21.06,1-31.05-18.58-33.41-36.72c-0.65-5-8.61-5.07-7.95,0c3.02,23.24,16.82,47.24,43.64,44.5
	c23.31-2.38,37.61-26.28,30.12-48.19c-0.63-1.83-1.98-2.72-3.83-2.92c-20.74-2.27-41.54-2.83-62.38-1.69
	C433.44,264.28,433.41,272.24,438.53,271.96L438.53,271.96z"/>
<path class="st1" d="M180.88,270.97c20.03,1.17,40.06,2.34,60.09,3.52c-1.33-1.33-2.65-2.65-3.98-3.98
	c-0.93,18.33-15.62,36.38-34.85,36.85c-18.29,0.45-34.68-18-31.1-36.06c0.99-5-6.67-7.14-7.67-2.11
	c-4.44,22.43,13.76,45.01,36.63,46.09c24.56,1.16,43.76-21.61,44.94-44.77c0.11-2.24-1.92-3.86-3.98-3.98
	c-20.03-1.17-40.06-2.34-60.09-3.52C175.76,262.72,175.78,270.68,180.88,270.97L180.88,270.97z"/>
<path class="st1" d="M163.14,271.06c7.13,1.02,14.25,2.04,21.38,3.06c5.01,0.72,7.17-6.95,2.11-7.67
	c-7.13-1.02-14.25-2.04-21.38-3.06C160.25,262.68,158.08,270.34,163.14,271.06L163.14,271.06z"/>
<path class="st1" d="M188.85,269.76c-9.54,6.7-5.68,21.45,5.35,23.95c14.34,3.25,22.97-10.92,25.79-22.7
	c0.66-2.74-1.24-4.73-3.83-5.03c-7.52-0.88-18.22-0.64-20.92,8.18c-1.92,6.28,1.48,13.7,8.57,13.83c3.48,0.06,5.2-4.37,2.81-6.79
	c-3.73-3.78-9.24-2.91-12.13,1.34c-2.89,4.24,4,8.22,6.87,4.01c-0.12,0.09-0.24,0.18-0.36,0.27c0.94-2.26,1.87-4.53,2.81-6.79
	c-2.9-0.05-0.2-4.85,1.03-5.52c3.29-1.8,7.77-1,11.32-0.58c-1.28-1.68-2.56-3.36-3.83-5.03c-1.55,6.47-4.22,14.45-11.3,16.68
	c-2.77,0.87-6.41,0.93-8.44-1.51c-1.64-1.98-2.04-5.82,0.27-7.44C197.02,273.71,193.05,266.81,188.85,269.76L188.85,269.76z"/>
<path class="st1" d="M457.59,270.22c-9.4,8.01-2.53,23.16,8.89,24.06c14.68,1.15,21.93-13.79,20.94-26.44c-2.65,0-5.3,0-7.95,0
	c0.43,5.1-1.97,10.08-6.93,12.04c1.63,0.93,3.26,1.85,4.89,2.78c-1.11-3.53-2.21-7.06-3.32-10.59c-0.65-2.07-2.75-3.34-4.89-2.78
	c-6.93,1.82-8.79,9.82-4.61,15.14c3.16,4.02,8.75-1.64,5.62-5.62c-0.61-0.77,0.57-1.71,1.1-1.84c-1.63-0.93-3.26-1.85-4.89-2.78
	c1.11,3.53,2.21,7.06,3.32,10.59c0.59,1.88,2.83,3.59,4.89,2.78c8.1-3.2,13.51-10.82,12.77-19.71c-0.43-5.06-8.36-5.12-7.95,0
	c0.56,7.09-1.15,16.15-9.16,18.22c-6.04,1.56-12.94-5.23-7.09-10.21C467.12,272.52,461.47,266.92,457.59,270.22L457.59,270.22z"/>
<path class="st1" d="M329.71,325.7c-5.84-3.52-13.73-1.6-17.08,4.56c-3.99,7.33,0.78,16.23,7.76,19.57
	c15.14,7.24,37.1-8.72,27.39-25.16c-8.54-14.48-30.17-6.15-28.05,10.13c2.02,15.52,24.07,14.58,28.71,1.35
	c0.45-1.28-0.05-2.96-1.02-3.87c-7.39-6.93-20.1-3.54-22.32,6.62c-0.46,2.08,0.61,4.32,2.78,4.89c7.37,1.96,12.19-6.68,7.33-12.22
	c-2.22-2.53-7.01-0.57-6.79,2.81c1.73,26.05,4.6,52.37,3.54,78.5c-0.76,18.9-5.26,41.4-23.97,50.4c1.61,2.08,3.21,4.16,4.82,6.25
	c9.15-8.44,18.29-16.87,27.44-25.31c-2.22-0.58-4.43-1.17-6.65-1.75c2.87,10.39,8.47,19.18,16.83,26.02
	c3.93,3.21,9.59-2.38,5.62-5.62c-7.33-6-12.26-13.35-14.79-22.51c-0.82-2.97-4.47-3.76-6.65-1.75
	c-9.15,8.44-18.29,16.87-27.44,25.31c-3.5,3.23,0.94,8.11,4.82,6.25c18.37-8.83,25.17-29.24,27.26-48.21
	c3.19-28.82-0.98-58.76-2.9-87.56c-2.26,0.94-4.53,1.87-6.79,2.81c0.14-0.36,0.27-0.72,0.41-1.07c0.93,1.63,1.85,3.26,2.78,4.89
	c0.89-4.07,5.69-6.25,9.03-3.11c-0.34-1.29-0.68-2.58-1.02-3.87c-1.51,4.3-8.58,6.34-11.87,2.66c-5.29-5.92,4.13-15.33,10.18-10.17
	c5.98,5.09,2.72,11.93-3.27,15.03c-3.88,2.01-7.3,2.44-11.37,0.76c-3.24-0.56-5.01-2.65-5.32-6.27c1.16-3.94,3.35-5.1,6.57-3.47
	C330.09,335.22,334.1,328.34,329.71,325.7L329.71,325.7z"/>
<path class="st1" d="M284.36,182.76c9.1-1.95,18.12-2.35,27.36-1.4c-1.33-1.33-2.65-2.65-3.98-3.98c0.6,8.13,0.51,16.25-0.73,24.33
	c-0.53,3.43-0.88,7.9-2.35,11.06c-0.22,3.2-2.16,5.06-5.8,5.58c-1.18-1.32-2.16-2.77-2.95-4.35c-3.87-6.46-8.92-14.62-11.23-21.77
	c-1.69-5.22-1.2-4.35,4.33-2.56c3.32,1.07,5.22,1.91,8.71,1.55c-1.33-1.33-2.65-2.65-3.98-3.98c-0.51,8.6-1.02,17.2-1.53,25.8
	c-0.23,3.84,5.71,5.55,7.41,2.01c4.42-9.2,5.75-18.38,4.28-28.45c-0.65-4.47-7.91-3.35-7.81,1.06c0.18,8.46-0.86,16.55-3.2,24.69
	c-1.21,4.2,5.45,7.29,7.27,3.06c4.02-9.35,6.13-18.79,6.21-28.98c0.02-2.91-3.43-5.1-5.98-3.43c-6.49,4.24-12.98,8.48-19.48,12.72
	c1.61,2.08,3.21,4.16,4.82,6.25c6.53-5.41,13.73-9.06,21.89-11.34c-1.63-1.63-3.26-3.26-4.89-4.89c-1.39,8.68-2.78,17.37-4.16,26.05
	c-0.8,5.01,6.86,7.16,7.67,2.11c1.39-8.68,2.78-17.37,4.16-26.05c0.46-2.88-1.72-5.78-4.89-4.89c-9.5,2.66-17.8,7.1-25.4,13.39
	c-3.47,2.87,1.06,8.7,4.82,6.25c6.49-4.24,12.98-8.48,19.48-12.72c-1.99-1.14-3.99-2.29-5.98-3.43c-0.07,8.72-1.68,16.95-5.12,24.96
	c2.42,1.02,4.85,2.04,7.27,3.06c2.53-8.8,3.68-17.64,3.48-26.8c-2.6,0.35-5.21,0.7-7.81,1.06c1.14,7.81-0.07,15.22-3.48,22.32
	c2.47,0.67,4.94,1.34,7.41,2.01c0.51-8.6,1.02-17.2,1.53-25.8c0.12-1.99-1.92-4.19-3.98-3.98c-5.94,0.62-22.06-8.93-22.98,4.26
	c-0.4,5.66,4.85,12.16,7.28,16.88c3.04,5.9,5.6,12.81,9.85,17.97c6.14,7.46,15.22,6.59,18.95-2.63c5.23-12.93,5.89-28.66,4.87-42.37
	c-0.17-2.32-1.7-3.74-3.98-3.98c-9.97-1.03-19.68-0.42-29.47,1.68C277.24,176.16,279.36,183.83,284.36,182.76L284.36,182.76z"/>
<path class="st1" d="M343.53,180.59c-4.75,13.34-12.51,52.83,9.49,56.31c23.88,3.78,26.01-35.22,29.2-49.99
	c0.47-2.16-0.63-4.21-2.78-4.89c-9.87-3.12-19.86-2.83-29.47,1.03c-3.72,1.49-3.8,6.2,0,7.67c5.1,1.97,10.07,2.9,15.52,3.04
	c-1.14-1.99-2.29-3.99-3.43-5.98c-8.69,11.99-15.01,25.22-18.98,39.48c-0.85,3.04,2.96,6.69,5.84,4.49
	c12.13-9.29,18.7-23.5,16.77-38.83c-0.39-3.1-4.23-5.65-6.79-2.81c-7.82,8.69-10.42,20.21-6.53,31.32c0.77,2.19,3.62,4,5.84,2.38
	c10.37-7.58,15.01-19.83,11.73-32.35c-0.59-2.24-2.79-3.12-4.89-2.78c-11.57,1.88-19.76,12.52-18.75,24.17
	c0.44,5.06,8.4,5.11,7.95,0c-0.73-8.43,4.62-15.15,12.91-16.5c-1.63-0.93-3.26-1.85-4.89-2.78c2.31,8.81-0.64,17.93-8.07,23.36
	c1.95,0.79,3.89,1.58,5.84,2.38c-2.93-8.38-1.5-16.93,4.49-23.58c-2.26-0.94-4.53-1.87-6.79-2.81c1.55,12.35-2.81,24.29-12.83,31.97
	c1.95,1.5,3.89,2.99,5.84,4.49c3.81-13.67,9.86-26.09,18.17-37.58c1.86-2.56-0.67-5.91-3.43-5.98c-4.77-0.13-9-1.05-13.41-2.76
	c0,2.56,0,5.11,0,7.67c8.38-3.36,16.64-3.75,25.24-1.03c-0.93-1.63-1.85-3.26-2.78-4.89c-1.78,8.25-3.5,16.52-5.34,24.76
	c-1.54,6.87-3.57,18.2-12.26,19.43c-17.46,2.47-8.55-38.43-5.75-46.28C352.92,177.88,345.24,175.8,343.53,180.59L343.53,180.59z"/>
<path class="st1" d="M496.84,378.95c32.71-6.99,65.78-11.84,99.13-14.49c5.07-0.4,5.11-8.36,0-7.95
	c-34.04,2.71-67.84,7.63-101.24,14.77C489.72,372.35,491.84,380.02,496.84,378.95L496.84,378.95z"/>
<path class="st1" d="M496.91,410.37c26.41-4.27,53.15-2.73,78.94,4.32c4.94,1.35,7.05-6.32,2.11-7.67
	c-27.24-7.45-55.3-8.83-83.17-4.32C489.75,403.51,491.89,411.18,496.91,410.37L496.91,410.37z"/>
<path class="st1" d="M492.4,443.11c15.06,4.16,30.12,8.33,45.18,12.49c4.94,1.37,7.05-6.31,2.11-7.67
	c-15.06-4.16-30.12-8.33-45.18-12.49C489.57,434.08,487.46,441.75,492.4,443.11L492.4,443.11z"/>
<path class="st1" d="M59.69,387.12c28.19-10.44,57.75-15.14,87.78-13.91c5.12,0.21,5.11-7.74,0-7.95
	c-30.67-1.25-61.11,3.53-89.9,14.19C52.82,381.22,54.88,388.91,59.69,387.12L59.69,387.12z"/>
<path class="st1" d="M73.61,424.68c20.74-13.29,43.44-22.43,67.6-27.24c5.02-1,2.89-8.67-2.11-7.67
	c-24.78,4.94-48.23,14.41-69.5,28.04C65.3,420.56,69.29,427.45,73.61,424.68L73.61,424.68z"/>
<path class="st1" d="M95.77,461.84c15.39-14.28,32.55-26.13,51.3-35.57c4.57-2.3,0.55-9.16-4.01-6.87
	c-19.34,9.73-37.04,22.09-52.91,36.81C86.38,459.71,92.02,465.32,95.77,461.84L95.77,461.84z"/>
</svg>
