<?xml version="1.0" encoding="utf-8"?>
<!-- Generator: Adobe Illustrator 23.1.1, SVG Export Plug-In . SVG Version: 6.00 Build 0)  -->
<svg version="1.1" id="Layer_1" xmlns="http://www.w3.org/2000/svg" xmlns:xlink="http://www.w3.org/1999/xlink" x="0px" y="0px"
	 viewBox="0 0 650 650" style="enable-background:new 0 0 650 650;" xml:space="preserve">
<style type="text/css">
	.st0{fill:#123437;}
</style>
<g>
	<path class="st0" d="M1069,490.13c-35.71,11.12-75.62,12.39-112.76,9.72c-34.52-2.48-69.57-10.17-99.87-27.43
		c-32.34-18.42-58.75-48.22-66.28-85.32c-8.7-42.87-7.43-88.61,0.68-131.45c9.2-48.65,28.07-95.1,55.55-136.29
		c-2.01,0-4.02,0-6.02,0c5.96,10.52,11.93,21.04,17.89,31.56c5.11,9.02,9.66,18.83,15.85,27.16c5.42,7.3,12.29,10.04,21.19,10.8
		c12.19,1.05,24.44,1.59,36.65,2.37c24.26,1.56,48.52,3.13,72.79,4.69c12.36,0.8,24.72,1.59,37.08,2.39
		c9.59,0.62,20.55,2.82,29.95,0.07c9.9-2.9,13.83-12.35,18.23-20.76c6.32-12.11,12.65-24.22,18.97-36.33
		c-1.83,0.24-3.65,0.47-5.48,0.71c35.95,46.28,57.97,103.05,63.05,161.42c4.34,49.83-1.03,106.75-34.83,146.29
		C1115.06,469.1,1093.1,482.29,1069,490.13c-4.25,1.38-2.43,8.12,1.85,6.73c46.2-15.01,80.19-49.08,94.37-95.67
		c16.94-55.66,10.83-119.57-7.95-173.92c-11.26-32.57-27.79-62.97-48.93-90.18c-1.36-1.75-4.53-1.11-5.48,0.71
		c-6.12,11.72-12.24,23.44-18.36,35.16c-2.73,5.23-5.25,12.31-9.89,16.2c-4.94,4.14-11.77,3.51-17.77,3.18
		c-27.93-1.56-55.85-3.6-83.77-5.4c-13.73-0.88-27.47-1.77-41.2-2.65c-6.87-0.44-13.73-0.88-20.6-1.33
		c-6.8-0.44-14.22-0.15-20.87-1.71c-12.35-2.89-17.89-19.22-23.54-29.18c-6.85-12.08-13.69-24.15-20.54-36.23
		c-1.35-2.39-4.61-2.12-6.02,0c-50.37,75.51-71.92,169.05-59.3,258.98c3.09,22.02,9.39,41.69,22.52,59.81
		c10.04,13.86,22.36,25.84,36.38,35.65c29.22,20.45,64.42,30.57,99.48,34.92c20.17,2.5,40.56,3.06,60.85,2.21
		c23.84-0.99,47.75-3.42,70.61-10.54C1075.13,495.52,1073.3,488.79,1069,490.13z"/>
	<path class="st0" d="M1104.79,177.93c-1.94,7.07-3.17,14.24-3.78,21.55c-0.14,1.65,1.21,2.81,2.56,3.36
		c6.07,2.47,12.23,2.99,18.68,2.07c1.77-0.25,3.03-2.69,2.44-4.29c-2.93-7.99-6.76-15.48-11.64-22.46
		c-1.51-2.16-5.88-2.42-6.38,0.83c-1.23,8.05-0.81,15.82,1.54,23.64c0.65,2.16,3.14,3.23,5.12,2.09c3-1.72,5.88-4.32,5.15-8.14
		c-0.57-2.99-3.76-5.48-6.83-4.47c-6.45,2.11-1.36,12.6,4.65,7.91c3.54-2.76-1.43-7.66-4.93-4.93c-0.16,0.13-0.32,0.25-0.48,0.38
		c1.13-0.3,2.26-0.6,3.39-0.9c0.43,0.46,0.87,0.91,1.3,1.37c-0.34,0.82-0.68,1.64-1.02,2.47c0.16-0.16,0.32-0.31,0.48-0.47
		c-0.82,0.34-1.64,0.68-2.47,1.02c-0.95-1.09-1.87-1.18-2.77-0.26c1.71,0.69,3.42,1.39,5.12,2.08c-1.97-6.53-2.57-13.16-1.54-19.93
		c-2.13,0.28-4.25,0.56-6.38,0.83c4.53,6.48,8.21,13.37,10.93,20.79c0.81-1.43,1.62-2.86,2.44-4.29
		c-5.18,0.74-10.16-0.11-14.97-2.07c0.85,1.12,1.71,2.24,2.56,3.36c0.56-6.69,1.75-13.22,3.53-19.69
		C1112.71,175.45,1105.98,173.6,1104.79,177.93L1104.79,177.93z"/>
	<path class="st0" d="M835.49,160.45c-3.47,5.41-6.94,10.82-10.41,16.23c-0.93,1.45-0.43,4.04,1.25,4.77
		c6.99,3.05,14.11,3.92,21.63,2.53c1.88-0.35,2.88-2.59,2.44-4.29c-1.61-6.25-4.03-12.2-7.21-17.82c-1.14-2.02-3.86-2.21-5.48-0.71
		c-2.64,2.46-5.26,5.64-4.49,9.51c0.65,3.28,3.6,6.01,7.04,5.56c4.44-0.58,4.53-6.48,0-6.98c-4.79-0.53-9.11,1.89-11.54,5.98
		c-0.82,1.37-0.51,3.09,0.55,4.23c1.91,2.06,4.32,3.07,7.13,2.87c4.45-0.32,4.49-7.3,0-6.98c-0.92,0.28-1.66,0.01-2.2-0.82
		c0.18,1.41,0.36,2.82,0.55,4.23c1.27-2.14,3.1-2.79,5.52-2.52c0-2.33,0-4.65,0-6.98c-0.32,0.04,2.13-2.91,2.39-3.15
		c-1.83-0.24-3.65-0.47-5.48-0.71c2.9,5.12,5.04,10.46,6.5,16.15c0.81-1.43,1.62-2.86,2.44-4.29c-5.49,1.01-11.12,0.41-16.25-1.83
		c0.42,1.59,0.83,3.18,1.25,4.77c3.47-5.41,6.94-10.82,10.41-16.23C843.94,160.18,837.91,156.68,835.49,160.45L835.49,160.45z"/>
	<path class="st0" d="M1074.73,285.71c-2.4,7.3,0.32,14.3,6.65,18.5c1.23,0.81,3.24,0.55,4.23-0.55c8.36-9.26,8.42-22.72,0.24-32.11
		c-1.63-1.87-4.22-0.94-5.48,0.71c-9.18,12.04-9.96,28.33-2.44,41.38c1.17,2.04,3.83,2.18,5.48,0.71
		c10.34-9.24,10.36-26.15,0.05-35.42c-1.63-1.46-4.33-1.34-5.48,0.71c-4.98,8.91-3.67,19.28,3.29,26.73c1.23,1.32,3.71,1.37,4.93,0
		c4.19-4.7,4.94-10.6,1.51-16.01c-1.27-2-3.75-2.2-5.48-0.71c-5.6,4.83-6.66,12.02-3.42,18.53c1.49,2.99,5.35,1.67,6.38-0.83
		c1.91-4.66,2.19-8.76,1.48-13.71c-0.56-3.94-6.91-2.93-6.85,0.93c0.03,1.93,0.06,3.87,0.08,5.8c0.06,4.49,7.04,4.5,6.98,0
		c-0.03-1.93-0.06-3.87-0.08-5.8c-2.28,0.31-4.57,0.62-6.85,0.93c0.52,3.68-0.1,6.64-1.48,10c2.13-0.28,4.25-0.56,6.38-0.83
		c-1.92-3.86-0.8-7.37,2.33-10.07c-1.83-0.24-3.65-0.47-5.48-0.71c1.92,2.54,1.77,5.06-0.42,7.56c1.64,0,3.29,0,4.93,0
		c-4.81-5.14-5.62-12.15-2.2-18.27c-1.83,0.24-3.65,0.47-5.48,0.71c7.62,6.86,7.6,18.72-0.05,25.56c1.83,0.24,3.65,0.47,5.48,0.71
		c-6.4-11.1-5.28-24.21,2.44-34.34c-1.83,0.24-3.65,0.47-5.48,0.71c5.59,6.42,5.44,15.94-0.24,22.24c1.41-0.18,2.82-0.36,4.23-0.55
		c-3.84-2.55-4.84-6.38-3.44-10.62C1082.87,283.29,1076.13,281.46,1074.73,285.71L1074.73,285.71z"/>
	<path class="st0" d="M866.2,285.71c-2.4,7.3,0.32,14.3,6.65,18.5c1.23,0.81,3.24,0.55,4.23-0.55c8.36-9.26,8.42-22.72,0.24-32.11
		c-1.63-1.87-4.22-0.94-5.48,0.71c-9.18,12.04-9.96,28.33-2.44,41.38c1.17,2.04,3.83,2.18,5.48,0.71
		c10.34-9.24,10.36-26.15,0.05-35.42c-1.63-1.46-4.33-1.34-5.48,0.71c-4.98,8.91-3.67,19.28,3.29,26.73c1.23,1.32,3.71,1.37,4.93,0
		c4.19-4.7,4.94-10.6,1.51-16.01c-1.27-2-3.75-2.2-5.48-0.71c-5.6,4.83-6.66,12.02-3.42,18.53c1.49,2.99,5.35,1.67,6.38-0.83
		c1.91-4.66,2.19-8.76,1.48-13.71c-0.56-3.94-6.91-2.93-6.85,0.93c0.03,1.93,0.06,3.87,0.08,5.8c0.06,4.49,7.04,4.5,6.98,0
		c-0.03-1.93-0.06-3.87-0.08-5.8c-2.28,0.31-4.57,0.62-6.85,0.93c0.52,3.68-0.1,6.64-1.48,10c2.13-0.28,4.25-0.56,6.38-0.83
		c-1.92-3.86-0.8-7.37,2.33-10.07c-1.83-0.24-3.65-0.47-5.48-0.71c1.92,2.54,1.77,5.06-0.42,7.56c1.64,0,3.29,0,4.93,0
		c-4.81-5.14-5.62-12.15-2.2-18.27c-1.83,0.24-3.65,0.47-5.48,0.71c7.62,6.86,7.6,18.72-0.05,25.56c1.83,0.24,3.65,0.47,5.48,0.71
		c-6.4-11.1-5.28-24.21,2.44-34.34c-1.83,0.24-3.65,0.47-5.48,0.71c5.59,6.42,5.44,15.94-0.24,22.24c1.41-0.18,2.82-0.36,4.23-0.55
		c-3.84-2.55-4.84-6.38-3.44-10.62C874.33,283.29,867.6,281.46,866.2,285.71L866.2,285.71z"/>
	<path class="st0" d="M974.75,326.41c-7.38-5.95-15.42,4.44-9.17,11.11c6.97,7.43,20.15,3.77,25.73-3.43
		c6.26-8.08-5.55-15.39-13.17-14.59c-8.71,0.92-13.03,9.89-9.67,17.66c3.39,7.83,13.13,9.43,18.46,2.59
		c5.38-6.9,1.84-18.68-8.21-17.25c-8.24,1.17-9.01,14.53-0.16,14.68c7.88,0.14,8.5-11.9,1.74-14.3
		c-10.92-3.88-17.03,14.6-6.38,18.81c8.94,3.54,13.57-11.2,4.64-13.02c-1.65-0.34-2.99,0.26-3.94,1.6c-2.2,3.09-2.18,6.65-0.13,9.8
		c0.93,1.43,2.33,1.86,3.94,1.6c11.69-1.86,4.55-22.47-7.23-14.19c-5.3,3.73-5.64,10.75-2.17,15.83c3.85,5.63,11.2,8.1,17.77,7.13
		c12.59-1.85,19.91-19.46,7.92-27.36c-10.14-6.68-26.48,0.8-29.12,12.34c-1.63,7.13,4.03,12.7,11,12.31
		c7.92-0.44,11.94-7.93,13.99-14.64c0.6-1.95-0.73-3.61-2.44-4.29c-6.42-2.58-17.56,3.34-13.1,11.04c1.58,2.72,5.35,6.23,8.77,5.55
		c4.41-0.88,8.43-6.98,10.25-10.59c2.01-4-4-7.54-6.02-3.52c-1.66,3.29-3.78,5.76-6.91,7.73c1.17,0,2.35,0,3.52,0
		c-1.54-0.67-4.06-1.47-2.91-3.13c0.86-1.24,3.49-0.78,4.55-0.36c-0.81-1.43-1.62-2.86-2.44-4.29c-0.9,2.93-2.13,6.95-4.97,8.6
		c-2.08,1.21-3.79,1.37-5.42-0.55c-1.75-2.05-0.88-3.61,0.5-5.65c2.89-4.27,9.5-7.14,14.57-5.76c7.54,2.06,6.1,11.82,0.07,14.78
		c-3.32,1.62-7.52,1.3-10.69-0.54c-1.4-0.81-3.02-2.1-3.7-3.65c-0.17-1.08-0.34-2.17-0.51-3.25c4.01-1.96,4.96-2.05,2.85-0.29
		c1.31,0.53,2.63,1.07,3.94,1.6c0.04-0.92,0.09-1.84,0.13-2.76c-1.31,0.53-2.63,1.07-3.94,1.6c-3.27-0.67-0.71-5.47,1.79-5.88
		c2.79-0.46,4.31,0.95,4.02,3.6c-0.46,4.26-5.54,5.39-7.51,1.62c-4.48-8.54,8.41-11,12.03-3.33c0-1.17,0-2.35,0-3.52
		c-1.74,2.97-4.27,5.19-7.62,6.14c-1.21,0.34-2.54,0.54-3.8,0.48c-3.49-0.17-3.33-1.18-5.81-3.18
		C973.28,334.14,978.24,329.23,974.75,326.41L974.75,326.41z"/>
	<path class="st0" d="M931.7,359.42c-5.15,20.6,12.27,39.83,33.41,35.29c22-4.73,25.38-30.17,26.16-48.77c0.19-4.61-6.4-4.3-6.98,0
		c-2.33,17.43-2.82,50.63,17.55,58.71c8.69,3.45,18.43-0.19,24.63-6.73c7.61-8.02,9.5-19.28,10.78-29.83c0.54-4.45-6.44-4.41-6.98,0
		c-1.05,8.59-2.54,18.35-8.74,24.9c-6.09,6.43-15.74,8.43-22.29,1.54c-11.04-11.6-9.92-34.04-7.98-48.58c-2.33,0-4.65,0-6.98,0
		c-0.57,13.46-1.51,31.6-14.44,39.46c-16.72,10.17-35.97-5.97-31.43-24.13C939.52,356.92,932.79,355.06,931.7,359.42L931.7,359.42z"
		/>
	<path class="st0" d="M923.73,192.85c-3.19,14.58-3.65,29.6-0.61,44.26c1.79,8.66,6.95,19.99,17.61,18.81
		c10.47-1.15,14.34-13.57,16.25-22.18c3.38-15.26,3.39-30.86,0.62-46.21c-0.38-2.11-3.39-3.32-5.12-2.09
		c-6.9,4.9-14.24,8.53-22.36,10.93c1.13,1.94,2.26,3.89,3.39,5.83c2.48-2.36,5.23-3.2,8.59-2.99c-0.82-1.99-1.64-3.97-2.47-5.96
		c-6.41,7.01-10.77,15.05-12.98,24.3c-0.78,3.25,3.36,6.04,5.83,3.39c6.95-7.46,13.91-14.93,20.86-22.39
		c-1.64-1.64-3.29-3.29-4.93-4.93c-9.16,10.7-15.01,23.28-16.89,37.26c-0.49,3.61,4.26,6.46,6.38,2.69
		c5.03-8.96,10.06-17.91,15.08-26.87c-2.13-0.9-4.25-1.79-6.38-2.69c-4.53,11.7-9.07,23.4-13.6,35.11c-1.42,3.68,4.61,6.2,6.38,2.69
		c4.8-9.56,9.6-19.13,14.39-28.69c-2.17-0.59-4.33-1.17-6.5-1.76c-0.93,14.02-5.21,27.11-12.59,39.06c1.83-0.24,3.65-0.47,5.48-0.71
		c-12.93-16.73-8.2-39.92-3.94-58.87c-2.28-0.31-4.57-0.62-6.85-0.93c-0.05,7.36-0.67,14.98-0.06,22.31
		c0.33,3.99,1.98,8.15,6.24,9.16c11.15,2.63,16.43-19.36,18.52-26.46c-2.28-0.31-4.57-0.62-6.85-0.93
		c1.91,16.25-0.92,32.14-8.59,46.62c1.59-0.42,3.18-0.83,4.77-1.25c-1.92-1.18-2.9-2.79-2.94-4.84c-0.72-4.42-7.45-2.54-6.73,1.85
		c0.67,4.07,2.72,6.8,6.14,9.01c1.54,0.99,3.92,0.36,4.77-1.25c8.22-15.51,11.59-32.69,9.54-50.14c-0.44-3.72-5.66-4.96-6.85-0.93
		c-0.83,2.82-7.33,23.22-10.91,20.07c-1.24-1.09-0.18-8.73-0.17-10.43c0.03-4.27,0.05-8.53,0.08-12.8c0.02-3.86-5.98-4.83-6.85-0.93
		c-4.92,21.92-9.02,46.56,5.74,65.66c1.43,1.85,4.43,1,5.48-0.71c8.03-13,12.53-27.34,13.54-42.58c0.23-3.41-4.97-4.81-6.5-1.76
		c-4.8,9.56-9.6,19.13-14.39,28.69c2.13,0.9,4.25,1.79,6.38,2.69c4.53-11.7,9.07-23.4,13.6-35.11c1.44-3.73-4.48-6.07-6.38-2.69
		c-5.03,8.96-10.06,17.91-15.08,26.87c2.13,0.9,4.25,1.79,6.38,2.69c1.72-12.76,6.7-24.38,15.09-34.18
		c2.89-3.37-1.84-8.26-4.93-4.93c-6.95,7.46-13.91,14.93-20.86,22.39c1.94,1.13,3.89,2.26,5.83,3.39
		c1.94-8.08,5.57-15.08,11.19-21.22c2.11-2.3,0.57-5.76-2.47-5.96c-5.33-0.34-9.67,1.37-13.52,5.03c-2.52,2.39,0.08,6.81,3.39,5.83
		c8.68-2.57,16.65-6.39,24.03-11.64c-1.71-0.7-3.42-1.39-5.12-2.09c1.95,10.78,2.38,21.72,1.06,32.6
		c-0.88,7.29-2.17,22.4-9.85,26.32c-10.27,5.23-12.89-15.57-13.5-21.09c-1.2-10.91-0.46-21.82,1.88-32.52
		C931.42,190.33,924.7,188.46,923.73,192.85L923.73,192.85z"/>
	<path class="st0" d="M980.89,195.19c-4.6,14.46-6.46,31.28-2.24,46.08c2.58,9.04,9.55,19.19,20.28,17.09
		c11.2-2.19,14.93-15.63,17.48-25.07c3.68-13.63,5.83-27.64-0.4-40.84c-1.31-2.78-5.65-1.9-6.38,0.83
		c-4.21,15.82-9.49,31.28-15.94,46.33c2.13,0.9,4.25,1.79,6.38,2.69c3.01-14.53,6.01-29.06,9.02-43.59c0.8-3.84-4.19-6.1-6.38-2.69
		c-5.83,9.13-11.67,18.25-17.5,27.38c2.01,1.17,4.02,2.35,6.02,3.52c3.82-7.2,5.95-14.62,6.59-22.75c0.16-2.04-1.74-3.27-3.49-3.49
		c-3.88-0.49-6.6,0.64-9.38,3.32c1.83,1.41,3.65,2.82,5.48,4.23c2.25-4.86,2.83-9.38,1.82-14.64c-0.7-3.68-5.66-2.93-6.73,0
		c-6.83,18.71-12.9,45.12,8.43,57.11c1.8,1.01,4.73,0.2,5.12-2.08c2.86-16.64,4.65-33.39,5.3-50.26c0.12-3.14-3.84-4.44-5.96-2.47
		c-12.31,11.45-13.73,28.69-14.3,44.53c-0.1,2.87,4,4.8,5.96,2.47c9.42-11.23,13.21-24.98,11.01-39.46
		c-0.38-2.49-4.27-3.48-5.83-1.54c-6.13,7.63-10.2,16.01-12.04,25.65c2.24,0,4.49,0,6.73,0c-2.36-10.01,0.02-20.07,6.76-27.88
		c-1.99-0.82-3.97-1.64-5.96-2.47c0.22,7.81-0.16,15.54-1.16,23.29c-0.52,4.02,5.76,4.54,6.85,0.93c1.85-6.09,4.68-11.08,9-15.77
		c-1.94-0.51-3.89-1.03-5.83-1.54c6.18,15.5,5.04,32.32-3.46,46.72c-1.98,3.35,2.77,7.22,5.48,4.23
		c12.65-13.98,17.54-32.81,13.23-51.18c-0.96-4.09-6.48-2.76-6.85,0.93c-1.61,15.97-6.69,31.03-14.9,44.81c2.01,0,4.02,0,6.02,0
		c-9.24-15.66-0.39-34.16,7.17-48.62c-1.31,0.53-2.63,1.07-3.94,1.6c1.47,0.58,2.94,1.16,4.4,1.74c0.62-2.24,1.24-4.49,1.85-6.73
		c-1.97-0.36-3.95-0.71-5.92-1.07c-4.39-0.79-6.27,5.93-1.85,6.73c1.97,0.36,3.95,0.71,5.92,1.07c4.46,0.81,6.02-5.08,1.85-6.73
		c-1.47-0.58-2.94-1.16-4.4-1.74c-1.36-0.54-3.28,0.35-3.94,1.6c-8.81,16.87-17.84,37.58-7.17,55.66c1.34,2.27,4.68,2.25,6.02,0
		c8.86-14.87,14.12-31.12,15.86-48.33c-2.28,0.31-4.57,0.62-6.85,0.93c3.72,15.86-0.5,32.3-11.43,44.39
		c1.83,1.41,3.65,2.82,5.48,4.23c9.36-15.86,10.99-34.96,4.16-52.1c-0.91-2.28-3.88-3.65-5.83-1.54
		c-5.08,5.51-8.62,11.67-10.79,18.84c2.28,0.31,4.57,0.62,6.85,0.93c1-7.75,1.38-15.48,1.16-23.29c-0.08-2.82-3.89-4.86-5.96-2.47
		c-8.41,9.75-11.52,22.11-8.55,34.67c0.76,3.24,6.07,3.41,6.73,0c1.6-8.37,4.9-15.91,10.25-22.57c-1.94-0.51-3.89-1.03-5.83-1.54
		c1.8,11.8-1.55,23.53-9.21,32.67c1.99,0.82,3.97,1.64,5.96,2.47c0.5-13.97,1.36-29.46,12.25-39.6c-1.99-0.82-3.97-1.64-5.96-2.47
		c-0.62,16.25-2.29,32.38-5.05,48.41c1.71-0.7,3.42-1.39,5.12-2.09c-18.21-10.24-10.85-33.79-5.22-49.23c-2.24,0-4.49,0-6.73,0
		c0.63,3.33,0.31,6.18-1.12,9.27c-1.6,3.46,2.47,7.13,5.48,4.23c1.48-0.43,2.97-0.85,4.45-1.28c-1.16-1.16-2.33-2.33-3.49-3.49
		c-0.55,6.93-2.38,13.09-5.64,19.23c-2.11,3.98,3.6,7.31,6.02,3.52c5.83-9.13,11.67-18.25,17.5-27.38c-2.13-0.9-4.25-1.79-6.38-2.69
		c-3.01,14.53-6.01,29.06-9.02,43.59c-0.75,3.61,4.73,6.53,6.38,2.69c6.7-15.61,12.28-31.58,16.65-47.99
		c-2.13,0.28-4.25,0.56-6.38,0.83c4.65,9.86,3.33,20.64,0.87,30.91c-1.77,7.4-4.05,21.79-12.58,24.31
		c-10.62,3.13-13.74-13.69-14.44-20.74c-1.12-11.35,0.33-22.56,3.78-33.4C988.98,192.76,982.25,190.92,980.89,195.19L980.89,195.19z
		"/>
	<path class="st0" d="M1036.48,199.07c-4.58,14.6-6.16,29.92-4.18,45.12c1.37,10.53,5.29,23.56,18.55,21.91
		c11.9-1.48,16.97-13.7,19.46-23.9c3.61-14.8,3.2-30.13-0.64-44.83c-1.03-3.96-6.59-2.88-6.85,0.93
		c-1.32,19.19-5.81,37.77-13.21,55.52c2.28,0.31,4.57,0.62,6.85,0.93c-0.95-16.34,1.75-32.18,8.01-47.3
		c-2.24-0.62-4.49-1.24-6.73-1.85c-3.67,11.01-7.34,22.01-11,33.02c2.24,0.62,4.49,1.24,6.73,1.85
		c3.39-13.22,6.77-26.44,10.16-39.65c0.89-3.47-3.27-5.7-5.83-3.39c-8.99,8.09-14.96,18.52-17.34,30.39
		c-0.75,3.73,4.33,6.29,6.38,2.69c5.08-8.91,8.68-18.31,10.8-28.35c0.52-2.47-1.61-5.15-4.29-4.29
		c-6.94,2.22-11.76,7.31-13.14,14.53c-0.71,3.74,4.28,6.28,6.38,2.69c3.17-5.42,3.17-11.05,0.06-16.5
		c-1.56-2.73-5.44-1.92-6.38,0.83c-6.64,19.45-5.29,40.17,3.41,58.74c1.23,2.63,5.86,2.05,6.38-0.83
		c2.11-11.82,2.6-23.58,1.28-35.53c-0.41-3.72-5.7-4.96-6.85-0.93c-3.58,12.51-2.59,24.98,2.52,36.9c1.43,3.34,6.47,1.43,6.5-1.76
		c0.06-5.64,1.23-10.62,3.78-15.67c-2.13-0.9-4.25-1.79-6.38-2.69c-1.93,6.16-3.87,12.32-5.8,18.48c-0.91,2.89,2.57,5.51,5.12,3.94
		c16.26-10.01,23.81-30.36,17.63-48.51c-1.44-4.23-8.18-2.41-6.73,1.85c5.18,15.18-0.69,32.18-14.42,40.63
		c1.71,1.31,3.42,2.63,5.12,3.94c1.93-6.16,3.87-12.32,5.8-18.48c1.17-3.73-4.57-6.24-6.38-2.69c-3.09,6.1-4.66,12.34-4.74,19.19
		c2.17-0.59,4.33-1.17,6.5-1.76c-4.36-10.15-4.84-20.95-1.82-31.53c-2.28-0.31-4.57-0.62-6.85-0.93c1.25,11.3,0.97,22.47-1.03,33.67
		c2.13-0.28,4.25-0.56,6.38-0.83c-7.91-16.89-8.72-35.76-2.71-53.36c-2.13,0.28-4.25,0.56-6.38,0.83c1.82,3.18,1.79,6.29-0.06,9.45
		c2.13,0.9,4.25,1.79,6.38,2.69c0.91-4.79,3.57-8.15,8.27-9.66c-1.43-1.43-2.86-2.86-4.29-4.29c-1.99,9.47-5.3,18.27-10.09,26.68
		c2.13,0.9,4.25,1.79,6.38,2.69c2.17-10.81,7.34-19.92,15.54-27.31c-1.94-1.13-3.89-2.26-5.83-3.39
		c-3.39,13.22-6.77,26.44-10.16,39.65c-1.12,4.38,5.32,6.1,6.73,1.85c3.67-11.01,7.34-22.01,11-33.02c1.45-4.36-5.06-5.88-6.73-1.85
		c-6.47,15.64-9.24,32.26-8.26,49.16c0.24,4.13,5.37,4.48,6.85,0.93c7.65-18.33,12.1-37.57,13.46-57.37
		c-2.28,0.31-4.57,0.62-6.85,0.93c2.66,10.17,3.6,20.58,2.45,31.05c-0.99,9.03-3.34,25.1-13.47,28.47
		c-13.14,4.36-13.35-18.17-13.5-25.76c-0.21-10.94,1.52-21.64,4.79-32.06C1044.55,196.63,1037.82,194.8,1036.48,199.07
		L1036.48,199.07z"/>
	<path class="st0" d="M1147.44,362.18c13.02-4.56,26.31-4.23,39.11,0.89c4.17,1.67,5.98-5.08,1.85-6.73
		c-13.81-5.52-28.79-5.8-42.82-0.89C1141.37,356.93,1143.18,363.67,1147.44,362.18L1147.44,362.18z"/>
	<path class="st0" d="M1146.52,388.22c13.59,0.32,26.07,5.32,36.08,14.53c3.3,3.04,8.25-1.89,4.93-4.93
		c-11.37-10.46-25.56-16.21-41.02-16.57C1142.02,381.13,1142.03,388.11,1146.52,388.22L1146.52,388.22z"/>
	<path class="st0" d="M1141.65,411.23c10.09,3.6,18.12,10.71,23.17,20.12c2.13,3.96,8.15,0.44,6.02-3.52
		c-5.93-11.05-15.56-19.12-27.34-23.33C1139.27,402.98,1137.44,409.72,1141.65,411.23L1141.65,411.23z"/>
	<path class="st0" d="M754.91,349.34c15.27-6.18,31.97-6.38,47.2,0.12c4.08,1.74,7.64-4.27,3.52-6.02
		c-16.93-7.22-35.44-7.75-52.58-0.82C748.95,344.27,750.74,351.02,754.91,349.34L754.91,349.34z"/>
	<path class="st0" d="M772.47,374.01c9.5-5.64,19.73-8.3,30.76-8.02c4.49,0.11,4.49-6.86,0-6.98c-12.19-0.31-23.81,2.75-34.28,8.97
		C765.09,370.28,768.59,376.32,772.47,374.01L772.47,374.01z"/>
	<path class="st0" d="M775.76,402.97c11.13-8.9,23.9-14.93,37.77-18.13c4.37-1.01,2.52-7.74-1.85-6.73
		c-15.1,3.49-28.75,10.26-40.84,19.93C767.32,400.84,772.28,405.75,775.76,402.97L775.76,402.97z"/>
</g>
<path class="st0" d="M152.59,441.39c0.83,20.75,2.71,42.75,13.68,60.94c12.54,20.79,34.75,30.12,57.7,34.54
	c28.04,5.4,57.09,7.32,85.58,8.43c30.35,1.18,60.77,0.57,91.05-1.84c24.96-1.99,54.08-2.8,74.79-18.7
	c15.94-12.23,22.63-31.33,24.62-50.7c2.64-25.64-0.92-52.15-2.37-77.78c-1.75-31.07-3.5-62.14-5.25-93.21
	c-3.97-70.36-7.93-140.72-11.9-211.08c-0.16-2.77-3.77-4.8-5.87-2.43c-16.09,18.16-32.18,36.33-48.27,54.49
	c-8.05,9.08-16.08,18.17-24.14,27.25c-3.17,3.57-6.34,7.39-10.58,9.73c-5.48,3.03-12.19,3.04-18.27,3.45
	c-48.77,3.34-97.54,6.62-146.3,9.93c1.1,0.84,2.21,1.68,3.31,2.52c-12.14-41.16-37.04-77.13-69.2-105.26c-3.3-2.89-8,1.68-4.86,4.86
	c1.93,1.96,1.03,9.42,0.93,12.24c-0.28,7.73-1.15,15.45-2.06,23.13c-1.88,15.89-4.48,31.71-5.92,47.65
	c-0.65,7.2-0.05,13.94,0.49,21.17c1.13,15.26,1.82,30.55,2.21,45.85c0.79,30.66,0.41,61.33,0.06,91.99
	C151.66,372.85,151.33,407.13,152.59,441.39c0.16,4.41,7.04,4.43,6.87,0c-2.34-63.12,0.89-126.27-0.47-189.41
	c-0.33-15.3-0.93-30.6-1.96-45.87c-0.59-8.75-1.68-17.27-0.92-26.01c1.43-16.37,4.14-32.62,6.05-48.94c0.99-8.51,2-17.1,2.05-25.67
	c0.02-4.35,0.3-10.43-3.02-13.81c-1.62,1.62-3.24,3.24-4.86,4.86c31.29,27.38,55.61,62.15,67.43,102.23
	c0.4,1.37,1.81,2.63,3.31,2.52c26.19-1.78,52.38-3.55,78.57-5.33c24.96-1.69,50.11-2.61,74.99-5.13
	c9.22-0.94,16.46-4.02,22.91-10.73c8.36-8.71,16.09-18.1,24.1-27.13c17.28-19.51,34.57-39.02,51.85-58.53
	c-1.96-0.81-3.91-1.62-5.87-2.43c6.54,116.05,13.11,232.1,19.62,348.15c1.12,19.96,1.92,41.57-6.85,60.11
	c-11.03,23.31-34.95,30.68-58.82,33.68c-55.78,7.01-112.9,6.73-168.76,0.83c-26.81-2.83-59.14-5.2-78.97-25.85
	c-17.11-17.82-19.46-44.08-20.4-67.53C159.29,436.99,152.42,436.96,152.59,441.39z"/>
<path class="st0" d="M331.86,343.06c-9.22-2.72-22.2,0.96-24.75,11.42c-2.81,11.53,11.81,14.14,20.08,12.49
	c8.43-1.69,21.44-10.87,15.44-20.91c-5.38-8.99-19.19-6.01-25.95-0.72c-6.79,5.32-11.75,18.59,0.49,20.61
	c7.09,1.17,20.91-7.05,18.17-15.58c-2.84-8.85-16.99-5.39-19.21,2.13c-2.46,8.32,7.93,15.89,13.96,8.42
	c6.9-8.56-7.86-16.15-11.57-6.99c-1.67,4.13,1.55,8.08,5.64,8.78c5.29,0.91,8.78-3.12,11.5-7.01c0.95-1.36,0.36-3.02-0.54-4.17
	c-3.12-4-9.03-3.97-12.28-0.16c-0.99,1.17-1.36,2.78-0.54,4.17c1.59,2.66,3.6,3.3,6.57,2.85c4.36-0.66,2.51-7.29-1.83-6.63
	c0.4,0.1,0.8,0.21,1.2,0.31c-0.18,1.39-0.36,2.78-0.54,4.17c0.85,0.05,1.7,0.11,2.55,0.16c-0.18-1.39-0.36-2.78-0.54-4.17
	c-1.08,1.54-4.38,5.23-6.7,4.27c-2.13-0.88,2.31-5.32,4.18-4.42c3.74,1.81-5.27,6.59-6.99,6.94c-4.15,0.86-3.84-3.37-1.8-5.88
	c1.08-1.32,2.41-2.44,3.84-3.35c3.25-2.08,7.92-3.43,11.7-2.03c5.7,2.11,1.4,8.04-2.12,10.16c-3.45,2.08-7.6,3.04-11.62,2.65
	c-2.69-0.27-7.42-1.04-5.97-5.71c0.57-1.84,2.96-3.42,4.52-4.27c3.54-1.92,7.48-2.02,11.27-0.9
	C334.29,350.94,336.1,344.31,331.86,343.06L331.86,343.06z"/>
<path class="st0" d="M314.96,364.43c3.27,9.48,2.5,21.28-7.14,26.79c-9.22,5.27-22.37-1.24-19.21-12.8c1.17-4.27-5.46-6.1-6.63-1.83
	c-3.85,14.12,9.49,26.4,23.31,23.01c16.53-4.05,21.29-22.51,16.3-37C320.15,358.45,313.51,360.24,314.96,364.43L314.96,364.43z"/>
<path class="st0" d="M318.07,371.2c1.83,11.48,5.92,24.88,18.75,28.04c12.23,3.01,19.64-8.13,24.05-17.67
	c1.85-3.99-4.08-7.48-5.94-3.47c-3.4,7.33-9.1,18.33-18.99,13.54c-8.23-3.98-9.96-14.19-11.25-22.28
	C324,365.01,317.38,366.86,318.07,371.2L318.07,371.2z"/>
<path class="st0" d="M393.96,262.29c-2.35,11.29-0.52,22.4,5.56,32.22c1.42,2.3,4.48,2.13,5.94,0c9.43-13.85,9.52-32.12,0.28-46.08
	c-1.1-1.66-3.93-2.53-5.4-0.7c-10.24,12.73-11.45,30.52-2.21,44.19c1.31,1.94,4.77,2.52,5.94,0c4.32-9.35,12.51-32.94-1.82-37.98
	c-1.6-0.56-3.98,0.65-4.23,2.4c-1.11,7.8-0.75,15.19,1.34,22.79c0.63,2.28,4.08,3.61,5.74,1.52c4-5.03,4.72-11.07,1.18-16.6
	c-1.26-1.96-4.82-2.5-5.94,0c-2.23,5.02-2.74,9.72-1.28,15.04c1.17,4.26,7.8,2.45,6.63-1.83c-0.96-3.51-0.91-6.38,0.59-9.75
	c-1.98,0-3.96,0-5.94,0c1.69,2.64,1.99,5.64-0.1,8.27c1.91,0.51,3.83,1.01,5.74,1.52c-1.76-6.37-2.28-12.58-1.34-19.13
	c-1.41,0.8-2.82,1.6-4.23,2.4c7.7,2.71-0.32,23.63-2.29,27.88c1.98,0,3.96,0,5.94,0c-7.37-10.92-7.23-25.47,1.13-35.86
	c-1.8-0.23-3.6-0.46-5.4-0.7c7.99,12.07,7.86,27.19-0.28,39.14c1.98,0,3.96,0,5.94,0c-5.11-8.26-6.85-17.39-4.87-26.93
	C401.48,259.8,394.86,257.95,393.96,262.29L393.96,262.29z"/>
<path class="st0" d="M233.94,261.12c-4.45,6.7-6.4,14.62-5.03,22.61c0.9,5.24,3.88,14.09,10.84,12.78
	c6.14-1.16,7.58-10.83,8.21-15.77c1.06-8.39-0.63-16.51-4.33-24.06c-1.23-2.51-4.58-1.94-5.94,0c-7.93,11.32-10.45,24.87-7.5,38.34
	c0.46,2.11,3.25,3.22,5.05,2.05c10.06-6.52,13.27-19.92,6.75-30.13c-1.28-2.01-3.65-2.12-5.4-0.7c-4.74,3.88-6.35,9.82-4.32,15.59
	c1.05,2.99,4.48,3.17,6.28,0.82c2.17-2.82,2.97-5.49,3.12-9.02c0.12-2.77-4-4.81-5.87-2.43c-3.61,4.59-4.83,9.7-2.65,15.27
	c1.59,4.08,8.24,2.3,6.63-1.83c-1.16-2.97-1.23-5.89,0.88-8.58c-1.96-0.81-3.91-1.62-5.87-2.43c0.03,2.21-0.7,4.06-2.18,5.55
	c2.09,0.27,4.19,0.55,6.28,0.82c-1.27-3.62-0.41-6.48,2.56-8.9c-1.8-0.23-3.6-0.46-5.4-0.7c4.43,6.95,2.75,16.16-4.28,20.73
	c1.68,0.68,3.37,1.37,5.05,2.05c-2.58-11.76-0.08-23.21,6.81-33.04c-1.98,0-3.96,0-5.94,0c2.02,4.12,3.36,8.46,3.67,13.05
	c0.22,3.24,0.71,10.66-1.69,13.25c-3.45,3.72-4.39-6.06-4.31-8.52c0.16-4.96,1.8-9.24,4.52-13.33
	C242.34,260.9,236.39,257.45,233.94,261.12L233.94,261.12z"/>
<path class="st0" d="M260.43,196.55c9.2,4.12,7.01,17.54,11.48,25.26c3.59,6.19,9.65,10.82,16.43,13.02
	c6.74,2.19,13.91,1.84,20.36-1.09c10.27-4.68,17.1-12.71,29.36-10.26c8.71,1.74,16.4,4.16,25.28,1.88
	c7.28-1.88,14.05-6.2,18.97-11.86c6.48-7.46,15.49-30.64-1.23-32.15c-1.07-0.1-2.54,0.7-2.97,1.7
	c-4.83,11.26-11.36,21.29-19.81,30.17c1.8,1.39,3.6,2.78,5.4,4.17c4.25-6.5,9.15-12.35,14.75-17.72c-1.8-1.39-3.6-2.78-5.4-4.17
	c-5.6,7.68-12.07,14.45-19.37,20.52c1.62,1.62,3.24,3.24,4.86,4.86c5.98-7.07,12.78-12.89,20.73-17.64c-1.57-1.57-3.14-3.14-4.7-4.7
	c-4.82,6.47-9.63,12.95-14.45,19.42c1.98,1.16,3.96,2.31,5.94,3.47c4.58-6.9,9.91-12.98,16.07-18.51c-1.62-1.62-3.24-3.24-4.86-4.86
	c-6.38,7.01-13.2,13.51-20.5,19.55c1.8,1.39,3.6,2.78,5.4,4.17c4.13-7.66,8.25-15.33,12.38-22.99c1.53-2.84-1.71-6.73-4.7-4.7
	c-8.49,5.75-16.98,11.51-25.47,17.26c1.39,1.8,2.78,3.6,4.17,5.4c5.35-6.21,10.71-12.42,16.06-18.63c2.37-2.75-0.79-7.83-4.17-5.4
	c-8.77,6.32-17.54,12.65-26.31,18.97c1.39,1.8,2.78,3.6,4.17,5.4c5.78-6.1,11.56-12.19,17.34-18.29c2.61-2.75-0.77-7.57-4.17-5.4
	c-11.06,7.09-22.12,14.18-33.17,21.27c1.39,1.8,2.78,3.6,4.17,5.4c9.29-7.46,17.92-15.58,25.94-24.39c2.48-2.73-0.85-7.81-4.17-5.4
	c-12.38,9.02-24.76,18.04-37.15,27.06c1.39,1.8,2.78,3.6,4.17,5.4c7.52-6.25,14.3-13.14,20.42-20.76c2.27-2.82-0.61-7.66-4.17-5.4
	c-8.98,5.71-17.96,11.42-26.94,17.13c1.39,1.8,2.78,3.6,4.17,5.4c4.56-5.17,9.12-10.35,13.68-15.52c2.12-2.4,0.13-6.89-3.34-5.74
	c-9.03,2.98-16.9,7.69-23.77,14.26c-2.75,2.62,0.99,7.79,4.17,5.4c5.24-3.93,8.04-8.98,8.18-15.59c0.06-2.75-2.93-4.09-5.17-2.97
	c-5.81,2.89-11.7,5.47-17.78,7.76c1.45,1.1,2.9,2.21,4.35,3.31c0.05-2.89,0.06-5.77,0.04-8.66c-0.01-1.8-1.57-3.52-3.44-3.44
	c-10.7,0.47-17.69,11.57-12.29,21.24c6.01,10.76,19.73,10.08,27.81,2.25c-1.91-0.51-3.83-1.01-5.74-1.52
	c1.64,7.59,11.02,11.36,17.3,6.55c-1.39-1.8-2.78-3.6-4.17-5.4c-3.12,2.63-6.41,4.85-9.95,6.86c1.68,1.29,3.37,2.59,5.05,3.88
	c0.41-1.57,0.81-3.14,1.22-4.71c0.43-1.67-0.54-3.9-2.4-4.23c-1.67-0.3-3.04-0.44-4.71-0.41c-4.1,0.09-5.33,0.16-2.93-4.58
	c2.42-4.76,7.47-9.5,10.76-13.7c1.89-2.4,0.27-7-3.34-5.75c-2.55,0.89-4.62,1.99-6.69,3.76c-1.29,1.1-2.4,2.39-3.64,3.54
	c-0.31,0.29-7.93,6.72-6.99,0.84c0.22-1.37,8.96-2.89,10.29-3.22c4.72-1.14,9.47-1.94,14.3-2.47c-0.58-2.13-1.16-4.27-1.73-6.41
	c-6.09,3.73-11.62,8.06-16.72,13.06c-2.8,2.75,0.77,7.33,4.17,5.4c11.34-6.46,23.08-12,35.31-16.57c-1.11-1.91-2.23-3.83-3.34-5.74
	c-4.82,5.26-10.01,10.06-15.64,14.44c-3.29,2.57,0.9,6.91,4.17,5.4c8.68-4.01,16.93-8.68,24.83-14.05
	c-1.16-1.98-2.31-3.96-3.47-5.94c-5.67,4.23-10.72,8.93-15.2,14.42c-2.12,2.6-0.19,6.57,3.34,5.74c9.5-2.23,18.71-5.21,27.72-8.97
	c-1.29-1.68-2.59-3.37-3.88-5.05c-2.26,3.93-4.52,7.86-6.79,11.78c-1.76,3.05,1.71,6.3,4.7,4.7c2.74-2.03,5.81-2.04,9.23-0.03
	c-0.47,2.68,2.34,5.72,5.05,3.88c10.94-7.42,20.19-16.5,27.84-27.29c-2.09-0.27-4.19-0.55-6.28-0.82c2.08,6.49,1.1,12.93-3.3,18.23
	c1.39-0.18,2.78-0.36,4.17-0.54c-1.97-1.38-3.94-2.76-5.91-4.14c-3.63-2.54-7.07,3.41-3.47,5.94c1.97,1.38,3.94,2.76,5.91,4.14
	c1.14,0.8,3.26,0.56,4.17-0.54c5.95-7.16,7.93-15.99,5.07-24.92c-0.95-2.96-4.58-3.22-6.28-0.82c-6.95,9.8-15.42,18.07-25.37,24.82
	c1.68,1.29,3.37,2.59,5.05,3.88c0.72-4.1-0.6-7.64-4.38-9.78c-4.99-2.82-10.36-0.4-14.95,2.05c1.57,1.57,3.14,3.14,4.7,4.7
	c2.26-3.93,4.52-7.86,6.79-11.78c1.35-2.35-0.97-6.26-3.88-5.05c-9.01,3.76-18.22,6.74-27.72,8.97c1.11,1.91,2.23,3.83,3.34,5.75
	c4.09-5.01,8.61-9.47,13.8-13.34c3.47-2.58,0.25-8.46-3.47-5.94c-7.91,5.37-16.16,10.04-24.83,14.05c1.39,1.8,2.78,3.6,4.17,5.4
	c5.63-4.39,10.82-9.18,15.64-14.44c2.13-2.33,0.08-7.03-3.34-5.74c-12.77,4.78-25.1,10.51-36.95,17.26c1.39,1.8,2.78,3.6,4.17,5.4
	c4.68-4.6,9.73-8.55,15.32-11.99c2.68-1.64,1.84-6.8-1.73-6.41c-8.12,0.9-16.4,2.23-24.13,4.98c-4.4,1.56-9.17,4.38-8.57,9.78
	c0.52,4.7,5.5,7.72,9.95,7.44c7.67-0.49,10.64-8.82,17.31-11.14c-1.11-1.91-2.23-3.83-3.34-5.75c-3.86,4.92-7.73,9.83-11.59,14.75
	c-1.97,2.51-4.54,5.13-4.31,8.58c0.56,8.59,10.55,5.91,15.82,6.84c-0.8-1.41-1.6-2.82-2.4-4.23c-0.41,1.57-0.81,3.14-1.22,4.71
	c-0.75,2.91,2.42,5.37,5.05,3.88c4.07-2.3,7.77-4.93,11.34-7.93c2.95-2.48-1.06-7.78-4.17-5.4c-2.81,2.15-6.41,1.2-7.2-2.44
	c-0.56-2.6-3.98-3.23-5.74-1.52c-4.22,4.09-10.75,5.87-15.28,1.23c-4.53-4.65-2.66-12.67,4.62-12.99c-1.15-1.15-2.29-2.29-3.44-3.44
	c0.02,2.89,0,5.77-0.04,8.66c-0.03,2.08,2.25,4.1,4.35,3.31c6.62-2.49,13.09-5.29,19.42-8.45c-1.72-0.99-3.45-1.98-5.17-2.97
	c-0.09,4.01-1.53,7.21-4.78,9.65c1.39,1.8,2.78,3.6,4.17,5.4c6.02-5.75,12.83-9.88,20.74-12.49c-1.11-1.92-2.23-3.83-3.34-5.75
	c-4.56,5.17-9.12,10.35-13.68,15.52c-2.46,2.79,0.7,7.6,4.17,5.4c8.98-5.71,17.96-11.42,26.94-17.13c-1.39-1.8-2.78-3.6-4.17-5.4
	c-6.12,7.62-12.9,14.51-20.42,20.76c-2.97,2.47,1,7.7,4.17,5.4c12.38-9.02,24.76-18.04,37.15-27.06c-1.39-1.8-2.78-3.6-4.17-5.4
	c-8.02,8.82-16.65,16.93-25.94,24.39c-3.05,2.45,0.91,7.49,4.17,5.4c11.06-7.09,22.12-14.18,33.17-21.27
	c-1.39-1.8-2.78-3.6-4.17-5.4c-5.78,6.1-11.56,12.19-17.34,18.29c-2.57,2.71,0.87,7.77,4.17,5.4c8.77-6.32,17.54-12.65,26.31-18.97
	c-1.39-1.8-2.78-3.6-4.17-5.4c-5.35,6.21-10.71,12.42-16.06,18.63c-2.39,2.77,0.73,7.73,4.17,5.4c8.49-5.75,16.98-11.51,25.47-17.26
	c-1.57-1.57-3.14-3.14-4.7-4.7c-4.13,7.66-8.25,15.33-12.38,22.99c-1.92,3.57,2.45,6.6,5.4,4.17c7.3-6.04,14.12-12.54,20.5-19.55
	c2.99-3.28-1.56-7.82-4.86-4.86c-6.59,5.91-12.25,12.53-17.15,19.9c-2.49,3.75,3.35,6.94,5.94,3.47
	c4.82-6.47,9.63-12.95,14.45-19.42c2.13-2.86-1.93-6.36-4.7-4.7c-8.42,5.03-15.78,11.22-22.12,18.71c-2.88,3.4,1.46,7.7,4.86,4.86
	c7.76-6.46,14.49-13.76,20.44-21.91c2.36-3.24-2.67-6.78-5.4-4.17c-6.03,5.78-11.25,12.12-15.83,19.11
	c-2.14,3.27,2.72,6.98,5.4,4.17c8.82-9.27,15.83-19.8,20.88-31.57c-0.99,0.57-1.98,1.13-2.97,1.7c4.16,0.38,2.52,8.31,1.89,10.43
	c-1.08,3.64-3.07,7.09-5.52,9.98c-4.52,5.33-10.9,9.19-17.78,10.52c-7.83,1.51-15.05-1.66-22.67-2.82c-6.58-1-12.38,0.25-18.17,3.43
	c-5.9,3.23-11.34,8.28-18.17,9.41c-7.06,1.17-14.55-1.6-19.57-6.59c-9.1-9.06-4.02-26.06-17.19-31.96
	C259.89,188.82,256.39,194.74,260.43,196.55L260.43,196.55z"/>
<path class="st0" d="M382.02,358.15c11.87-6.73,24.41-11.62,37.69-14.76c4.3-1.02,2.48-7.65-1.83-6.63
	c-13.84,3.27-26.97,8.44-39.33,15.45C374.7,354.39,378.16,360.33,382.02,358.15L382.02,358.15z"/>
<path class="st0" d="M383.06,379.35c7.98-0.96,15.73,0.1,23.03,3.52c3.98,1.87,7.48-4.06,3.47-5.94c-8.38-3.93-17.28-5.56-26.5-4.46
	C378.72,372.99,378.67,379.87,383.06,379.35L383.06,379.35z"/>
<path class="st0" d="M382.81,399.24c8.11,5.63,15.17,12.44,21.22,20.24c2.71,3.49,7.54-1.41,4.86-4.86
	c-6.42-8.28-14.01-15.35-22.61-21.31C382.64,390.77,379.2,396.73,382.81,399.24L382.81,399.24z"/>
<path class="st0" d="M268.17,348.93c-13.28-5.74-27.25-7.08-41.35-3.71c-4.3,1.03-2.48,7.66,1.83,6.63
	c12.17-2.91,24.53-1.96,36.05,3.01C268.72,356.6,272.23,350.68,268.17,348.93L268.17,348.93z"/>
<path class="st0" d="M262.05,372.43c-11.17-1.08-21.92,1.02-31.99,5.9c-3.98,1.93-0.5,7.86,3.47,5.94
	c9.01-4.37,18.57-5.93,28.52-4.96C266.45,379.73,266.42,372.85,262.05,372.43L262.05,372.43z"/>
<path class="st0" d="M259.82,392.55c-12.82,7.01-23.57,16.63-32.14,28.44c-2.6,3.59,3.36,7.02,5.94,3.47
	c7.87-10.85,17.93-19.55,29.68-25.98C267.17,396.36,263.71,390.42,259.82,392.55L259.82,392.55z"/>
<path class="st0" d="M484.68,319.81c-11.51-4.65-20.62,9.7-21.64,19.45c-0.63,6.06,1.23,10.54,3.57,15.93
	c2.52,5.82,1.06,8.71-2.78,13.23c-2.74,3.23-5.76,6.22-8.46,9.5c-6.99,8.5-12.58,21.51-4.94,31.49
	c9.85,12.89,33.76,5.84,39.43,23.63c1.34,4.2,7.98,2.4,6.63-1.83c-3.21-10.06-11.89-15.3-21.53-18.28
	c-6.38-1.97-16.7-2.55-20.1-9.28c-3.48-6.88,0.72-14.94,4.95-20.32c5.55-7.04,17.46-15.47,15.29-25.84
	c-1.09-5.22-5.07-8.95-5.34-14.54c-0.27-5.85,4.42-20.04,13.09-16.53C486.96,328.1,488.74,321.45,484.68,319.81L484.68,319.81z"/>
<path class="st0" d="M495,431.75c1.07-3.47,2.13-6.95,3.2-10.42c0.82-2.66-2.59-5.73-5.05-3.88c-1.79,1.35-3.05,2.61-4.2,4.55
	c2.14,0.58,4.27,1.16,6.41,1.73c0.04-5.45,0.99-10.55,3.13-15.58c1.37-3.22-2.67-7.48-5.4-4.17c-3.6,4.37-7.21,8.74-10.81,13.11
	c1.8,1.39,3.6,2.78,5.4,4.17c2.95-6.92,5.45-13.95,7.46-21.2c0.92-3.34-3.3-5.72-5.74-3.34c-3.57,3.47-7.13,6.94-10.7,10.41
	c1.8,1.39,3.6,2.78,5.4,4.17c3.79-7.09,6.92-14.41,9.45-22.04c1.15-3.46-3.34-5.48-5.74-3.34c-6.41,5.71-12.81,11.42-19.22,17.12
	c1.8,1.39,3.6,2.78,5.4,4.17c4.83-8.01,9.67-16.02,14.5-24.03c2.03-3.36-2.63-6.91-5.4-4.17c-7,6.95-14,13.9-21,20.85
	c1.8,1.39,3.6,2.78,5.4,4.17c6.26-9.32,12.51-18.65,18.77-27.97c2.27-3.39-2.61-6.65-5.4-4.17c-9.54,8.48-19.08,16.96-28.62,25.44
	c1.8,1.39,3.6,2.78,5.4,4.17c6.43-9.67,12.85-19.35,19.28-29.02c1.85-2.78-1.9-6.7-4.7-4.7c-8,5.7-14.6,12.52-20,20.74
	c-2.1,3.21,2.98,7.27,5.4,4.17c3.16-4.05,6.32-8.1,9.49-12.15c-1.91-1.11-3.83-2.23-5.74-3.34c-2.88,9.6-13.28,16.71-10.77,27.81
	c2.03,8.99,13.3,11.74,21.34,10.38c7.58-1.29,12.02-7.44,14.65-14.21c4.51-11.59,6.08-24.75,8.75-36.86
	c0.65-2.94-2.35-5.35-5.05-3.88c-3.7,2.01-7.43,3.93-11.22,5.78c1.72,0.99,3.45,1.98,5.17,2.97c0.16-4.22,1.34-7.64,4.04-10.96
	c-1.8-1.39-3.6-2.78-5.4-4.17c-2.39,3.89-5.12,7.32-8.37,10.52c1.8,1.39,3.6,2.78,5.4,4.17c3.84-9.02,6.77-18.2,8.69-27.82
	c0.51-2.57-2.44-5.88-5.05-3.88c-2.83,2.17-5.01,4.43-6.9,7.48c1.98,1.16,3.96,2.31,5.94,3.47c2.89-5.51,5.2-11.16,6.98-17.12
	c0.88-2.96-2.49-5.28-5.05-3.88c-4.89,2.67-8.92,6-12.41,10.35c1.91,1.11,3.83,2.23,5.74,3.34c1.9-5.29,3.8-10.58,5.7-15.87
	c1.37-3.8-4.26-5.79-6.28-2.65c-4.05,6.29-7.22,12.9-9.67,19.96c-0.47,1.35,0.29,3.24,1.58,3.88c2.4,1.2,3.32,1.44,6,1.63
	c4.41,0.31,4.4-6.56,0-6.87c-0.84-0.23-1.69-0.46-2.53-0.69c0.53,1.29,1.05,2.59,1.58,3.88c2.26-6.51,5.24-12.53,8.97-18.32
	c-2.09-0.88-4.19-1.77-6.28-2.65c-1.9,5.29-3.8,10.58-5.7,15.87c-1.13,3.13,3.6,6.01,5.74,3.34c3.12-3.89,6.63-6.87,11.02-9.27
	c-1.68-1.29-3.37-2.59-5.05-3.88c-1.61,5.39-3.67,10.49-6.29,15.48c-2.05,3.91,3.6,7.24,5.94,3.47c1.08-2.03,2.55-3.7,4.43-5.01
	c-1.68-1.29-3.37-2.59-5.05-3.88c-1.79,9-4.4,17.72-8,26.18c-1.44,3.38,2.4,7.12,5.4,4.17c3.69-3.63,6.74-7.5,9.45-11.91
	c1.99-3.25-2.89-7.25-5.4-4.17c-3.86,4.74-5.82,9.68-6.06,15.82c-0.11,2.78,2.95,4.05,5.17,2.97c3.78-1.85,7.52-3.77,11.22-5.78
	c-1.68-1.29-3.37-2.59-5.05-3.88c-1.79,8.11-3.58,16.22-5.37,24.33c-1.35,6.11-2.45,13.74-6.86,18.54
	c-6.3,6.87-22.22,3.01-18.5-7.93c2.27-6.68,7.95-11.49,10.02-18.41c0.93-3.09-3.57-6.13-5.74-3.34c-3.16,4.05-6.32,8.1-9.49,12.15
	c1.8,1.39,3.6,2.78,5.4,4.17c4.72-7.2,10.52-13.27,17.53-18.27c-1.57-1.57-3.14-3.14-4.7-4.7c-6.43,9.67-12.85,19.35-19.28,29.02
	c-2.25,3.39,2.6,6.65,5.4,4.17c9.54-8.48,19.08-16.96,28.62-25.44c-1.8-1.39-3.6-2.78-5.4-4.17c-6.26,9.32-12.51,18.65-18.77,27.97
	c-2.21,3.29,2.68,6.87,5.4,4.17c7-6.95,14-13.9,21-20.85c-1.8-1.39-3.6-2.78-5.4-4.17c-4.83,8.01-9.67,16.02-14.5,24.03
	c-2.08,3.45,2.56,6.7,5.4,4.17c6.41-5.71,12.81-11.42,19.22-17.12c-1.91-1.11-3.83-2.23-5.74-3.34c-2.34,7.07-5.25,13.83-8.76,20.4
	c-1.82,3.41,2.54,6.94,5.4,4.17c3.57-3.47,7.13-6.94,10.7-10.41c-1.91-1.11-3.83-2.23-5.75-3.34c-1.84,6.67-4.05,13.19-6.76,19.56
	c-1.37,3.22,2.67,7.48,5.4,4.17c3.6-4.37,7.21-8.74,10.81-13.11c-1.8-1.39-3.6-2.78-5.4-4.17c-2.63,6.18-4.02,12.32-4.07,19.05
	c-0.02,3.43,4.68,4.65,6.41,1.73c0.58-0.69,1.15-1.39,1.73-2.08c-1.68-1.29-3.37-2.59-5.05-3.88c-1.07,3.47-2.13,6.95-3.2,10.42
	C487.07,434.16,493.7,435.97,495,431.75L495,431.75z"/>
<path class="st0" d="M151.17,339.36c4.02,5.53,9.5,8.33,15.24,11.77c3.96,2.37,7.83,5.08,9.21,9.76c1.44,4.91-0.1,10.23-1.4,14.97
	c-4.2,15.28-6.3,29.58,3.78,43.24c8.24,11.18,38.75,21.8,27.66,39.49c-5.78,9.23-17.59,10.42-27.46,9.73
	c-6.92-0.49-13.98-2.91-19.66,2.24c-3.28,2.98,1.59,7.83,4.86,4.86c3.47-3.16,13.08-0.24,17.2-0.09c4.27,0.16,8.59-0.05,12.77-0.98
	c7.3-1.62,14.22-5.83,18.22-12.29c10.02-16.2-4.96-28.84-17.24-37.27c-8.99-6.17-15.54-14.05-16.97-25.19
	c-1.32-10.36,3.65-19.46,5.18-29.46c1.12-7.32-0.16-14.43-5.59-19.78c-5.88-5.79-14.93-7.68-19.87-14.47
	C154.53,332.35,148.56,335.78,151.17,339.36L151.17,339.36z"/>
<path class="st0" d="M163.33,349.98c-4.44,4.73-6.75,9.95-7.55,16.36c-0.41,3.31,3.86,4.04,5.87,2.43
	c3.73-3.01,6.75-6.34,9.52-10.23c-1.98-1.16-3.96-2.31-5.94-3.47c-4.55,6.43-7.59,13.4-9.23,21.11c-0.75,3.51,3.1,5.51,5.74,3.34
	c4.4-3.61,8.79-7.21,13.19-10.82c-1.8-1.39-3.6-2.78-5.4-4.17c-5.04,9.98-9.43,20.23-13.18,30.76c-1.25,3.51,3.37,5.37,5.74,3.34
	c6.36-5.41,11.44-11.77,15.32-19.17c-2.09-0.88-4.19-1.77-6.28-2.65c-3.52,13.4-8.11,26.41-13.89,39c-1.82,3.97,3.98,7.48,5.94,3.47
	c3.08-6.29,6.78-11.96,11.42-17.23c-1.96-0.81-3.91-1.62-5.87-2.43c-1.42,11.01-4.5,21.61-9.14,31.69c-1.52,3.31,2.56,7.24,5.4,4.17
	c3.94-4.27,7.88-8.55,11.83-12.82c-1.92-1.11-3.83-2.23-5.75-3.34c-3.4,10.76-8.3,20.69-14.69,29.97c-2.19,3.18,2.89,7.17,5.4,4.17
	c5.85-6.99,11.69-13.98,17.54-20.96c-1.8-1.39-3.6-2.78-5.4-4.17c-4.48,8.88-8.96,17.77-13.44,26.65c-1.69,3.35,2.58,7.12,5.4,4.17
	c7.72-8.07,15.45-16.15,23.17-24.22c-1.8-1.39-3.6-2.78-5.4-4.17c-5.39,10.49-11.3,20.66-17.75,30.54c-2.1,3.21,2.94,7.25,5.4,4.17
	c8.13-10.2,16.8-19.9,26.01-29.14c-1.8-1.39-3.6-2.78-5.4-4.17c-6.43,10.21-12.87,20.42-19.3,30.63c-2.08,3.31,2.69,6.97,5.4,4.17
	c7.12-7.36,14.23-14.71,21.35-22.07c-1.91-1.11-3.83-2.23-5.75-3.34c-2.42,6.65-5.65,12.7-9.71,18.49c-2.22,3.16,2.97,7.23,5.4,4.17
	c5.44-6.87,11.5-13.02,18.28-18.57c-1.96-0.81-3.91-1.62-5.87-2.43c-0.6,5.86-2.73,11.04-6.46,15.63c-2.74,3.37,1.86,8.21,4.86,4.86
	c3.14-3.49,6.28-6.99,9.42-10.48c-1.91-1.11-3.83-2.23-5.74-3.34c-0.88,5.02-2.25,9.72-4.39,14.36c2.09,0.27,4.19,0.55,6.28,0.82
	c-0.86-2.5-1.72-4.99-2.59-7.49c-1.44-4.16-8.08-2.37-6.63,1.83c0.86,2.5,1.72,4.99,2.59,7.49c0.87,2.52,4.95,3.72,6.28,0.82
	c2.38-5.17,4.1-10.38,5.08-16c0.54-3.09-3.24-6.13-5.75-3.34c-3.14,3.49-6.28,6.99-9.42,10.48c1.62,1.62,3.24,3.24,4.86,4.86
	c4.97-6.11,7.67-12.64,8.47-20.49c0.34-3.29-3.83-4.1-5.87-2.43c-6.79,5.55-12.84,11.7-18.28,18.57c1.8,1.39,3.6,2.78,5.4,4.17
	c4.4-6.28,7.79-12.94,10.41-20.13c1.2-3.3-3.46-5.71-5.74-3.34c-7.12,7.36-14.23,14.71-21.35,22.07c1.8,1.39,3.6,2.78,5.4,4.17
	c6.43-10.21,12.87-20.42,19.3-30.63c2.1-3.33-2.66-6.91-5.4-4.17c-9.21,9.24-17.87,18.94-26.01,29.14c1.8,1.39,3.6,2.78,5.4,4.17
	c6.45-9.88,12.36-20.05,17.75-30.54c1.72-3.35-2.59-7.1-5.4-4.17c-7.72,8.07-15.45,16.15-23.17,24.22c1.8,1.39,3.6,2.78,5.4,4.17
	c4.48-8.88,8.96-17.77,13.44-26.65c1.65-3.27-2.75-7.33-5.4-4.17c-5.85,6.99-11.69,13.98-17.54,20.96c1.8,1.39,3.6,2.78,5.4,4.17
	c6.73-9.78,11.81-20.3,15.39-31.62c1.02-3.24-3.43-5.85-5.75-3.34c-3.94,4.27-7.88,8.55-11.83,12.82c1.8,1.39,3.6,2.78,5.4,4.17
	c5.18-11.26,8.49-22.87,10.08-35.16c0.38-2.96-4.02-4.54-5.87-2.43c-5,5.69-9.16,11.81-12.49,18.62c1.98,1.16,3.96,2.31,5.94,3.47
	c6.02-13.14,10.91-26.67,14.58-40.65c0.97-3.68-4.43-6.18-6.28-2.65c-3.63,6.9-8.31,12.72-14.25,17.77
	c1.91,1.11,3.83,2.23,5.75,3.34c3.55-9.98,7.71-19.67,12.48-29.12c1.82-3.59-2.4-6.63-5.4-4.17c-4.4,3.61-8.79,7.21-13.19,10.82
	c1.91,1.11,3.83,2.23,5.74,3.34c1.52-7.14,4.33-13.51,8.54-19.46c2.56-3.62-3.39-7.05-5.94-3.47c-2.42,3.41-5.2,6.23-8.44,8.84
	c1.96,0.81,3.91,1.62,5.87,2.43c0.56-4.48,2.47-8.24,5.53-11.5C171.22,351.61,166.37,346.74,163.33,349.98L163.33,349.98z"/>
<path class="st0" d="M189.81,421.59c-5.13,2.83-9.46,6.42-13.14,10.99c1.91,1.11,3.83,2.23,5.75,3.34
	c1.12-5.03,4.74-14.13-2.77-15.89c-6.14-1.44-9.15,4.28-10.07,9.35c-0.64,3.55,3.02,5.46,5.75,3.34c1.9-1.55,4.03-2.38,6.4-2.5
	c-1.45-1.1-2.9-2.21-4.35-3.31c-0.29,6.01-0.57,12.01-0.86,18.02c-0.19,4.06-1.62,10.17-0.03,14.15c2.94,7.32,13.9,2.47,19.17,1.37
	c-1.41-1.41-2.82-2.82-4.23-4.23c-1.74,5.97-7.47,8.23-13.27,8.24c-2.75,0-11.97-0.58-13.77-3.43c-0.66-1.05-0.14-6.75-0.17-8.02
	c-0.05-2.23-0.1-4.46-0.14-6.69c-0.11-4.9-0.21-9.81-0.32-14.71c-0.42-19.61-0.84-39.23-1.26-58.84c-0.09-4.42-6.79-4.43-6.87,0
	c-0.08,4.15-0.16,8.3-0.24,12.45c-0.07,3.76,6.21,4.83,6.75,0.91c1.08-7.79,2.4-15.67,4.56-23.24c0.75-2.63,2.69-8.88,4.12-3.07
	c1.14,4.64,0.26,9.15-1.55,13.45c2.21,0,4.42,0,6.63,0c-1.76-9.14-5.59-17.09-11.35-24.38c-1.98-2.51-5.75-0.25-5.87,2.43
	c-0.19,4.15,0.71,7.55,2.86,11.1c2.29,3.78,8.24,0.33,5.94-3.47c-1.57-2.6-2.05-4.66-1.92-7.63c-1.96,0.81-3.91,1.62-5.87,2.43
	c5,6.32,8.07,13.46,9.59,21.34c0.72,3.74,5.47,2.74,6.63,0c2.61-6.21,4.84-26.79-7.08-25.43c-4.45,0.51-6.76,5.11-8.05,8.86
	c-2.81,8.18-4.06,17.25-5.24,25.78c2.25,0.3,4.5,0.61,6.75,0.91c0.08-4.15,0.16-8.3,0.24-12.45c-2.29,0-4.58,0-6.87,0
	c0.61,28.52,0.93,57.07,1.84,85.59c0.12,3.9,0.01,7.14,3.64,9.4c4.09,2.55,11.03,3.32,15.8,3.56c9.35,0.48,18.41-3.88,21.16-13.27
	c0.77-2.65-1.75-4.75-4.23-4.23c-2.74,0.58-5.87,1.73-8.67,1.82c-1.9,0.06-1.35,0.6-2.26-0.41c-0.7-0.77,0.26-5.45,0.31-6.43
	c0.35-7.29,0.7-14.59,1.04-21.88c0.12-2.46-2.28-3.62-4.35-3.31c-3.8,0.56-6.43,1.93-9.43,4.27c1.91,1.11,3.83,2.23,5.74,3.34
	c0.95-5.27-0.14,1.64-0.42,2.89c-0.68,3.04,3.43,6.22,5.74,3.34c3.35-4.17,7.05-7.33,11.75-9.92
	C197.16,425.38,193.69,419.45,189.81,421.59L189.81,421.59z"/>
</svg>
