<?xml version="1.0" encoding="utf-8"?>
<!-- Generator: Adobe Illustrator 23.1.1, SVG Export Plug-In . SVG Version: 6.00 Build 0)  -->
<svg version="1.1" id="Layer_1" xmlns="http://www.w3.org/2000/svg" xmlns:xlink="http://www.w3.org/1999/xlink" x="0px" y="0px"
	 viewBox="0 0 650 650" style="enable-background:new 0 0 650 650;" xml:space="preserve">
<style type="text/css">
	.st0{fill:#123437;}
</style>
<g>
	<path class="st0" d="M423.26,479.93c-35.71,11.12-75.62,12.39-112.76,9.72c-34.52-2.48-69.57-10.17-99.87-27.43
		c-32.34-18.42-58.75-48.22-66.28-85.32c-8.7-42.87-7.43-88.61,0.68-131.45c9.2-48.65,28.07-95.1,55.55-136.29
		c-2.01,0-4.02,0-6.02,0c5.96,10.52,11.93,21.04,17.89,31.56c5.11,9.02,9.66,18.83,15.85,27.16c5.42,7.3,12.29,10.04,21.19,10.8
		c12.19,1.05,24.44,1.59,36.65,2.37c24.26,1.56,48.52,3.13,72.79,4.69c12.36,0.8,24.72,1.59,37.08,2.39
		c9.59,0.62,20.55,2.82,29.95,0.07c9.9-2.9,13.83-12.35,18.23-20.76c6.32-12.11,12.65-24.22,18.97-36.33
		c-1.83,0.24-3.65,0.47-5.48,0.71c35.95,46.28,57.97,103.05,63.05,161.42c4.34,49.83-1.03,106.75-34.83,146.29
		C469.33,458.9,447.37,472.1,423.26,479.93c-4.25,1.38-2.43,8.12,1.85,6.73c46.2-15.01,80.19-49.08,94.37-95.67
		c16.94-55.66,10.83-119.57-7.95-173.92c-11.26-32.57-27.79-62.97-48.93-90.18c-1.36-1.75-4.53-1.11-5.48,0.71
		c-6.12,11.72-12.24,23.44-18.36,35.16c-2.73,5.23-5.25,12.31-9.89,16.2c-4.94,4.14-11.77,3.51-17.77,3.18
		c-27.93-1.56-55.85-3.6-83.77-5.4c-13.73-0.88-27.47-1.77-41.2-2.65c-6.87-0.44-13.73-0.88-20.6-1.33
		c-6.8-0.44-14.22-0.15-20.87-1.71c-12.35-2.89-17.89-19.22-23.54-29.18c-6.85-12.08-13.69-24.15-20.54-36.23
		c-1.35-2.39-4.61-2.12-6.02,0c-50.37,75.51-71.92,169.05-59.3,258.98c3.09,22.02,9.39,41.69,22.52,59.81
		c10.04,13.86,22.36,25.84,36.38,35.65c29.22,20.45,64.42,30.57,99.48,34.92c20.17,2.5,40.56,3.06,60.85,2.21
		c23.84-0.99,47.75-3.42,70.61-10.54C429.39,485.33,427.57,478.59,423.26,479.93z"/>
	<path class="st0" d="M459.06,167.73c-1.94,7.07-3.17,14.24-3.78,21.55c-0.14,1.65,1.21,2.81,2.56,3.36
		c6.07,2.47,12.23,2.99,18.68,2.07c1.77-0.25,3.03-2.69,2.44-4.29c-2.93-7.99-6.76-15.48-11.64-22.46
		c-1.51-2.16-5.88-2.42-6.38,0.83c-1.23,8.05-0.81,15.82,1.54,23.64c0.65,2.16,3.14,3.23,5.12,2.08c3-1.72,5.88-4.32,5.15-8.14
		c-0.57-2.99-3.76-5.48-6.83-4.47c-6.45,2.11-1.36,12.6,4.65,7.91c3.54-2.76-1.43-7.66-4.93-4.93c-0.16,0.13-0.32,0.25-0.48,0.38
		c1.13-0.3,2.26-0.6,3.39-0.9c0.43,0.46,0.87,0.91,1.3,1.37c-0.34,0.82-0.68,1.64-1.02,2.47c0.16-0.16,0.32-0.31,0.48-0.47
		c-0.82,0.34-1.64,0.68-2.47,1.02c-0.95-1.09-1.87-1.18-2.77-0.26c1.71,0.69,3.42,1.39,5.12,2.09c-1.97-6.53-2.57-13.16-1.54-19.93
		c-2.13,0.28-4.25,0.56-6.38,0.83c4.53,6.48,8.21,13.37,10.93,20.79c0.81-1.43,1.62-2.86,2.44-4.29
		c-5.18,0.74-10.16-0.11-14.97-2.07c0.85,1.12,1.71,2.24,2.56,3.36c0.56-6.69,1.75-13.22,3.53-19.69
		C466.98,165.25,460.25,163.4,459.06,167.73L459.06,167.73z"/>
	<path class="st0" d="M189.75,150.26c-3.47,5.41-6.94,10.82-10.41,16.23c-0.93,1.45-0.43,4.04,1.25,4.77
		c6.99,3.05,14.11,3.92,21.63,2.53c1.88-0.35,2.88-2.59,2.44-4.29c-1.61-6.25-4.03-12.2-7.21-17.82c-1.14-2.02-3.86-2.21-5.48-0.71
		c-2.64,2.46-5.26,5.64-4.49,9.51c0.65,3.28,3.6,6.01,7.04,5.56c4.44-0.58,4.53-6.48,0-6.98c-4.79-0.53-9.11,1.89-11.54,5.98
		c-0.82,1.37-0.51,3.09,0.55,4.23c1.91,2.06,4.32,3.07,7.13,2.87c4.45-0.32,4.49-7.3,0-6.98c-0.92,0.28-1.66,0.01-2.2-0.82
		c0.18,1.41,0.36,2.82,0.55,4.23c1.27-2.14,3.1-2.79,5.52-2.52c0-2.33,0-4.65,0-6.98c-0.32,0.04,2.13-2.91,2.39-3.15
		c-1.83-0.24-3.65-0.47-5.48-0.71c2.9,5.12,5.04,10.46,6.5,16.15c0.81-1.43,1.62-2.86,2.44-4.29c-5.49,1.01-11.12,0.41-16.25-1.83
		c0.42,1.59,0.83,3.18,1.25,4.77c3.47-5.41,6.94-10.82,10.41-16.23C198.21,149.99,192.17,146.48,189.75,150.26L189.75,150.26z"/>
	<path class="st0" d="M429,275.52c-2.4,7.3,0.32,14.3,6.65,18.5c1.23,0.81,3.24,0.55,4.23-0.55c8.36-9.26,8.42-22.72,0.24-32.11
		c-1.63-1.87-4.22-0.94-5.48,0.71c-9.18,12.04-9.96,28.33-2.44,41.38c1.17,2.04,3.83,2.18,5.48,0.71
		c10.34-9.24,10.36-26.15,0.05-35.42c-1.63-1.46-4.33-1.34-5.48,0.71c-4.98,8.91-3.67,19.28,3.29,26.73c1.23,1.32,3.71,1.37,4.93,0
		c4.19-4.7,4.94-10.6,1.51-16.01c-1.27-2-3.75-2.2-5.48-0.71c-5.6,4.83-6.66,12.02-3.42,18.53c1.49,2.99,5.35,1.67,6.38-0.83
		c1.91-4.66,2.19-8.76,1.48-13.71c-0.56-3.94-6.91-2.93-6.85,0.93c0.03,1.93,0.06,3.87,0.08,5.8c0.06,4.49,7.04,4.5,6.98,0
		c-0.03-1.93-0.06-3.87-0.08-5.8c-2.28,0.31-4.57,0.62-6.85,0.93c0.52,3.68-0.1,6.64-1.48,10c2.13-0.28,4.25-0.56,6.38-0.83
		c-1.92-3.86-0.8-7.37,2.33-10.07c-1.83-0.24-3.65-0.47-5.48-0.71c1.92,2.54,1.77,5.06-0.42,7.56c1.64,0,3.29,0,4.93,0
		c-4.81-5.14-5.62-12.15-2.2-18.27c-1.83,0.24-3.65,0.47-5.48,0.71c7.62,6.86,7.6,18.72-0.05,25.56c1.83,0.24,3.65,0.47,5.48,0.71
		c-6.4-11.1-5.28-24.21,2.44-34.34c-1.83,0.24-3.65,0.47-5.48,0.71c5.59,6.42,5.44,15.94-0.24,22.24c1.41-0.18,2.82-0.36,4.23-0.55
		c-3.84-2.55-4.84-6.38-3.44-10.62C437.13,273.09,430.4,271.26,429,275.52L429,275.52z"/>
	<path class="st0" d="M220.46,275.52c-2.4,7.3,0.32,14.3,6.65,18.5c1.23,0.81,3.24,0.55,4.23-0.55c8.36-9.26,8.42-22.72,0.24-32.11
		c-1.63-1.87-4.22-0.94-5.48,0.71c-9.18,12.04-9.96,28.33-2.44,41.38c1.17,2.04,3.83,2.18,5.48,0.71
		c10.34-9.24,10.36-26.15,0.05-35.42c-1.63-1.46-4.33-1.34-5.48,0.71c-4.98,8.91-3.67,19.28,3.29,26.73c1.23,1.32,3.71,1.37,4.93,0
		c4.19-4.7,4.94-10.6,1.51-16.01c-1.27-2-3.75-2.2-5.48-0.71c-5.6,4.83-6.66,12.02-3.42,18.53c1.49,2.99,5.35,1.67,6.38-0.83
		c1.91-4.66,2.19-8.76,1.48-13.71c-0.56-3.94-6.91-2.93-6.85,0.93c0.03,1.93,0.06,3.87,0.08,5.8c0.06,4.49,7.04,4.5,6.98,0
		c-0.03-1.93-0.06-3.87-0.08-5.8c-2.28,0.31-4.57,0.62-6.85,0.93c0.52,3.68-0.1,6.64-1.48,10c2.13-0.28,4.25-0.56,6.38-0.83
		c-1.92-3.86-0.8-7.37,2.33-10.07c-1.83-0.24-3.65-0.47-5.48-0.71c1.92,2.54,1.77,5.06-0.42,7.56c1.64,0,3.29,0,4.93,0
		c-4.81-5.14-5.62-12.15-2.2-18.27c-1.83,0.24-3.65,0.47-5.48,0.71c7.62,6.86,7.6,18.72-0.05,25.56c1.83,0.24,3.65,0.47,5.48,0.71
		c-6.4-11.1-5.28-24.21,2.44-34.34c-1.83,0.24-3.65,0.47-5.48,0.71c5.59,6.42,5.44,15.94-0.24,22.24c1.41-0.18,2.82-0.36,4.23-0.55
		c-3.84-2.55-4.84-6.38-3.44-10.62C228.6,273.09,221.86,271.26,220.46,275.52L220.46,275.52z"/>
	<path class="st0" d="M329.01,316.21c-7.38-5.95-15.42,4.44-9.17,11.11c6.97,7.43,20.15,3.77,25.73-3.43
		c6.26-8.08-5.55-15.39-13.17-14.59c-8.71,0.92-13.03,9.89-9.67,17.66c3.39,7.83,13.13,9.43,18.46,2.59
		c5.38-6.9,1.84-18.68-8.21-17.25c-8.24,1.17-9.01,14.53-0.16,14.68c7.88,0.14,8.5-11.9,1.74-14.3
		c-10.92-3.88-17.03,14.6-6.38,18.81c8.94,3.54,13.57-11.2,4.64-13.02c-1.65-0.34-2.99,0.26-3.94,1.6c-2.2,3.09-2.18,6.65-0.13,9.8
		c0.93,1.43,2.33,1.86,3.94,1.6c11.69-1.86,4.55-22.47-7.23-14.19c-5.3,3.73-5.64,10.75-2.17,15.83c3.85,5.63,11.2,8.1,17.77,7.13
		c12.59-1.85,19.91-19.46,7.92-27.36c-10.14-6.68-26.48,0.8-29.12,12.34c-1.63,7.13,4.03,12.7,11,12.31
		c7.92-0.44,11.94-7.93,13.99-14.64c0.6-1.95-0.73-3.61-2.44-4.29c-6.42-2.58-17.56,3.34-13.1,11.04c1.58,2.72,5.35,6.23,8.77,5.55
		c4.41-0.88,8.43-6.98,10.25-10.59c2.01-4-4-7.54-6.02-3.52c-1.66,3.29-3.78,5.76-6.91,7.73c1.17,0,2.35,0,3.52,0
		c-1.54-0.67-4.06-1.47-2.91-3.13c0.86-1.24,3.49-0.78,4.55-0.36c-0.81-1.43-1.62-2.86-2.44-4.29c-0.9,2.93-2.13,6.95-4.97,8.6
		c-2.08,1.21-3.79,1.37-5.42-0.55c-1.75-2.05-0.88-3.61,0.5-5.65c2.89-4.27,9.5-7.14,14.57-5.76c7.54,2.06,6.1,11.82,0.07,14.78
		c-3.32,1.62-7.52,1.3-10.69-0.54c-1.4-0.81-3.02-2.1-3.7-3.65c-0.17-1.08-0.34-2.17-0.51-3.25c4.01-1.96,4.96-2.05,2.85-0.29
		c1.31,0.53,2.63,1.07,3.94,1.6c0.04-0.92,0.09-1.84,0.13-2.76c-1.31,0.53-2.63,1.07-3.94,1.6c-3.27-0.67-0.71-5.47,1.79-5.88
		c2.79-0.46,4.31,0.95,4.02,3.6c-0.46,4.26-5.54,5.39-7.51,1.62c-4.48-8.54,8.41-11,12.03-3.33c0-1.17,0-2.35,0-3.52
		c-1.74,2.97-4.27,5.19-7.62,6.14c-1.21,0.34-2.54,0.54-3.8,0.48c-3.49-0.17-3.33-1.18-5.81-3.18
		C327.54,323.94,332.51,319.03,329.01,316.21L329.01,316.21z"/>
	<path class="st0" d="M285.97,349.23c-5.15,20.6,12.27,39.83,33.41,35.29c22-4.73,25.38-30.17,26.16-48.77c0.19-4.61-6.4-4.3-6.98,0
		c-2.33,17.43-2.82,50.63,17.56,58.71c8.69,3.45,18.43-0.19,24.63-6.73c7.61-8.02,9.5-19.28,10.78-29.83c0.54-4.45-6.44-4.41-6.98,0
		c-1.05,8.59-2.54,18.35-8.74,24.9c-6.09,6.43-15.74,8.43-22.29,1.54c-11.04-11.6-9.92-34.04-7.98-48.58c-2.33,0-4.65,0-6.98,0
		c-0.57,13.46-1.51,31.6-14.44,39.46c-16.72,10.17-35.97-5.97-31.43-24.13C293.78,346.72,287.06,344.87,285.97,349.23L285.97,349.23
		z"/>
	<path class="st0" d="M278,182.65c-3.19,14.58-3.65,29.6-0.61,44.26c1.79,8.66,6.95,19.99,17.61,18.81
		c10.47-1.15,14.34-13.57,16.25-22.18c3.38-15.26,3.39-30.86,0.62-46.21c-0.38-2.11-3.39-3.32-5.12-2.09
		c-6.9,4.9-14.24,8.53-22.36,10.93c1.13,1.94,2.26,3.89,3.39,5.83c2.48-2.36,5.23-3.2,8.59-2.99c-0.82-1.99-1.64-3.97-2.47-5.96
		c-6.41,7.01-10.77,15.05-12.98,24.3c-0.78,3.25,3.36,6.04,5.83,3.39c6.95-7.46,13.91-14.93,20.86-22.39
		c-1.64-1.64-3.29-3.29-4.93-4.93c-9.16,10.7-15.01,23.28-16.89,37.26c-0.49,3.61,4.26,6.46,6.38,2.69
		c5.03-8.96,10.06-17.91,15.08-26.87c-2.13-0.9-4.25-1.79-6.38-2.69c-4.53,11.7-9.07,23.4-13.6,35.11c-1.42,3.68,4.61,6.2,6.38,2.69
		c4.8-9.56,9.6-19.13,14.39-28.69c-2.17-0.59-4.33-1.17-6.5-1.76c-0.93,14.02-5.21,27.11-12.59,39.06c1.83-0.24,3.65-0.47,5.48-0.71
		c-12.93-16.73-8.2-39.92-3.94-58.87c-2.28-0.31-4.57-0.62-6.85-0.93c-0.05,7.36-0.67,14.98-0.06,22.31
		c0.33,3.99,1.98,8.15,6.24,9.16c11.15,2.63,16.43-19.36,18.52-26.46c-2.28-0.31-4.57-0.62-6.85-0.93
		c1.91,16.25-0.92,32.14-8.59,46.62c1.59-0.42,3.18-0.83,4.77-1.25c-1.92-1.18-2.9-2.79-2.94-4.84c-0.72-4.42-7.45-2.54-6.73,1.85
		c0.67,4.07,2.72,6.8,6.14,9.01c1.54,0.99,3.92,0.36,4.77-1.25c8.22-15.51,11.59-32.69,9.54-50.14c-0.44-3.72-5.66-4.96-6.85-0.93
		c-0.83,2.82-7.33,23.22-10.91,20.07c-1.24-1.09-0.18-8.73-0.17-10.43c0.03-4.27,0.05-8.53,0.08-12.8c0.02-3.86-5.98-4.83-6.85-0.93
		c-4.92,21.92-9.02,46.56,5.74,65.66c1.43,1.85,4.43,1,5.48-0.71c8.03-13,12.53-27.34,13.54-42.58c0.23-3.41-4.97-4.81-6.5-1.76
		c-4.8,9.56-9.6,19.13-14.39,28.69c2.13,0.9,4.25,1.79,6.38,2.69c4.53-11.7,9.07-23.4,13.6-35.11c1.44-3.73-4.48-6.07-6.38-2.69
		c-5.03,8.96-10.06,17.91-15.08,26.87c2.13,0.9,4.25,1.79,6.38,2.69c1.72-12.76,6.7-24.38,15.09-34.18
		c2.89-3.37-1.84-8.26-4.93-4.93c-6.95,7.46-13.91,14.93-20.86,22.39c1.94,1.13,3.89,2.26,5.83,3.39
		c1.94-8.08,5.57-15.08,11.19-21.22c2.11-2.3,0.57-5.76-2.47-5.96c-5.33-0.34-9.67,1.37-13.52,5.03c-2.52,2.39,0.08,6.81,3.39,5.83
		c8.68-2.57,16.65-6.39,24.03-11.64c-1.71-0.7-3.42-1.39-5.12-2.09c1.95,10.78,2.38,21.72,1.06,32.6
		c-0.88,7.29-2.17,22.4-9.85,26.32c-10.27,5.23-12.89-15.57-13.5-21.09c-1.2-10.91-0.46-21.82,1.88-32.52
		C285.69,180.13,278.96,178.26,278,182.65L278,182.65z"/>
	<path class="st0" d="M335.16,185c-4.6,14.46-6.46,31.28-2.24,46.08c2.58,9.04,9.55,19.19,20.28,17.09
		c11.2-2.19,14.93-15.63,17.48-25.07c3.68-13.63,5.83-27.64-0.4-40.84c-1.31-2.78-5.65-1.9-6.38,0.83
		c-4.21,15.82-9.49,31.28-15.94,46.33c2.13,0.9,4.25,1.79,6.38,2.69c3.01-14.53,6.01-29.06,9.02-43.59c0.8-3.84-4.19-6.1-6.38-2.69
		c-5.83,9.13-11.67,18.25-17.5,27.38c2.01,1.17,4.02,2.35,6.02,3.52c3.82-7.2,5.95-14.62,6.59-22.75c0.16-2.04-1.74-3.27-3.49-3.49
		c-3.88-0.49-6.6,0.64-9.38,3.32c1.83,1.41,3.65,2.82,5.48,4.23c2.25-4.86,2.83-9.38,1.82-14.64c-0.7-3.68-5.66-2.93-6.73,0
		c-6.83,18.71-12.9,45.12,8.43,57.11c1.8,1.01,4.73,0.2,5.12-2.08c2.86-16.64,4.65-33.39,5.3-50.26c0.12-3.14-3.84-4.44-5.96-2.47
		c-12.31,11.45-13.73,28.69-14.3,44.53c-0.1,2.87,4,4.8,5.96,2.47c9.42-11.23,13.21-24.98,11.01-39.46
		c-0.38-2.49-4.27-3.48-5.83-1.54c-6.13,7.63-10.2,16.01-12.04,25.65c2.24,0,4.49,0,6.73,0c-2.36-10.01,0.02-20.07,6.76-27.88
		c-1.99-0.82-3.97-1.64-5.96-2.47c0.22,7.81-0.16,15.54-1.16,23.29c-0.52,4.02,5.76,4.54,6.85,0.93c1.85-6.09,4.68-11.08,9-15.77
		c-1.94-0.51-3.89-1.03-5.83-1.54c6.18,15.5,5.04,32.32-3.46,46.72c-1.98,3.35,2.77,7.22,5.48,4.23
		c12.65-13.98,17.54-32.81,13.23-51.18c-0.96-4.09-6.48-2.76-6.85,0.93c-1.61,15.97-6.69,31.03-14.9,44.81c2.01,0,4.02,0,6.02,0
		c-9.24-15.66-0.39-34.16,7.17-48.62c-1.31,0.53-2.63,1.07-3.94,1.6c1.47,0.58,2.94,1.16,4.4,1.74c0.62-2.24,1.24-4.49,1.85-6.73
		c-1.97-0.36-3.95-0.71-5.92-1.07c-4.39-0.79-6.27,5.93-1.85,6.73c1.97,0.36,3.95,0.71,5.92,1.07c4.46,0.81,6.02-5.08,1.85-6.73
		c-1.47-0.58-2.94-1.16-4.4-1.74c-1.36-0.54-3.28,0.35-3.94,1.6c-8.81,16.87-17.84,37.58-7.17,55.66c1.34,2.27,4.68,2.25,6.02,0
		c8.86-14.87,14.12-31.12,15.86-48.33c-2.28,0.31-4.57,0.62-6.85,0.93c3.72,15.86-0.5,32.3-11.43,44.39
		c1.83,1.41,3.65,2.82,5.48,4.23c9.36-15.86,10.99-34.96,4.16-52.1c-0.91-2.28-3.88-3.65-5.83-1.54
		c-5.08,5.51-8.62,11.67-10.79,18.84c2.28,0.31,4.57,0.62,6.85,0.93c1-7.75,1.38-15.48,1.16-23.29c-0.08-2.82-3.89-4.86-5.96-2.47
		c-8.41,9.75-11.52,22.11-8.55,34.67c0.76,3.24,6.07,3.41,6.73,0c1.6-8.37,4.9-15.91,10.25-22.57c-1.94-0.51-3.89-1.03-5.83-1.54
		c1.8,11.8-1.55,23.53-9.21,32.67c1.99,0.82,3.97,1.64,5.96,2.47c0.5-13.97,1.36-29.46,12.25-39.6c-1.99-0.82-3.97-1.64-5.96-2.47
		c-0.62,16.25-2.29,32.38-5.05,48.41c1.71-0.7,3.42-1.39,5.12-2.09c-18.21-10.24-10.85-33.79-5.22-49.23c-2.24,0-4.49,0-6.73,0
		c0.63,3.33,0.31,6.18-1.12,9.27c-1.6,3.46,2.47,7.13,5.48,4.23c1.48-0.43,2.97-0.85,4.45-1.28c-1.16-1.16-2.33-2.33-3.49-3.49
		c-0.55,6.93-2.38,13.09-5.64,19.23c-2.11,3.98,3.6,7.31,6.02,3.52c5.83-9.13,11.67-18.25,17.5-27.38c-2.13-0.9-4.25-1.79-6.38-2.69
		c-3.01,14.53-6.01,29.06-9.02,43.59c-0.75,3.61,4.73,6.53,6.38,2.69c6.7-15.61,12.28-31.58,16.65-47.99
		c-2.13,0.28-4.25,0.56-6.38,0.83c4.65,9.86,3.33,20.64,0.87,30.91c-1.77,7.4-4.05,21.79-12.58,24.31
		c-10.62,3.13-13.74-13.69-14.44-20.74c-1.12-11.35,0.33-22.56,3.78-33.4C343.25,182.56,336.51,180.73,335.16,185L335.16,185z"/>
	<path class="st0" d="M390.74,188.88c-4.58,14.6-6.16,29.92-4.18,45.12c1.37,10.53,5.29,23.56,18.55,21.91
		c11.9-1.48,16.97-13.7,19.46-23.9c3.62-14.8,3.2-30.13-0.64-44.83c-1.03-3.96-6.59-2.88-6.85,0.93
		c-1.32,19.19-5.81,37.77-13.21,55.52c2.28,0.31,4.57,0.62,6.85,0.93c-0.95-16.34,1.75-32.18,8.01-47.3
		c-2.24-0.62-4.49-1.24-6.73-1.85c-3.67,11.01-7.34,22.01-11,33.02c2.24,0.62,4.49,1.24,6.73,1.85
		c3.39-13.22,6.77-26.44,10.16-39.65c0.89-3.47-3.27-5.7-5.83-3.39c-8.99,8.09-14.96,18.52-17.34,30.39
		c-0.75,3.73,4.33,6.29,6.38,2.69c5.08-8.91,8.68-18.31,10.8-28.35c0.52-2.47-1.61-5.15-4.29-4.29
		c-6.94,2.22-11.76,7.31-13.14,14.53c-0.71,3.74,4.28,6.28,6.38,2.69c3.17-5.42,3.17-11.05,0.06-16.5
		c-1.56-2.73-5.44-1.92-6.38,0.83c-6.64,19.45-5.29,40.17,3.41,58.74c1.23,2.63,5.86,2.05,6.38-0.83
		c2.11-11.82,2.6-23.58,1.28-35.53c-0.41-3.72-5.7-4.96-6.85-0.93c-3.58,12.51-2.59,24.98,2.52,36.9c1.43,3.34,6.47,1.43,6.5-1.76
		c0.06-5.64,1.23-10.62,3.78-15.67c-2.13-0.9-4.25-1.79-6.38-2.69c-1.93,6.16-3.87,12.32-5.8,18.48c-0.91,2.89,2.57,5.51,5.12,3.94
		c16.26-10.01,23.81-30.36,17.63-48.51c-1.44-4.23-8.18-2.41-6.73,1.85c5.18,15.18-0.69,32.18-14.42,40.63
		c1.71,1.31,3.42,2.63,5.12,3.94c1.93-6.16,3.87-12.32,5.8-18.48c1.17-3.73-4.57-6.24-6.38-2.69c-3.09,6.1-4.66,12.34-4.74,19.19
		c2.17-0.59,4.33-1.17,6.5-1.76c-4.36-10.15-4.84-20.95-1.82-31.53c-2.28-0.31-4.57-0.62-6.85-0.93c1.25,11.3,0.97,22.47-1.03,33.67
		c2.13-0.28,4.25-0.56,6.38-0.83c-7.91-16.89-8.72-35.76-2.71-53.36c-2.13,0.28-4.25,0.56-6.38,0.83c1.82,3.18,1.79,6.29-0.06,9.45
		c2.13,0.9,4.25,1.79,6.38,2.69c0.91-4.79,3.57-8.15,8.27-9.66c-1.43-1.43-2.86-2.86-4.29-4.29c-1.99,9.47-5.3,18.27-10.09,26.68
		c2.13,0.9,4.25,1.79,6.38,2.69c2.17-10.81,7.34-19.92,15.54-27.31c-1.94-1.13-3.89-2.26-5.83-3.39
		c-3.39,13.22-6.77,26.44-10.16,39.65c-1.12,4.38,5.32,6.1,6.73,1.85c3.67-11.01,7.34-22.01,11-33.02c1.45-4.36-5.06-5.88-6.73-1.85
		c-6.47,15.64-9.24,32.26-8.26,49.16c0.24,4.13,5.37,4.48,6.85,0.93c7.65-18.33,12.1-37.57,13.46-57.37
		c-2.28,0.31-4.57,0.62-6.85,0.93c2.66,10.17,3.6,20.58,2.45,31.05c-0.99,9.03-3.34,25.1-13.47,28.47
		c-13.14,4.36-13.35-18.17-13.5-25.76c-0.21-10.94,1.52-21.64,4.79-32.06C398.82,186.44,392.08,184.6,390.74,188.88L390.74,188.88z"
		/>
	<path class="st0" d="M501.7,351.99c13.02-4.56,26.31-4.23,39.11,0.89c4.17,1.67,5.98-5.08,1.85-6.73
		c-13.81-5.52-28.79-5.8-42.82-0.89C495.64,346.73,497.45,353.47,501.7,351.99L501.7,351.99z"/>
	<path class="st0" d="M500.78,378.02c13.59,0.32,26.07,5.32,36.08,14.53c3.3,3.04,8.25-1.89,4.93-4.93
		c-11.37-10.46-25.56-16.21-41.02-16.57C496.29,370.94,496.29,377.91,500.78,378.02L500.78,378.02z"/>
	<path class="st0" d="M495.92,401.03c10.09,3.6,18.12,10.71,23.17,20.12c2.13,3.96,8.15,0.44,6.02-3.52
		c-5.93-11.05-15.56-19.12-27.34-23.33C493.53,392.79,491.71,399.53,495.92,401.03L495.92,401.03z"/>
	<path class="st0" d="M109.18,339.14c15.27-6.18,31.97-6.38,47.2,0.12c4.08,1.74,7.64-4.27,3.52-6.02
		c-16.93-7.22-35.44-7.75-52.58-0.82C103.21,334.07,105.01,340.82,109.18,339.14L109.18,339.14z"/>
	<path class="st0" d="M126.73,363.82c9.5-5.64,19.73-8.3,30.76-8.02c4.49,0.11,4.49-6.86,0-6.98c-12.19-0.31-23.81,2.75-34.28,8.97
		C119.35,360.08,122.86,366.12,126.73,363.82L126.73,363.82z"/>
	<path class="st0" d="M130.02,392.77c11.13-8.9,23.9-14.93,37.77-18.13c4.37-1.01,2.52-7.74-1.85-6.73
		c-15.1,3.49-28.75,10.26-40.84,19.93C121.58,390.64,126.55,395.55,130.02,392.77L130.02,392.77z"/>
</g>
</svg>
