<?xml version="1.0" encoding="utf-8"?>
<!-- Generator: Adobe Illustrator 23.1.1, SVG Export Plug-In . SVG Version: 6.00 Build 0)  -->
<svg version="1.1" id="Layer_1" xmlns="http://www.w3.org/2000/svg" xmlns:xlink="http://www.w3.org/1999/xlink" x="0px" y="0px"
	 viewBox="0 0 400 692" style="enable-background:new 0 0 400 692;" xml:space="preserve">
<style type="text/css">
	.st0{fill:#D58D72;}
	.st1{fill:#DE8E53;}
</style>
<g>
	<path class="st0" d="M381.05-77.01c16.38,32.27,2.07,71.92-18.86,101.44c-16.75,23.63-37.68,44.3-61.52,60.75
		c-25.58,17.65-54.21,30.32-80.96,46.13c-72.49,42.8-129.55,107.41-198.55,155.63c-62.25,43.51-134.07,73.24-208.85,86.47
		c-43.21,7.64-88.31,9.73-130.46-2.46c-42.15-12.18-81.16-40.2-99.16-80.22c-10.55-23.46-13.47-49.6-14.57-75.31
		c-4.32-100.53,17.6-202.07,62.99-291.87c7.86-15.54,16.57-30.96,28.89-43.27c31.59-31.55,80.14-37.02,124.71-39.71
		c68.13-4.12,136.4-5.91,204.65-5.37c77.37,0.62,155.66,4.39,229.79,26.56c11.03,3.3,22.16,7.11,31.33,14.08
		c6.08,4.62,11.11,10.5,17.27,15.01c31.37,22.95,79.31,3.5,112.36,23.96"/>
</g>
<g>
	<path class="st1" d="M45.11,817.19c-24.28-28.92-48.85-58.3-64.53-92.64s-21.63-74.88-7.56-109.91
		c9.76-24.29,28.97-44.64,52.65-55.78c15.38-7.24,32.24-10.62,48.88-14.1c63.92-13.4,130.24-30.83,178.37-74.98
		c39.31-36.07,62.34-86.39,79.84-136.79s30.66-102.64,54.99-150.12c5.17-10.09,11.32-20.42,21.24-25.91
		c7.99-4.42,17.51-5.13,26.63-4.71c50.85,2.36,96.44,38,119.53,83.37s26.06,98.85,17.89,149.1s-26.8,98.1-45.3,145.52
		c-24.28,62.24-48.57,124.47-72.85,186.71c-7.03,18.03-14.15,36.22-24.94,52.28c-13.11,19.52-31.12,35.15-49.14,50.26
		c-28.24,23.69-57.02,46.72-85.8,69.75c-9.4,7.52-19.06,15.19-30.49,18.95c-19.46,6.4-40.61,0.54-60.1-5.77
		c-48.97-15.87-97-34.65-143.75-56.21c-11.76-5.42-25.65-17.02-19.45-28.39"/>
</g>
</svg>
