<?xml version="1.0" encoding="utf-8"?>
<!-- Generator: Adobe Illustrator 23.1.1, SVG Export Plug-In . SVG Version: 6.00 Build 0)  -->
<svg version="1.1" id="Layer_1" xmlns="http://www.w3.org/2000/svg" xmlns:xlink="http://www.w3.org/1999/xlink" x="0px" y="0px"
	 viewBox="0 0 650 900" style="enable-background:new 0 0 650 900;" xml:space="preserve">
<style type="text/css">
	.st0{fill:#DE8E53;}
</style>
<g>
	<path class="st0" d="M208.56,843.55c-34.44-20.2-69.34-40.76-97.14-69.42c-27.8-28.66-48.1-66.93-46.5-106.83
		c1.11-27.66,13.03-54.75,32.68-74.25c12.76-12.66,28.36-22.01,43.7-31.39c58.94-36.02,118.84-76.9,151.13-137.96
		c26.38-49.87,31.48-108.18,31.04-164.6c-0.43-56.42-5.85-113.14,1.56-169.07c1.58-11.89,4.03-24.36,11.98-33.34
		c6.4-7.24,15.63-11.32,24.87-14.13c51.5-15.67,109.56,3.67,148.65,40.68s61.02,89.25,70.69,142.21
		c9.67,52.96,8.08,107.25,6.46,161.06c-2.13,70.62-4.25,141.24-6.38,211.86c-0.62,20.45-1.26,41.1-6.31,60.93
		c-6.14,24.09-18.55,46.06-31.14,67.5c-19.73,33.61-40.24,66.77-60.75,99.92c-6.7,10.82-13.61,21.89-23.66,29.69
		c-17.11,13.28-40.27,14.94-61.92,15.56c-54.42,1.55-59.78-0.44-114-5.35C269.89,865.38,230.02,856.38,208.56,843.55"/>
</g>
</svg>
