<?xml version="1.0" encoding="utf-8"?>
<!-- Generator: Adobe Illustrator 23.1.1, SVG Export Plug-In . SVG Version: 6.00 Build 0)  -->
<svg version="1.1" id="Layer_1" xmlns="http://www.w3.org/2000/svg" xmlns:xlink="http://www.w3.org/1999/xlink" x="0px" y="0px"
	 viewBox="0 0 1350 650" style="enable-background:new 0 0 1350 650;" xml:space="preserve">
<style type="text/css">
	.st0{fill:#D9AC9B;}
	.st1{fill:#D58D72;}
	.st2{fill:#DE8E53;}
</style>
<rect x="0.38" y="0.5" class="st0" width="1350" height="650"/>
<g>
	<path class="st1" d="M761-40.98c16.38,32.27,2.07,71.92-18.86,101.44c-16.75,23.63-37.68,44.3-61.52,60.75
		c-25.58,17.65-54.21,30.32-80.96,46.13c-72.49,42.8-129.55,107.41-198.55,155.63c-62.25,43.51-134.07,73.24-208.85,86.47
		c-43.21,7.64-88.31,9.73-130.46-2.46c-42.15-12.18-81.16-40.2-99.16-80.22c-10.55-23.46-13.47-49.6-14.57-75.31
		c-4.32-100.53,17.6-202.07,62.99-291.87c7.86-15.54,16.57-30.96,28.89-43.27c31.59-31.55,80.14-37.02,124.71-39.71
		c68.13-4.12,136.4-5.91,204.65-5.37c77.37,0.62,155.66,4.39,229.79,26.56c11.03,3.3,22.16,7.11,31.33,14.08
		c6.08,4.62,11.11,10.5,17.27,15.01c31.37,22.95,79.31,3.5,112.36,23.96"/>
</g>
<g>
	<path class="st2" d="M1078.17,705.17c-34.44-20.2-69.34-40.76-97.14-69.42c-27.8-28.66-48.1-66.93-46.5-106.83
		c1.11-27.66,13.03-54.75,32.68-74.25c12.76-12.66,28.36-22.01,43.7-31.39c58.94-36.02,118.84-76.9,151.13-137.96
		c26.38-49.87,31.48-108.18,31.04-164.6s-5.85-113.14,1.56-169.07c1.58-11.89,4.03-24.36,11.98-33.34
		c6.4-7.24,15.63-11.32,24.87-14.13c51.5-15.67,109.56,3.67,148.65,40.68s61.02,89.25,70.69,142.21
		c9.67,52.96,8.08,107.25,6.46,161.06c-2.13,70.62-4.25,141.24-6.38,211.86c-0.62,20.45-1.26,41.1-6.31,60.93
		c-6.14,24.09-18.55,46.06-31.14,67.5c-19.73,33.61-40.24,66.77-60.75,99.92c-6.7,10.82-13.61,21.89-23.66,29.69
		c-17.11,13.28-40.27,14.94-61.92,15.56c-54.42,1.55-108.93-0.13-163.15-5.04c-13.64-1.23-31.59-7.86-29.45-21.39"/>
</g>
</svg>
