<?xml version="1.0" encoding="utf-8"?>
<!-- Generator: Adobe Illustrator 23.1.1, SVG Export Plug-In . SVG Version: 6.00 Build 0)  -->
<svg version="1.1" id="Layer_1" xmlns="http://www.w3.org/2000/svg" xmlns:xlink="http://www.w3.org/1999/xlink" x="0px" y="0px"
	 viewBox="0 0 864 720" style="enable-background:new 0 0 864 720;" xml:space="preserve">
<style type="text/css">
	.st0{fill:#D58D72;}
</style>
<g>
	<path class="st0" d="M844.6,180.58c16.38,32.27,2.07,71.92-18.86,101.44c-16.75,23.63-37.68,44.3-61.52,60.75
		c-25.58,17.65-54.21,30.32-80.96,46.13c-72.49,42.8-129.55,107.41-198.55,155.63c-62.25,43.51-134.07,73.24-208.85,86.47
		c-43.21,7.64-88.31,9.73-130.46-2.46s-81.16-40.2-99.16-80.22c-10.55-23.46-13.47-49.6-14.57-75.31
		c-4.32-100.53,17.6-202.07,62.99-291.87c7.86-15.54,16.57-30.96,28.89-43.27c31.59-31.55,80.14-37.02,124.71-39.71
		c68.13-4.12,136.4-5.91,204.65-5.37c77.37,0.62,155.66,4.39,229.79,26.56c11.03,3.3,22.16,7.11,31.33,14.08
		c6.08,4.62,11.11,10.5,17.27,15.01c31.37,22.95,79.31,3.5,112.36,23.96"/>
</g>
</svg>
