<?xml version="1.0" encoding="utf-8"?>
<!-- Generator: Adobe Illustrator 23.1.1, SVG Export Plug-In . SVG Version: 6.00 Build 0)  -->
<svg version="1.1" id="Layer_1" xmlns="http://www.w3.org/2000/svg" xmlns:xlink="http://www.w3.org/1999/xlink" x="0px" y="0px"
	 viewBox="0 0 3000 2200" style="enable-background:new 0 0 3000 2200;" xml:space="preserve">
<style type="text/css">
	.st0{fill:#D58D72;}
	.st1{fill:#DE8E53;}
</style>
<g>
	<path class="st0" d="M2108.53-79.18c53.85,106.1,6.79,236.49-62.01,333.56c-55.08,77.72-123.9,145.67-202.3,199.77
		c-84.11,58.03-178.25,99.72-266.24,151.67C1339.61,746.58,1152,959.01,925.09,1117.59c-204.7,143.06-440.86,240.84-686.77,284.34
		c-142.08,25.13-290.38,31.99-428.99-8.08c-138.61-40.07-266.89-132.17-326.05-263.77c-34.69-77.16-44.28-163.11-47.91-247.63
		c-14.19-330.57,57.87-664.47,207.14-959.76c25.84-51.12,54.47-101.8,95-142.28C-158.61-323.34,1.02-341.31,147.57-350.18
		c224.03-13.56,448.52-19.44,672.96-17.64c254.42,2.04,511.86,14.45,755.62,87.35c36.27,10.85,72.88,23.39,103.02,46.3
		c19.98,15.19,36.55,34.53,56.8,49.34c103.17,75.46,260.8,11.53,369.48,78.8"/>
</g>
<g>
	<path class="st1" d="M1209.16,3150.69c-101.77-121.22-204.78-244.38-270.52-388.36s-90.69-313.9-31.69-460.77
		c40.91-101.83,121.43-187.14,220.74-233.86c64.49-30.34,135.17-44.5,204.92-59.13c267.97-56.19,821.83-246.02,1023.58-431.11
		c164.8-151.19,261.32-362.16,334.69-573.43s128.51-430.3,230.54-629.32c21.68-42.3,47.44-85.6,89.04-108.6
		c33.51-18.52,73.41-21.5,111.66-19.73c213.17,9.91,286.32,245.78,383.12,435.96s-48.6,444.69-82.87,655.32
		c-34.27,210.63-112.35,411.26-189.92,610.06c-101.8,260.9-203.6,521.81-305.39,782.71c-29.49,75.57-59.33,151.83-104.56,219.17
		c-54.95,81.82-130.48,147.34-205.99,210.69c-118.37,99.31-239.03,195.86-359.67,292.4c-39.39,31.52-79.9,63.66-127.82,79.43
		c-81.56,26.84-170.26,2.28-251.94-24.19c-205.3-66.52-406.64-145.26-602.61-235.66c-49.28-22.73-107.52-71.34-81.56-119"/>
</g>
</svg>
