<?xml version="1.0" encoding="utf-8"?>
<!-- Generator: Adobe Illustrator 23.1.1, SVG Export Plug-In . SVG Version: 6.00 Build 0)  -->
<svg version="1.1" id="Layer_1" xmlns="http://www.w3.org/2000/svg" xmlns:xlink="http://www.w3.org/1999/xlink" x="0px" y="0px"
	 viewBox="0 0 768 1024" style="enable-background:new 0 0 768 1024;" xml:space="preserve">
<style type="text/css">
	.st0{fill:#D58D72;}
	.st1{fill:#DE8E53;}
</style>
<g>
	<path class="st0" d="M671.93-32.92c17.54,34.56,2.21,77.04-20.2,108.66c-17.94,25.32-40.36,47.45-65.9,65.08
		c-27.4,18.91-58.07,32.48-86.73,49.41c-77.65,45.85-138.77,115.05-212.69,166.71c-66.68,46.6-143.62,78.46-223.72,92.63
		c-46.28,8.19-94.59,10.42-139.75-2.63s-86.94-43.06-106.22-85.93c-11.3-25.13-14.42-53.14-15.61-80.67
		c-4.62-107.69,18.85-216.46,67.48-312.65c8.42-16.65,17.74-33.16,30.95-46.35c33.84-33.8,85.84-39.65,133.58-42.54
		c72.98-4.42,146.11-6.33,219.22-5.75c82.88,0.66,166.74,4.71,246.15,28.45c11.82,3.53,23.74,7.62,33.56,15.08
		c6.51,4.95,11.91,11.25,18.5,16.07c33.61,24.58,84.96,3.75,120.36,25.67"/>
</g>
<g>
	<path class="st1" d="M214.22,1234.58c-35.67-42.49-71.78-85.67-94.83-136.14c-23.04-50.47-31.79-110.03-11.11-161.52
		c14.34-35.7,42.57-65.6,77.38-81.98c22.61-10.63,47.38-15.6,71.83-20.73c93.93-19.7,191.39-45.31,262.12-110.19
		c57.77-53,91.6-126.95,117.32-201.01c25.72-74.06,45.05-150.84,80.81-220.6c7.6-14.83,16.63-30.01,31.21-38.07
		c11.75-6.49,25.73-7.54,39.14-6.91c74.72,3.47,141.72,55.84,175.65,122.51c33.93,66.67,38.3,145.26,26.29,219.1
		s-39.38,144.16-66.57,213.85c-35.68,91.46-71.37,182.91-107.05,274.37c-10.34,26.49-20.8,53.22-36.65,76.83
		c-19.26,28.68-45.74,51.65-72.21,73.86c-41.49,34.81-83.79,68.66-126.08,102.5c-13.81,11.05-28.01,22.32-44.81,27.84
		c-28.59,9.41-59.68,0.8-88.31-8.48c-71.97-23.32-142.54-50.92-211.24-82.61c-17.27-7.97-37.69-25.01-28.59-41.71"/>
</g>
</svg>
