<?xml version="1.0" encoding="utf-8"?>
<!-- Generator: Adobe Illustrator 23.1.1, SVG Export Plug-In . SVG Version: 6.00 Build 0)  -->
<svg version="1.1" id="Layer_1" xmlns="http://www.w3.org/2000/svg" xmlns:xlink="http://www.w3.org/1999/xlink" x="0px" y="0px"
	 viewBox="0 0 4500 2200" style="enable-background:new 0 0 4500 2200;" xml:space="preserve">
<style type="text/css">
	.st0{fill:#D58D72;}
	.st1{fill:#DE8E53;}
</style>
<g>
	<path class="st0" d="M3267.48-736.24c78.19,154.08,9.86,343.42-90.05,484.39c-79.99,112.86-179.92,211.54-293.78,290.1
		c-122.14,84.28-258.85,144.81-386.62,220.26c-346.16,204.4-618.61,512.89-948.12,743.18
		c-297.26,207.75-640.21,349.74-997.32,412.91c-206.33,36.5-421.68,46.46-622.97-11.73c-201.29-58.18-387.57-191.94-473.49-383.05
		c-50.37-112.05-64.3-236.87-69.57-359.6c-20.61-480.04,84.04-964.93,300.8-1393.74c37.52-74.23,79.1-147.84,137.95-206.61
		c150.87-150.67,382.67-176.77,595.49-189.65c325.33-19.68,651.34-28.23,977.26-25.62c369.46,2.96,743.31,20.99,1097.29,126.85
		c52.67,15.75,105.83,33.96,149.6,67.24c29.01,22.05,53.07,50.14,82.49,71.66c149.82,109.58,378.72,16.74,536.55,114.42"/>
</g>
<g>
	<path class="st1" d="M1834.4,3153.84c-83.7-176.3-168.28-355.31-201.9-547.55c-33.62-192.24-10.52-402.74,105.58-559.61
		c80.5-108.77,203.12-185.49,336.14-210.33c86.38-16.13,175.13-11.03,262.9-6.78c337.21,16.35,691.67,15.7,989.99-142.35
		c243.68-129.11,424.49-350.78,577.78-580.02c153.29-229.24,287.24-473.41,470.9-679.12c39.04-43.72,83.24-87.37,140.03-101.86
		c45.75-11.67,94.28-2.81,139.36,11.21c251.25,78.16,432.8,315.88,489.11,572.91c56.31,257.03,1.4,528.44-105.04,769.08
		c-106.44,240.64-262.03,455.72-416.44,668.77c-202.65,279.61-405.3,559.22-607.95,838.83c-58.7,80.99-118.04,162.69-192.95,228.96
		c-91.03,80.52-201.53,135.19-311.34,187.28c-172.14,81.65-346.14,159.3-520.12,236.94c-56.81,25.35-115.14,51.09-177.23,54.99
		c-105.67,6.64-203.85-50.27-293.07-107.27c-224.25-143.26-439.97-299.86-645.65-468.7c-51.72-42.46-106.08-118.58-60.27-167.36"/>
</g>
</svg>
